%TF.GenerationSoftware,KiCad,Pcbnew,(6.0.4)*%
%TF.CreationDate,2022-05-03T13:51:14+02:00*%
%TF.ProjectId,nano_samc21e,6e616e6f-5f73-4616-9d63-3231652e6b69,rev?*%
%TF.SameCoordinates,Original*%
%TF.FileFunction,Soldermask,Bot*%
%TF.FilePolarity,Negative*%
%FSLAX46Y46*%
G04 Gerber Fmt 4.6, Leading zero omitted, Abs format (unit mm)*
G04 Created by KiCad (PCBNEW (6.0.4)) date 2022-05-03 13:51:14*
%MOMM*%
%LPD*%
G01*
G04 APERTURE LIST*
%ADD10C,0.010000*%
%ADD11C,1.800000*%
%ADD12O,1.800000X1.800000*%
%ADD13C,1.900000*%
%ADD14C,1.448000*%
G04 APERTURE END LIST*
%TO.C,FID1*%
G36*
X25986541Y-19083164D02*
G01*
X25985629Y-19085523D01*
X25987493Y-19086081D01*
X25993840Y-19087749D01*
X26004212Y-19090394D01*
X26018114Y-19093890D01*
X26035053Y-19098116D01*
X26054536Y-19102947D01*
X26076070Y-19108260D01*
X26099162Y-19113933D01*
X26116782Y-19118246D01*
X26140192Y-19123934D01*
X26160531Y-19128785D01*
X26178607Y-19132959D01*
X26195230Y-19136614D01*
X26211211Y-19139909D01*
X26227358Y-19143003D01*
X26244481Y-19146055D01*
X26263389Y-19149225D01*
X26284893Y-19152671D01*
X26309802Y-19156552D01*
X26338924Y-19161028D01*
X26356823Y-19163784D01*
X26389098Y-19168807D01*
X26424363Y-19174352D01*
X26461368Y-19180218D01*
X26498865Y-19186207D01*
X26535604Y-19192120D01*
X26570337Y-19197758D01*
X26601814Y-19202921D01*
X26610520Y-19204354D01*
X26643549Y-19209702D01*
X26673650Y-19214431D01*
X26700480Y-19218492D01*
X26723693Y-19221834D01*
X26742945Y-19224408D01*
X26757890Y-19226163D01*
X26768184Y-19227050D01*
X26771059Y-19227218D01*
X26784035Y-19228251D01*
X26796056Y-19229823D01*
X26808566Y-19232200D01*
X26823010Y-19235647D01*
X26840830Y-19240432D01*
X26882995Y-19252122D01*
X26892752Y-19282092D01*
X26902509Y-19312061D01*
X26875874Y-19346946D01*
X26849238Y-19381831D01*
X26806171Y-19392686D01*
X26763104Y-19403542D01*
X26650739Y-19403612D01*
X26608107Y-19403488D01*
X26568354Y-19403008D01*
X26532123Y-19402113D01*
X26498625Y-19400749D01*
X26467075Y-19398859D01*
X26436685Y-19396389D01*
X26406667Y-19393282D01*
X26376236Y-19389483D01*
X26344604Y-19384936D01*
X26310984Y-19379586D01*
X26308999Y-19379257D01*
X26284473Y-19375237D01*
X26257895Y-19370934D01*
X26230677Y-19366574D01*
X26204230Y-19362382D01*
X26179968Y-19358583D01*
X26159303Y-19355403D01*
X26146981Y-19353492D01*
X26118423Y-19348815D01*
X26088688Y-19343637D01*
X26058466Y-19338098D01*
X26028445Y-19332338D01*
X25999315Y-19326498D01*
X25971764Y-19320716D01*
X25946481Y-19315133D01*
X25924154Y-19309889D01*
X25905473Y-19305122D01*
X25891127Y-19300974D01*
X25890428Y-19300806D01*
X25887901Y-19301224D01*
X25884791Y-19303632D01*
X25880583Y-19308617D01*
X25874761Y-19316766D01*
X25866811Y-19328666D01*
X25864599Y-19332009D01*
X25857677Y-19342204D01*
X25851815Y-19350443D01*
X25847575Y-19355953D01*
X25845517Y-19357962D01*
X25844781Y-19357805D01*
X25839975Y-19356383D01*
X25831396Y-19353670D01*
X25819763Y-19349899D01*
X25805796Y-19345301D01*
X25790216Y-19340110D01*
X25782183Y-19337437D01*
X25764302Y-19331574D01*
X25743212Y-19324743D01*
X25719978Y-19317284D01*
X25695662Y-19309540D01*
X25671330Y-19301850D01*
X25648044Y-19294557D01*
X25559144Y-19266855D01*
X25458013Y-19256429D01*
X25439212Y-19254533D01*
X25411589Y-19251874D01*
X25382973Y-19249245D01*
X25354573Y-19246753D01*
X25327598Y-19244501D01*
X25303255Y-19242596D01*
X25282753Y-19241143D01*
X25208624Y-19236284D01*
X25144638Y-19214816D01*
X25080651Y-19193347D01*
X25078935Y-19201359D01*
X25078583Y-19202927D01*
X25077077Y-19209408D01*
X25074591Y-19219981D01*
X25071258Y-19234084D01*
X25067210Y-19251160D01*
X25062580Y-19270648D01*
X25057501Y-19291989D01*
X25052105Y-19314624D01*
X25046646Y-19337701D01*
X25041012Y-19362071D01*
X25036436Y-19382553D01*
X25032962Y-19398940D01*
X25030632Y-19411027D01*
X25029489Y-19418607D01*
X25029578Y-19421476D01*
X25032580Y-19422483D01*
X25039763Y-19424437D01*
X25050268Y-19427111D01*
X25063264Y-19430292D01*
X25077921Y-19433769D01*
X25082122Y-19434759D01*
X25096568Y-19438336D01*
X25110098Y-19442037D01*
X25123644Y-19446171D01*
X25138138Y-19451049D01*
X25154512Y-19456981D01*
X25173699Y-19464275D01*
X25196630Y-19473244D01*
X25213766Y-19479934D01*
X25238596Y-19489445D01*
X25264858Y-19499334D01*
X25291019Y-19509028D01*
X25315543Y-19517955D01*
X25336894Y-19525543D01*
X25338895Y-19526242D01*
X25353928Y-19531512D01*
X25366933Y-19536149D01*
X25378501Y-19540426D01*
X25389228Y-19544613D01*
X25399706Y-19548982D01*
X25410530Y-19553806D01*
X25422292Y-19559355D01*
X25435587Y-19565902D01*
X25451008Y-19573718D01*
X25469149Y-19583075D01*
X25490603Y-19594245D01*
X25515964Y-19607498D01*
X25527656Y-19613618D01*
X25557972Y-19629540D01*
X25587771Y-19645265D01*
X25616721Y-19660613D01*
X25644491Y-19675406D01*
X25670747Y-19689463D01*
X25695158Y-19702605D01*
X25717392Y-19714651D01*
X25737117Y-19725423D01*
X25754000Y-19734740D01*
X25767709Y-19742423D01*
X25777913Y-19748291D01*
X25784279Y-19752166D01*
X25786474Y-19753868D01*
X25786483Y-19754065D01*
X25786979Y-19757994D01*
X25788141Y-19765869D01*
X25789835Y-19776876D01*
X25791930Y-19790199D01*
X25794295Y-19805024D01*
X25796796Y-19820535D01*
X25799303Y-19835917D01*
X25801682Y-19850356D01*
X25803802Y-19863036D01*
X25805532Y-19873143D01*
X25806738Y-19879861D01*
X25807290Y-19882375D01*
X25808142Y-19883029D01*
X25812389Y-19886271D01*
X25819553Y-19891735D01*
X25828930Y-19898885D01*
X25839814Y-19907183D01*
X25856702Y-19920784D01*
X25877487Y-19939878D01*
X25897981Y-19961590D01*
X25919240Y-19986982D01*
X25920399Y-19988987D01*
X25923361Y-19995607D01*
X25927473Y-20005820D01*
X25932446Y-20018883D01*
X25937991Y-20034049D01*
X25943822Y-20050576D01*
X25963910Y-20108532D01*
X25975545Y-20198702D01*
X25987181Y-20288872D01*
X25964860Y-20368179D01*
X25942540Y-20447486D01*
X25903627Y-20495496D01*
X25897984Y-20502454D01*
X25886918Y-20516009D01*
X25878036Y-20526601D01*
X25870636Y-20534919D01*
X25864016Y-20541655D01*
X25857472Y-20547498D01*
X25850301Y-20553139D01*
X25841803Y-20559268D01*
X25831272Y-20566575D01*
X25823569Y-20572066D01*
X25810065Y-20582195D01*
X25794427Y-20594363D01*
X25777638Y-20607793D01*
X25760677Y-20621706D01*
X25744528Y-20635325D01*
X25691224Y-20681006D01*
X25596082Y-20681154D01*
X25500939Y-20681302D01*
X25491307Y-20671896D01*
X25488173Y-20668549D01*
X25483482Y-20661962D01*
X25481674Y-20656821D01*
X25481689Y-20656321D01*
X25482220Y-20650962D01*
X25483404Y-20641933D01*
X25485085Y-20630361D01*
X25487108Y-20617377D01*
X25492542Y-20583603D01*
X25517243Y-20546727D01*
X25520333Y-20542136D01*
X25529256Y-20529260D01*
X25537459Y-20518248D01*
X25545841Y-20508045D01*
X25555297Y-20497598D01*
X25566726Y-20485850D01*
X25581024Y-20471748D01*
X25594150Y-20459003D01*
X25610211Y-20443659D01*
X25623898Y-20431024D01*
X25635898Y-20420553D01*
X25646899Y-20411701D01*
X25657586Y-20403922D01*
X25668646Y-20396671D01*
X25680767Y-20389404D01*
X25694635Y-20381575D01*
X25702667Y-20377107D01*
X25715307Y-20369884D01*
X25725002Y-20363889D01*
X25732771Y-20358368D01*
X25739633Y-20352566D01*
X25746609Y-20345730D01*
X25754716Y-20337103D01*
X25775826Y-20314215D01*
X25761052Y-20227584D01*
X25746277Y-20140954D01*
X25723831Y-20111616D01*
X25701384Y-20082278D01*
X25659474Y-20063144D01*
X25637767Y-20053348D01*
X25607680Y-20040230D01*
X25578792Y-20028271D01*
X25550330Y-20017206D01*
X25521521Y-20006766D01*
X25491593Y-19996685D01*
X25459771Y-19986696D01*
X25425283Y-19976532D01*
X25387356Y-19965925D01*
X25345217Y-19954610D01*
X25343381Y-19954124D01*
X25320532Y-19948067D01*
X25301661Y-19942980D01*
X25285893Y-19938567D01*
X25272354Y-19934532D01*
X25260171Y-19930577D01*
X25248470Y-19926409D01*
X25236377Y-19921729D01*
X25223018Y-19916242D01*
X25207519Y-19909652D01*
X25189007Y-19901663D01*
X25177449Y-19896691D01*
X25155639Y-19887441D01*
X25132579Y-19877809D01*
X25108764Y-19867989D01*
X25084688Y-19858177D01*
X25060846Y-19848568D01*
X25037733Y-19839357D01*
X25015843Y-19830741D01*
X24995671Y-19822914D01*
X24977712Y-19816072D01*
X24962460Y-19810411D01*
X24950409Y-19806125D01*
X24942056Y-19803410D01*
X24937893Y-19802462D01*
X24937692Y-19802643D01*
X24936293Y-19806217D01*
X24934009Y-19813813D01*
X24931040Y-19824699D01*
X24927588Y-19838146D01*
X24923854Y-19853423D01*
X24920346Y-19867983D01*
X24916944Y-19881585D01*
X24914286Y-19891306D01*
X24912175Y-19897737D01*
X24910412Y-19901469D01*
X24908799Y-19903091D01*
X24907137Y-19903196D01*
X24906465Y-19903013D01*
X24901506Y-19901660D01*
X24891897Y-19899034D01*
X24877808Y-19895181D01*
X24859411Y-19890149D01*
X24836875Y-19883983D01*
X24810372Y-19876732D01*
X24780072Y-19868441D01*
X24746146Y-19859158D01*
X24708765Y-19848928D01*
X24668099Y-19837799D01*
X24624319Y-19825818D01*
X24577595Y-19813031D01*
X24528099Y-19799484D01*
X24476001Y-19785225D01*
X24421472Y-19770300D01*
X24364682Y-19754757D01*
X24305802Y-19738641D01*
X24245003Y-19721999D01*
X24182456Y-19704879D01*
X24118331Y-19687326D01*
X24052798Y-19669388D01*
X23986030Y-19651111D01*
X23069471Y-19400216D01*
X23077604Y-19367964D01*
X23085738Y-19335711D01*
X23039741Y-19322338D01*
X23007652Y-19312845D01*
X22973820Y-19302382D01*
X22944700Y-19292814D01*
X22920145Y-19284089D01*
X22900009Y-19276157D01*
X22884144Y-19268968D01*
X22883928Y-19268861D01*
X22865407Y-19260677D01*
X22843380Y-19252577D01*
X22819374Y-19245123D01*
X22780384Y-19234067D01*
X22691484Y-19229654D01*
X22675720Y-19228905D01*
X22650174Y-19227854D01*
X22625008Y-19227052D01*
X22599313Y-19226485D01*
X22572178Y-19226139D01*
X22542695Y-19225999D01*
X22509954Y-19226053D01*
X22473044Y-19226284D01*
X22343504Y-19227328D01*
X22325866Y-19237259D01*
X22319355Y-19241375D01*
X22309491Y-19248242D01*
X22297119Y-19257254D01*
X22282964Y-19267875D01*
X22267752Y-19279569D01*
X22252206Y-19291799D01*
X22241693Y-19300106D01*
X22222836Y-19314763D01*
X22203068Y-19329872D01*
X22183600Y-19344517D01*
X22165644Y-19357781D01*
X22150412Y-19368750D01*
X22149382Y-19369478D01*
X22136157Y-19378866D01*
X22125317Y-19386749D01*
X22116137Y-19393786D01*
X22107891Y-19400635D01*
X22099855Y-19407954D01*
X22091303Y-19416401D01*
X22081511Y-19426634D01*
X22069753Y-19439312D01*
X22055305Y-19455092D01*
X22047666Y-19463449D01*
X22035058Y-19477157D01*
X22024486Y-19488405D01*
X22015185Y-19497882D01*
X22006394Y-19506275D01*
X21997351Y-19514274D01*
X21987292Y-19522566D01*
X21975455Y-19531839D01*
X21961077Y-19542781D01*
X21943397Y-19556082D01*
X21926347Y-19569013D01*
X21901408Y-19588530D01*
X21879307Y-19606705D01*
X21859099Y-19624322D01*
X21839840Y-19642166D01*
X21826166Y-19655109D01*
X21814413Y-19665896D01*
X21804341Y-19674587D01*
X21794972Y-19681952D01*
X21785327Y-19688755D01*
X21774429Y-19695764D01*
X21761301Y-19703746D01*
X21723744Y-19726233D01*
X21667229Y-19726247D01*
X21610714Y-19726262D01*
X21610714Y-19649002D01*
X21610715Y-19571743D01*
X21629303Y-19551847D01*
X21635596Y-19544687D01*
X21646825Y-19530376D01*
X21658789Y-19513530D01*
X21670578Y-19495396D01*
X21693264Y-19458840D01*
X21751684Y-19405104D01*
X21781793Y-19378012D01*
X21824212Y-19342035D01*
X21866493Y-19308844D01*
X21873040Y-19303893D01*
X21891481Y-19289726D01*
X21906878Y-19277457D01*
X21920099Y-19266340D01*
X21932013Y-19255629D01*
X21943488Y-19244576D01*
X21955393Y-19232436D01*
X21987904Y-19198552D01*
X22066289Y-19149930D01*
X22084773Y-19138447D01*
X22102204Y-19127535D01*
X22116450Y-19118458D01*
X22128118Y-19110778D01*
X22137816Y-19104057D01*
X22146153Y-19097858D01*
X22153737Y-19091744D01*
X22161175Y-19085278D01*
X22167029Y-19079902D01*
X23325611Y-19079902D01*
X23328840Y-19115875D01*
X23335483Y-19150385D01*
X23345492Y-19182241D01*
X23362264Y-19219139D01*
X23383409Y-19254023D01*
X23408318Y-19285630D01*
X23436803Y-19313797D01*
X23468678Y-19338362D01*
X23503757Y-19359163D01*
X23541853Y-19376037D01*
X23582781Y-19388823D01*
X23586345Y-19389645D01*
X23601219Y-19392042D01*
X23619393Y-19393818D01*
X23639519Y-19394939D01*
X23660248Y-19395369D01*
X23680231Y-19395075D01*
X23698119Y-19394021D01*
X23712564Y-19392172D01*
X23733420Y-19387654D01*
X23771997Y-19375523D01*
X23808432Y-19359083D01*
X23842406Y-19338629D01*
X23873600Y-19314454D01*
X23901698Y-19286853D01*
X23926379Y-19256120D01*
X23947328Y-19222548D01*
X23964224Y-19186432D01*
X23976750Y-19148066D01*
X23984362Y-19109508D01*
X23987309Y-19069486D01*
X23985312Y-19029602D01*
X23978429Y-18990181D01*
X23966717Y-18951545D01*
X23950233Y-18914018D01*
X23929034Y-18877922D01*
X23921809Y-18868130D01*
X23910395Y-18854625D01*
X23896852Y-18840012D01*
X23882215Y-18825325D01*
X23867521Y-18811598D01*
X23853805Y-18799864D01*
X23842104Y-18791159D01*
X23834003Y-18785963D01*
X23797526Y-18766189D01*
X23758499Y-18750522D01*
X23717644Y-18739263D01*
X23714681Y-18738664D01*
X23696622Y-18736193D01*
X23675435Y-18734838D01*
X23652652Y-18734587D01*
X23629806Y-18735426D01*
X23608428Y-18737343D01*
X23590051Y-18740325D01*
X23550284Y-18751330D01*
X23512658Y-18766728D01*
X23477601Y-18786226D01*
X23445398Y-18809563D01*
X23416328Y-18836479D01*
X23390674Y-18866712D01*
X23368717Y-18900001D01*
X23350740Y-18936084D01*
X23337025Y-18974702D01*
X23336899Y-18975140D01*
X23329592Y-19008342D01*
X23325846Y-19043660D01*
X23325611Y-19079902D01*
X22167029Y-19079902D01*
X22169077Y-19078021D01*
X22178049Y-19069537D01*
X22211424Y-19037766D01*
X22271114Y-19006301D01*
X22292606Y-18994908D01*
X22322941Y-18978536D01*
X22349672Y-18963675D01*
X22373413Y-18949947D01*
X22394781Y-18936975D01*
X22414391Y-18924381D01*
X22432859Y-18911789D01*
X22450799Y-18898821D01*
X22468829Y-18885099D01*
X22516372Y-18848101D01*
X22607738Y-18853847D01*
X22620572Y-18854648D01*
X22648054Y-18856337D01*
X22678399Y-18858173D01*
X22710157Y-18860068D01*
X22741881Y-18861938D01*
X22772123Y-18863696D01*
X22799434Y-18865255D01*
X22899764Y-18870917D01*
X22984854Y-18889492D01*
X22990740Y-18890782D01*
X23014834Y-18896162D01*
X23040103Y-18901942D01*
X23065320Y-18907831D01*
X23089254Y-18913540D01*
X23110675Y-18918780D01*
X23128356Y-18923261D01*
X23139312Y-18926095D01*
X23154661Y-18930005D01*
X23167840Y-18933289D01*
X23178164Y-18935782D01*
X23184947Y-18937314D01*
X23187504Y-18937719D01*
X23187564Y-18937596D01*
X23188586Y-18934173D01*
X23190663Y-18926542D01*
X23193641Y-18915308D01*
X23197366Y-18901076D01*
X23201682Y-18884452D01*
X23206435Y-18866042D01*
X23211470Y-18846451D01*
X23216633Y-18826286D01*
X23221767Y-18806151D01*
X23226720Y-18786652D01*
X23231335Y-18768395D01*
X23235458Y-18751986D01*
X23238934Y-18738030D01*
X23241609Y-18727132D01*
X23243327Y-18719899D01*
X23243934Y-18716936D01*
X23243647Y-18716395D01*
X23240036Y-18713610D01*
X23232935Y-18709328D01*
X23223165Y-18704027D01*
X23211549Y-18698182D01*
X23179164Y-18682448D01*
X23068674Y-18658134D01*
X23033175Y-18650280D01*
X22997260Y-18642211D01*
X22965511Y-18634908D01*
X22937492Y-18628246D01*
X22912771Y-18622105D01*
X22890913Y-18616360D01*
X22871485Y-18610890D01*
X22854054Y-18605571D01*
X22838184Y-18600282D01*
X22823443Y-18594898D01*
X22809397Y-18589299D01*
X22795612Y-18583360D01*
X22781654Y-18576960D01*
X22780416Y-18576380D01*
X22765154Y-18569480D01*
X22746757Y-18561516D01*
X22726717Y-18553115D01*
X22706526Y-18544903D01*
X22687674Y-18537506D01*
X22685400Y-18536631D01*
X22666577Y-18529227D01*
X22646825Y-18521206D01*
X22627568Y-18513162D01*
X22610230Y-18505688D01*
X22596234Y-18499379D01*
X22578875Y-18491270D01*
X22559907Y-18482364D01*
X22544771Y-18475171D01*
X22533023Y-18469456D01*
X22524222Y-18464985D01*
X22517924Y-18461523D01*
X22513687Y-18458834D01*
X22511068Y-18456684D01*
X22509623Y-18454839D01*
X22508911Y-18453062D01*
X22508900Y-18453022D01*
X22508328Y-18448667D01*
X22507667Y-18440155D01*
X22506971Y-18428388D01*
X22506292Y-18414267D01*
X22505686Y-18398696D01*
X22504004Y-18350020D01*
X22493604Y-18347259D01*
X22493501Y-18347231D01*
X22484638Y-18345039D01*
X22471682Y-18342043D01*
X22455508Y-18338429D01*
X22436993Y-18334383D01*
X22417010Y-18330093D01*
X22396436Y-18325744D01*
X22376145Y-18321522D01*
X22357012Y-18317616D01*
X22339914Y-18314210D01*
X22325724Y-18311491D01*
X22297154Y-18306128D01*
X22248826Y-18296798D01*
X22203324Y-18287678D01*
X22161017Y-18278847D01*
X22122271Y-18270385D01*
X22087455Y-18262371D01*
X22056937Y-18254884D01*
X22031084Y-18248004D01*
X21967584Y-18230225D01*
X21932807Y-18230213D01*
X21898029Y-18230202D01*
X21852797Y-18248166D01*
X21836858Y-18254460D01*
X21816754Y-18262331D01*
X21795215Y-18270711D01*
X21773960Y-18278930D01*
X21754704Y-18286320D01*
X21701844Y-18306510D01*
X21683819Y-18290581D01*
X21672164Y-18279511D01*
X21659179Y-18265569D01*
X21647148Y-18251094D01*
X21637083Y-18237311D01*
X21629998Y-18225446D01*
X21622855Y-18207402D01*
X21619115Y-18186684D01*
X21620114Y-18166417D01*
X21625881Y-18147207D01*
X21626793Y-18145238D01*
X21634451Y-18132740D01*
X21644092Y-18121935D01*
X21654280Y-18114479D01*
X21657705Y-18111907D01*
X21662659Y-18104980D01*
X21667778Y-18093740D01*
X21674540Y-18076532D01*
X21777084Y-18020854D01*
X21854554Y-18015451D01*
X21932024Y-18010049D01*
X22008053Y-18018537D01*
X22021125Y-18020016D01*
X22040954Y-18022379D01*
X22058852Y-18024717D01*
X22075803Y-18027195D01*
X22092791Y-18029979D01*
X22110799Y-18033232D01*
X22130809Y-18037120D01*
X22153806Y-18041807D01*
X22180773Y-18047457D01*
X22204964Y-18052513D01*
X22232912Y-18058155D01*
X22257824Y-18062905D01*
X22280775Y-18066949D01*
X22302837Y-18070474D01*
X22325083Y-18073668D01*
X22348584Y-18076718D01*
X22359899Y-18078131D01*
X22379248Y-18080630D01*
X22395485Y-18082918D01*
X22409753Y-18085222D01*
X22423196Y-18087765D01*
X22436957Y-18090772D01*
X22452180Y-18094468D01*
X22470010Y-18099078D01*
X22491589Y-18104827D01*
X22496794Y-18106218D01*
X22514716Y-18110915D01*
X22530868Y-18115010D01*
X22544622Y-18118355D01*
X22555354Y-18120801D01*
X22562438Y-18122197D01*
X22565249Y-18122396D01*
X22566722Y-18119859D01*
X22569787Y-18113525D01*
X22573927Y-18104436D01*
X22578676Y-18093591D01*
X22590327Y-18066499D01*
X22627319Y-18053195D01*
X22664312Y-18039890D01*
X22737082Y-18053670D01*
X22741287Y-18054460D01*
X22763785Y-18058530D01*
X22789611Y-18062989D01*
X22817353Y-18067607D01*
X22845604Y-18072153D01*
X22872952Y-18076393D01*
X22897989Y-18080098D01*
X22916846Y-18082852D01*
X22935342Y-18085675D01*
X22953351Y-18088577D01*
X22971479Y-18091673D01*
X22990331Y-18095079D01*
X23010510Y-18098908D01*
X23032622Y-18103276D01*
X23057272Y-18108297D01*
X23085064Y-18114086D01*
X23116603Y-18120759D01*
X23152494Y-18128430D01*
X23161441Y-18130352D01*
X23190627Y-18136658D01*
X23218977Y-18142838D01*
X23245973Y-18148776D01*
X23271099Y-18154356D01*
X23293838Y-18159462D01*
X23313674Y-18163979D01*
X23330090Y-18167790D01*
X23342570Y-18170781D01*
X23350597Y-18172834D01*
X23352847Y-18173452D01*
X23364397Y-18176577D01*
X23373804Y-18179055D01*
X23380151Y-18180646D01*
X23382521Y-18181113D01*
X23383325Y-18178284D01*
X23385200Y-18171158D01*
X23387990Y-18160355D01*
X23391540Y-18146488D01*
X23395695Y-18130172D01*
X23400300Y-18112021D01*
X23405200Y-18092650D01*
X23410241Y-18072673D01*
X23415267Y-18052705D01*
X23420124Y-18033359D01*
X23424658Y-18015250D01*
X23428712Y-17998992D01*
X23432133Y-17985200D01*
X23434765Y-17974488D01*
X23436454Y-17967471D01*
X23437045Y-17964762D01*
X23436510Y-17964335D01*
X23432010Y-17962965D01*
X23423527Y-17961103D01*
X23411779Y-17958887D01*
X23397483Y-17956457D01*
X23381358Y-17953953D01*
X23369807Y-17952183D01*
X23349423Y-17948757D01*
X23332164Y-17945434D01*
X23318674Y-17942344D01*
X23309597Y-17939616D01*
X23307597Y-17938880D01*
X23299806Y-17936115D01*
X23288068Y-17932026D01*
X23272987Y-17926820D01*
X23255169Y-17920704D01*
X23235216Y-17913887D01*
X23213735Y-17906577D01*
X23191330Y-17898980D01*
X23149773Y-17884706D01*
X23101179Y-17867518D01*
X23052376Y-17849759D01*
X23004215Y-17831751D01*
X22957546Y-17813818D01*
X22913220Y-17796281D01*
X22872086Y-17779464D01*
X22834994Y-17763690D01*
X22820626Y-17757408D01*
X22803456Y-17749766D01*
X22788700Y-17742942D01*
X22775402Y-17736431D01*
X22762604Y-17729725D01*
X22749349Y-17722318D01*
X22734680Y-17713704D01*
X22717639Y-17703376D01*
X22697269Y-17690828D01*
X22626854Y-17647272D01*
X22626784Y-17612438D01*
X22626549Y-17597724D01*
X22625898Y-17580801D01*
X22624937Y-17564760D01*
X22623769Y-17551699D01*
X22622897Y-17544399D01*
X22621380Y-17534380D01*
X22619662Y-17527587D01*
X22617399Y-17522831D01*
X22614244Y-17518923D01*
X22611800Y-17516856D01*
X22604723Y-17511910D01*
X22593963Y-17504993D01*
X22579985Y-17496384D01*
X22563256Y-17486360D01*
X22544239Y-17475199D01*
X22523402Y-17463178D01*
X22501208Y-17450576D01*
X22478124Y-17437671D01*
X22458622Y-17426737D01*
X22436519Y-17414020D01*
X22417204Y-17402527D01*
X22401114Y-17392523D01*
X22388687Y-17384276D01*
X22380357Y-17378050D01*
X22372673Y-17372311D01*
X22359630Y-17363928D01*
X22342843Y-17354143D01*
X22322826Y-17343254D01*
X22300094Y-17331559D01*
X22297879Y-17330427D01*
X22285500Y-17323627D01*
X22269282Y-17314111D01*
X22249487Y-17302046D01*
X22226377Y-17287595D01*
X22200212Y-17270924D01*
X22171256Y-17252198D01*
X22139770Y-17231582D01*
X22106014Y-17209240D01*
X22104096Y-17207964D01*
X22087912Y-17197258D01*
X22074850Y-17188821D01*
X22063926Y-17182130D01*
X22054156Y-17176663D01*
X22044557Y-17171896D01*
X22034146Y-17167308D01*
X22021939Y-17162375D01*
X22006954Y-17156574D01*
X21996164Y-17152499D01*
X21975676Y-17145015D01*
X21953907Y-17137318D01*
X21932854Y-17130110D01*
X21914516Y-17124093D01*
X21869068Y-17109643D01*
X21835141Y-17080399D01*
X21825732Y-17072128D01*
X21815944Y-17063133D01*
X21808178Y-17055551D01*
X21803060Y-17049998D01*
X21801214Y-17047086D01*
X21801230Y-17046492D01*
X21801536Y-17041396D01*
X21802178Y-17032577D01*
X21803075Y-17021092D01*
X21804148Y-17007999D01*
X21807082Y-16972982D01*
X21838605Y-16938652D01*
X21848347Y-16928132D01*
X21857340Y-16918599D01*
X21864632Y-16911060D01*
X21869652Y-16906104D01*
X21871830Y-16904321D01*
X21874548Y-16904942D01*
X21881528Y-16906734D01*
X21892105Y-16909524D01*
X21905620Y-16913136D01*
X21921416Y-16917397D01*
X21938837Y-16922131D01*
X21950467Y-16925356D01*
X21976453Y-16932959D01*
X22003525Y-16941445D01*
X22032575Y-16951108D01*
X22064491Y-16962240D01*
X22100163Y-16975134D01*
X22110562Y-16978953D01*
X22135656Y-16988261D01*
X22157078Y-16996387D01*
X22175651Y-17003676D01*
X22192202Y-17010472D01*
X22207555Y-17017118D01*
X22222536Y-17023959D01*
X22237968Y-17031339D01*
X22254677Y-17039603D01*
X22313169Y-17068879D01*
X22371517Y-17115547D01*
X22376815Y-17119780D01*
X22393593Y-17133087D01*
X22407662Y-17143990D01*
X22419971Y-17153134D01*
X22431467Y-17161165D01*
X22443099Y-17168729D01*
X22455814Y-17176470D01*
X22470560Y-17185035D01*
X22488284Y-17195069D01*
X22513784Y-17209329D01*
X22538967Y-17223248D01*
X22562664Y-17236183D01*
X22584457Y-17247911D01*
X22603928Y-17258213D01*
X22620662Y-17266869D01*
X22634241Y-17273657D01*
X22644248Y-17278357D01*
X22650266Y-17280749D01*
X22651164Y-17281008D01*
X22658136Y-17282218D01*
X22661949Y-17281303D01*
X22663882Y-17278871D01*
X22668425Y-17272999D01*
X22675014Y-17264414D01*
X22683124Y-17253802D01*
X22692228Y-17241848D01*
X22720456Y-17204725D01*
X22777090Y-17214392D01*
X22802574Y-17218739D01*
X22830743Y-17223550D01*
X22856153Y-17227924D01*
X22879231Y-17231959D01*
X22900401Y-17235757D01*
X22920087Y-17239417D01*
X22938717Y-17243038D01*
X22956714Y-17246720D01*
X22974503Y-17250565D01*
X22992510Y-17254670D01*
X23011161Y-17259137D01*
X23030880Y-17264064D01*
X23052092Y-17269553D01*
X23075222Y-17275702D01*
X23100696Y-17282611D01*
X23128939Y-17290381D01*
X23160377Y-17299112D01*
X23195433Y-17308902D01*
X23234533Y-17319852D01*
X23278104Y-17332063D01*
X23291241Y-17335743D01*
X23327141Y-17345791D01*
X23361545Y-17355409D01*
X23394143Y-17364511D01*
X23424627Y-17373010D01*
X23452689Y-17380822D01*
X23478020Y-17387861D01*
X23500312Y-17394041D01*
X23519255Y-17399276D01*
X23534542Y-17403480D01*
X23545863Y-17406569D01*
X23552910Y-17408456D01*
X23555376Y-17409056D01*
X23555908Y-17407760D01*
X23557617Y-17402133D01*
X23560267Y-17392656D01*
X23563698Y-17379954D01*
X23567750Y-17364653D01*
X23572263Y-17347379D01*
X23577078Y-17328758D01*
X23582035Y-17309415D01*
X23586976Y-17289978D01*
X23591740Y-17271072D01*
X23596168Y-17253322D01*
X23600100Y-17237356D01*
X23603376Y-17223798D01*
X23605838Y-17213275D01*
X23607326Y-17206412D01*
X23607680Y-17203836D01*
X23607631Y-17203807D01*
X23604507Y-17202793D01*
X23596899Y-17200565D01*
X23585189Y-17197229D01*
X23569759Y-17192892D01*
X23550991Y-17187660D01*
X23529268Y-17181638D01*
X23504971Y-17174935D01*
X23478484Y-17167655D01*
X23450187Y-17159904D01*
X23420464Y-17151790D01*
X23235044Y-17101255D01*
X23014064Y-16930079D01*
X23008755Y-16925966D01*
X22979470Y-16903278D01*
X22951354Y-16881489D01*
X22924667Y-16860802D01*
X22899666Y-16841417D01*
X22876610Y-16823535D01*
X22855760Y-16807356D01*
X22837373Y-16793083D01*
X22821708Y-16780915D01*
X22809025Y-16771053D01*
X22799581Y-16763699D01*
X22793637Y-16759054D01*
X22791450Y-16757317D01*
X22791383Y-16757151D01*
X22790773Y-16753412D01*
X22789711Y-16745089D01*
X22788238Y-16732572D01*
X22786398Y-16716248D01*
X22784231Y-16696507D01*
X22781782Y-16673738D01*
X22779092Y-16648328D01*
X22776203Y-16620669D01*
X22773157Y-16591147D01*
X22769998Y-16560152D01*
X22750180Y-16364572D01*
X22757020Y-16301072D01*
X22757636Y-16295251D01*
X22759806Y-16273215D01*
X22761910Y-16249724D01*
X22763812Y-16226403D01*
X22765378Y-16204878D01*
X22766474Y-16186772D01*
X22766533Y-16185645D01*
X22769096Y-16150310D01*
X22773245Y-16112043D01*
X22779077Y-16069932D01*
X22780559Y-16060025D01*
X22783728Y-16038160D01*
X22786880Y-16015618D01*
X22789820Y-15993824D01*
X22792355Y-15974200D01*
X22794291Y-15958172D01*
X22795093Y-15951389D01*
X22797760Y-15930873D01*
X22800929Y-15908629D01*
X22804271Y-15886918D01*
X22807454Y-15868002D01*
X22809549Y-15856425D01*
X22812252Y-15842505D01*
X22814822Y-15831370D01*
X22817664Y-15821684D01*
X22821188Y-15812116D01*
X22825800Y-15801329D01*
X22831909Y-15787992D01*
X22832578Y-15786554D01*
X22840633Y-15769976D01*
X22847565Y-15757308D01*
X22853866Y-15747715D01*
X22860028Y-15740367D01*
X22871634Y-15728302D01*
X22994430Y-15728302D01*
X22998305Y-15734214D01*
X22999483Y-15736526D01*
X23002323Y-15743506D01*
X23006083Y-15753756D01*
X23010413Y-15766311D01*
X23014963Y-15780206D01*
X23027746Y-15820284D01*
X23024100Y-15865098D01*
X23023161Y-15876184D01*
X23021728Y-15891770D01*
X23020299Y-15905937D01*
X23018999Y-15917470D01*
X23017952Y-15925152D01*
X23015868Y-15938254D01*
X23013766Y-15952639D01*
X23011798Y-15967661D01*
X23009828Y-15984428D01*
X23007721Y-16004044D01*
X23005339Y-16027618D01*
X23005177Y-16029244D01*
X23003564Y-16044574D01*
X23001884Y-16058384D01*
X22999969Y-16071595D01*
X22997651Y-16085128D01*
X22994761Y-16099903D01*
X22991130Y-16116841D01*
X22986592Y-16136862D01*
X22980977Y-16160888D01*
X22978367Y-16171850D01*
X22973576Y-16191429D01*
X22969117Y-16208958D01*
X22965148Y-16223855D01*
X22961825Y-16235539D01*
X22959305Y-16243430D01*
X22957746Y-16246946D01*
X22957726Y-16246969D01*
X22956001Y-16249402D01*
X22955105Y-16252511D01*
X22955157Y-16256988D01*
X22956275Y-16263528D01*
X22958578Y-16272826D01*
X22962183Y-16285577D01*
X22967209Y-16302474D01*
X22967741Y-16304258D01*
X22971670Y-16318248D01*
X22975095Y-16331810D01*
X22977664Y-16343474D01*
X22979024Y-16351773D01*
X22979235Y-16353451D01*
X22980640Y-16360250D01*
X22983248Y-16369131D01*
X22987245Y-16380600D01*
X22992812Y-16395164D01*
X23000134Y-16413331D01*
X23009394Y-16435606D01*
X23011152Y-16439779D01*
X23018583Y-16457159D01*
X23025524Y-16472995D01*
X23031688Y-16486654D01*
X23036784Y-16497507D01*
X23040526Y-16504923D01*
X23042625Y-16508271D01*
X23043717Y-16509275D01*
X23048491Y-16513611D01*
X23056300Y-16520671D01*
X23066656Y-16530017D01*
X23079074Y-16541212D01*
X23093067Y-16553819D01*
X23108150Y-16567400D01*
X23123835Y-16581517D01*
X23139636Y-16595734D01*
X23155069Y-16609612D01*
X23169645Y-16622714D01*
X23182879Y-16634602D01*
X23194284Y-16644840D01*
X23203375Y-16652989D01*
X23209665Y-16658611D01*
X23212668Y-16661271D01*
X23214826Y-16662953D01*
X23217315Y-16663865D01*
X23220732Y-16663492D01*
X23225979Y-16661585D01*
X23233959Y-16657893D01*
X23245575Y-16652167D01*
X23254744Y-16647642D01*
X23268966Y-16640716D01*
X23282658Y-16634141D01*
X23293817Y-16628885D01*
X23314490Y-16619305D01*
X23518204Y-16737875D01*
X23523953Y-16741220D01*
X23553234Y-16758246D01*
X23581188Y-16774475D01*
X23607510Y-16789732D01*
X23631892Y-16803840D01*
X23654029Y-16816623D01*
X23673615Y-16827905D01*
X23690344Y-16837509D01*
X23703909Y-16845258D01*
X23714004Y-16850977D01*
X23720324Y-16854489D01*
X23722562Y-16855618D01*
X23723236Y-16853382D01*
X23725003Y-16846825D01*
X23727680Y-16836605D01*
X23731099Y-16823381D01*
X23735087Y-16807809D01*
X23739475Y-16790546D01*
X23743655Y-16774186D01*
X23748013Y-16757634D01*
X23751492Y-16745199D01*
X23754238Y-16736416D01*
X23756399Y-16730823D01*
X23758122Y-16727954D01*
X23759554Y-16727344D01*
X23759654Y-16727372D01*
X23763090Y-16728310D01*
X23771227Y-16730531D01*
X23783893Y-16733988D01*
X23800914Y-16738635D01*
X23822118Y-16744422D01*
X23847331Y-16751305D01*
X23876381Y-16759234D01*
X23909095Y-16768163D01*
X23945299Y-16778045D01*
X23984821Y-16788833D01*
X24027488Y-16800479D01*
X24073126Y-16812936D01*
X24121563Y-16826157D01*
X24172626Y-16840095D01*
X24226142Y-16854702D01*
X24281938Y-16869931D01*
X24339841Y-16885736D01*
X24399677Y-16902068D01*
X24461275Y-16918881D01*
X24524461Y-16936128D01*
X24589062Y-16953760D01*
X24654904Y-16971732D01*
X24665210Y-16974545D01*
X24730856Y-16992468D01*
X24795226Y-17010049D01*
X24858146Y-17027242D01*
X24919445Y-17043999D01*
X24978949Y-17060272D01*
X25036486Y-17076015D01*
X25091884Y-17091179D01*
X25144969Y-17105718D01*
X25195570Y-17119584D01*
X25243513Y-17132730D01*
X25288626Y-17145108D01*
X25330737Y-17156671D01*
X25369673Y-17167371D01*
X25405261Y-17177162D01*
X25437328Y-17185996D01*
X25465702Y-17193825D01*
X25490211Y-17200602D01*
X25510682Y-17206280D01*
X25526942Y-17210812D01*
X25538819Y-17214149D01*
X25546139Y-17216245D01*
X25548731Y-17217053D01*
X25548975Y-17217646D01*
X25548817Y-17222338D01*
X25547529Y-17230905D01*
X25545238Y-17242587D01*
X25542074Y-17256620D01*
X25540404Y-17263675D01*
X25537570Y-17275819D01*
X25535341Y-17285607D01*
X25533912Y-17292180D01*
X25533477Y-17294674D01*
X25533863Y-17294771D01*
X25538172Y-17295588D01*
X25546939Y-17297167D01*
X25559765Y-17299438D01*
X25576253Y-17302332D01*
X25596005Y-17305781D01*
X25618623Y-17309716D01*
X25643708Y-17314067D01*
X25670863Y-17318765D01*
X25699689Y-17323742D01*
X25729790Y-17328929D01*
X25760766Y-17334256D01*
X25792220Y-17339655D01*
X25823753Y-17345057D01*
X25854968Y-17350392D01*
X25924732Y-17362302D01*
X26072224Y-17343028D01*
X26154774Y-17312152D01*
X26159780Y-17310280D01*
X26175233Y-17304479D01*
X26188989Y-17299253D01*
X26201527Y-17294380D01*
X26213326Y-17289638D01*
X26224866Y-17284808D01*
X26236625Y-17279668D01*
X26249082Y-17273998D01*
X26262716Y-17267576D01*
X26278007Y-17260181D01*
X26295433Y-17251594D01*
X26315474Y-17241592D01*
X26338609Y-17229955D01*
X26365316Y-17216463D01*
X26396074Y-17200894D01*
X26554824Y-17120511D01*
X26561902Y-17099830D01*
X26563549Y-17095141D01*
X26567457Y-17084387D01*
X26572626Y-17070447D01*
X26578699Y-17054275D01*
X26585321Y-17036821D01*
X26592134Y-17019040D01*
X26615288Y-16958932D01*
X26643476Y-16921721D01*
X26643783Y-16921316D01*
X26658199Y-16903179D01*
X26675190Y-16883199D01*
X26693504Y-16862806D01*
X26711893Y-16843431D01*
X26752122Y-16802352D01*
X26793272Y-16793258D01*
X26834423Y-16784163D01*
X26867054Y-16806777D01*
X26899686Y-16829392D01*
X26897972Y-16892892D01*
X26896259Y-16956392D01*
X26867584Y-17016082D01*
X26858976Y-17033840D01*
X26850405Y-17050968D01*
X26842698Y-17065523D01*
X26835219Y-17078615D01*
X26827328Y-17091354D01*
X26818388Y-17104853D01*
X26807761Y-17120222D01*
X26805156Y-17123929D01*
X26795594Y-17137369D01*
X26786739Y-17149567D01*
X26779135Y-17159789D01*
X26773326Y-17167301D01*
X26769859Y-17171366D01*
X26769733Y-17171488D01*
X26765736Y-17174950D01*
X26758330Y-17180985D01*
X26748112Y-17189124D01*
X26735679Y-17198894D01*
X26721626Y-17209824D01*
X26706550Y-17221442D01*
X26700864Y-17225796D01*
X26684866Y-17237923D01*
X26670926Y-17248203D01*
X26658111Y-17257246D01*
X26645488Y-17265661D01*
X26632126Y-17274056D01*
X26617092Y-17283041D01*
X26599454Y-17293224D01*
X26578280Y-17305213D01*
X26575517Y-17306767D01*
X26558203Y-17316442D01*
X26537316Y-17328025D01*
X26513616Y-17341100D01*
X26487866Y-17355249D01*
X26460824Y-17370055D01*
X26433253Y-17385101D01*
X26405913Y-17399968D01*
X26379564Y-17414240D01*
X26369435Y-17419724D01*
X26329546Y-17441516D01*
X26293522Y-17461551D01*
X26260779Y-17480166D01*
X26230729Y-17497698D01*
X26202786Y-17514481D01*
X26176364Y-17530854D01*
X26161924Y-17539851D01*
X26138685Y-17554052D01*
X26112978Y-17569502D01*
X26085965Y-17585511D01*
X26058810Y-17601393D01*
X26032675Y-17616458D01*
X26008724Y-17630020D01*
X26003581Y-17632898D01*
X25980051Y-17645998D01*
X25959939Y-17657043D01*
X25942426Y-17666438D01*
X25926696Y-17674592D01*
X25911931Y-17681911D01*
X25897312Y-17688803D01*
X25882023Y-17695674D01*
X25865247Y-17702933D01*
X25846164Y-17710986D01*
X25775044Y-17740762D01*
X25699123Y-17751958D01*
X25623201Y-17763153D01*
X25549263Y-17741527D01*
X25545302Y-17740371D01*
X25525664Y-17734684D01*
X25506734Y-17729278D01*
X25489345Y-17724386D01*
X25474329Y-17720239D01*
X25462520Y-17717070D01*
X25454748Y-17715113D01*
X25434172Y-17710325D01*
X25408852Y-17816440D01*
X25383532Y-17922556D01*
X25401488Y-17926511D01*
X25407462Y-17927742D01*
X25417925Y-17929800D01*
X25432239Y-17932562D01*
X25449826Y-17935917D01*
X25470109Y-17939756D01*
X25492512Y-17943970D01*
X25516456Y-17948448D01*
X25541364Y-17953081D01*
X25556593Y-17955906D01*
X25578992Y-17960078D01*
X25598803Y-17963829D01*
X25616556Y-17967300D01*
X25632781Y-17970634D01*
X25648008Y-17973971D01*
X25662767Y-17977453D01*
X25677589Y-17981222D01*
X25693004Y-17985419D01*
X25709541Y-17990186D01*
X25727732Y-17995664D01*
X25748107Y-18001994D01*
X25771195Y-18009319D01*
X25797527Y-18017779D01*
X25827633Y-18027517D01*
X25862043Y-18038674D01*
X25881866Y-18045025D01*
X25908826Y-18053494D01*
X25938332Y-18062613D01*
X25969111Y-18071995D01*
X25999889Y-18081252D01*
X26029394Y-18089997D01*
X26056353Y-18097842D01*
X26161124Y-18127976D01*
X26162566Y-18181942D01*
X26173275Y-18181947D01*
X26178823Y-18181707D01*
X26188609Y-18180991D01*
X26201454Y-18179887D01*
X26216339Y-18178482D01*
X26232244Y-18176864D01*
X26237269Y-18176354D01*
X26252297Y-18174965D01*
X26271206Y-18173355D01*
X26293164Y-18171590D01*
X26317335Y-18169734D01*
X26342888Y-18167851D01*
X26368989Y-18166007D01*
X26394804Y-18164265D01*
X26509104Y-18156755D01*
X26584034Y-18140396D01*
X26598913Y-18137161D01*
X26618513Y-18132990D01*
X26635065Y-18129657D01*
X26649728Y-18126988D01*
X26663656Y-18124807D01*
X26678008Y-18122937D01*
X26693938Y-18121204D01*
X26712605Y-18119432D01*
X26735164Y-18117444D01*
X26764304Y-18114942D01*
X26795787Y-18112296D01*
X26822926Y-18110097D01*
X26846114Y-18108322D01*
X26865742Y-18106947D01*
X26882204Y-18105949D01*
X26895891Y-18105305D01*
X26907196Y-18104990D01*
X26916512Y-18104983D01*
X26924231Y-18105259D01*
X26930744Y-18105795D01*
X26933203Y-18106061D01*
X26942843Y-18107075D01*
X26950340Y-18107818D01*
X26954239Y-18108145D01*
X26954837Y-18108521D01*
X26955713Y-18111074D01*
X26956378Y-18116427D01*
X26956854Y-18125036D01*
X26957161Y-18137357D01*
X26957322Y-18153845D01*
X26957358Y-18174957D01*
X26957327Y-18191286D01*
X26957218Y-18208167D01*
X26956999Y-18221062D01*
X26956631Y-18230583D01*
X26956076Y-18237346D01*
X26955296Y-18241963D01*
X26954255Y-18245050D01*
X26952913Y-18247219D01*
X26950215Y-18249499D01*
X26942646Y-18253727D01*
X26931285Y-18258824D01*
X26916774Y-18264482D01*
X26915414Y-18264980D01*
X26903350Y-18269179D01*
X26891618Y-18272763D01*
X26879145Y-18275991D01*
X26864857Y-18279119D01*
X26847680Y-18282404D01*
X26826542Y-18286104D01*
X26794477Y-18291631D01*
X26755609Y-18298496D01*
X26715161Y-18305796D01*
X26673958Y-18313376D01*
X26632823Y-18321080D01*
X26592582Y-18328751D01*
X26554058Y-18336234D01*
X26518076Y-18343373D01*
X26485460Y-18350012D01*
X26457034Y-18355995D01*
X26440393Y-18359501D01*
X26409702Y-18365670D01*
X26377186Y-18371889D01*
X26344534Y-18377844D01*
X26313436Y-18383224D01*
X26285584Y-18387715D01*
X26280200Y-18388544D01*
X26256368Y-18392281D01*
X26236298Y-18395594D01*
X26218934Y-18398702D01*
X26203220Y-18401825D01*
X26188098Y-18405181D01*
X26172513Y-18408992D01*
X26155407Y-18413476D01*
X26135724Y-18418853D01*
X26069684Y-18437114D01*
X26011264Y-18478454D01*
X25974434Y-18485179D01*
X25974362Y-18485192D01*
X25962771Y-18487056D01*
X25946650Y-18489278D01*
X25926526Y-18491800D01*
X25902929Y-18494566D01*
X25876386Y-18497521D01*
X25847427Y-18500607D01*
X25816579Y-18503769D01*
X25784372Y-18506949D01*
X25751333Y-18510093D01*
X25717991Y-18513143D01*
X25684874Y-18516044D01*
X25669321Y-18517480D01*
X25648323Y-18519634D01*
X25625751Y-18522130D01*
X25603452Y-18524762D01*
X25583274Y-18527326D01*
X25528664Y-18534591D01*
X25468974Y-18522151D01*
X25460333Y-18520327D01*
X25440132Y-18515832D01*
X25421055Y-18511183D01*
X25401926Y-18506056D01*
X25381566Y-18500128D01*
X25358799Y-18493074D01*
X25332449Y-18484571D01*
X25321874Y-18481115D01*
X25304013Y-18475302D01*
X25288116Y-18470156D01*
X25274756Y-18465862D01*
X25264503Y-18462602D01*
X25257932Y-18460561D01*
X25255614Y-18459922D01*
X25255508Y-18460413D01*
X25254471Y-18464859D01*
X25252430Y-18473502D01*
X25249508Y-18485823D01*
X25245828Y-18501301D01*
X25241516Y-18519415D01*
X25236693Y-18539646D01*
X25231484Y-18561472D01*
X25229231Y-18570914D01*
X25224170Y-18592145D01*
X25219547Y-18611571D01*
X25215488Y-18628668D01*
X25212115Y-18642915D01*
X25209553Y-18653789D01*
X25207925Y-18660767D01*
X25207354Y-18663328D01*
X25208963Y-18664386D01*
X25214423Y-18667446D01*
X25223055Y-18672103D01*
X25234135Y-18677969D01*
X25246942Y-18684653D01*
X25286529Y-18705182D01*
X25335207Y-18705147D01*
X25383884Y-18705113D01*
X25442304Y-18719344D01*
X25448670Y-18720916D01*
X25467317Y-18725734D01*
X25485680Y-18730764D01*
X25502592Y-18735671D01*
X25516886Y-18740119D01*
X25527394Y-18743773D01*
X25530555Y-18745057D01*
X25540493Y-18749533D01*
X25554012Y-18756018D01*
X25570515Y-18764210D01*
X25589403Y-18773808D01*
X25610077Y-18784507D01*
X25631941Y-18796006D01*
X25654394Y-18808002D01*
X25659757Y-18810888D01*
X25682924Y-18823324D01*
X25709477Y-18837536D01*
X25738537Y-18853055D01*
X25769222Y-18869411D01*
X25800652Y-18886137D01*
X25831948Y-18902762D01*
X25862229Y-18918818D01*
X25890614Y-18933836D01*
X25891427Y-18934266D01*
X25915658Y-18947072D01*
X25938509Y-18959153D01*
X25959592Y-18970305D01*
X25978518Y-18980321D01*
X25994897Y-18988994D01*
X26008340Y-18996119D01*
X26018459Y-19001490D01*
X26024864Y-19004900D01*
X26027166Y-19006144D01*
X26026477Y-19007878D01*
X26023702Y-19013412D01*
X26019168Y-19022041D01*
X26013256Y-19033044D01*
X26006343Y-19045700D01*
X26000326Y-19056727D01*
X25994267Y-19068039D01*
X25993512Y-19069486D01*
X25989546Y-19077093D01*
X25986541Y-19083164D01*
G37*
D10*
X25986541Y-19083164D02*
X25985629Y-19085523D01*
X25987493Y-19086081D01*
X25993840Y-19087749D01*
X26004212Y-19090394D01*
X26018114Y-19093890D01*
X26035053Y-19098116D01*
X26054536Y-19102947D01*
X26076070Y-19108260D01*
X26099162Y-19113933D01*
X26116782Y-19118246D01*
X26140192Y-19123934D01*
X26160531Y-19128785D01*
X26178607Y-19132959D01*
X26195230Y-19136614D01*
X26211211Y-19139909D01*
X26227358Y-19143003D01*
X26244481Y-19146055D01*
X26263389Y-19149225D01*
X26284893Y-19152671D01*
X26309802Y-19156552D01*
X26338924Y-19161028D01*
X26356823Y-19163784D01*
X26389098Y-19168807D01*
X26424363Y-19174352D01*
X26461368Y-19180218D01*
X26498865Y-19186207D01*
X26535604Y-19192120D01*
X26570337Y-19197758D01*
X26601814Y-19202921D01*
X26610520Y-19204354D01*
X26643549Y-19209702D01*
X26673650Y-19214431D01*
X26700480Y-19218492D01*
X26723693Y-19221834D01*
X26742945Y-19224408D01*
X26757890Y-19226163D01*
X26768184Y-19227050D01*
X26771059Y-19227218D01*
X26784035Y-19228251D01*
X26796056Y-19229823D01*
X26808566Y-19232200D01*
X26823010Y-19235647D01*
X26840830Y-19240432D01*
X26882995Y-19252122D01*
X26892752Y-19282092D01*
X26902509Y-19312061D01*
X26875874Y-19346946D01*
X26849238Y-19381831D01*
X26806171Y-19392686D01*
X26763104Y-19403542D01*
X26650739Y-19403612D01*
X26608107Y-19403488D01*
X26568354Y-19403008D01*
X26532123Y-19402113D01*
X26498625Y-19400749D01*
X26467075Y-19398859D01*
X26436685Y-19396389D01*
X26406667Y-19393282D01*
X26376236Y-19389483D01*
X26344604Y-19384936D01*
X26310984Y-19379586D01*
X26308999Y-19379257D01*
X26284473Y-19375237D01*
X26257895Y-19370934D01*
X26230677Y-19366574D01*
X26204230Y-19362382D01*
X26179968Y-19358583D01*
X26159303Y-19355403D01*
X26146981Y-19353492D01*
X26118423Y-19348815D01*
X26088688Y-19343637D01*
X26058466Y-19338098D01*
X26028445Y-19332338D01*
X25999315Y-19326498D01*
X25971764Y-19320716D01*
X25946481Y-19315133D01*
X25924154Y-19309889D01*
X25905473Y-19305122D01*
X25891127Y-19300974D01*
X25890428Y-19300806D01*
X25887901Y-19301224D01*
X25884791Y-19303632D01*
X25880583Y-19308617D01*
X25874761Y-19316766D01*
X25866811Y-19328666D01*
X25864599Y-19332009D01*
X25857677Y-19342204D01*
X25851815Y-19350443D01*
X25847575Y-19355953D01*
X25845517Y-19357962D01*
X25844781Y-19357805D01*
X25839975Y-19356383D01*
X25831396Y-19353670D01*
X25819763Y-19349899D01*
X25805796Y-19345301D01*
X25790216Y-19340110D01*
X25782183Y-19337437D01*
X25764302Y-19331574D01*
X25743212Y-19324743D01*
X25719978Y-19317284D01*
X25695662Y-19309540D01*
X25671330Y-19301850D01*
X25648044Y-19294557D01*
X25559144Y-19266855D01*
X25458013Y-19256429D01*
X25439212Y-19254533D01*
X25411589Y-19251874D01*
X25382973Y-19249245D01*
X25354573Y-19246753D01*
X25327598Y-19244501D01*
X25303255Y-19242596D01*
X25282753Y-19241143D01*
X25208624Y-19236284D01*
X25144638Y-19214816D01*
X25080651Y-19193347D01*
X25078935Y-19201359D01*
X25078583Y-19202927D01*
X25077077Y-19209408D01*
X25074591Y-19219981D01*
X25071258Y-19234084D01*
X25067210Y-19251160D01*
X25062580Y-19270648D01*
X25057501Y-19291989D01*
X25052105Y-19314624D01*
X25046646Y-19337701D01*
X25041012Y-19362071D01*
X25036436Y-19382553D01*
X25032962Y-19398940D01*
X25030632Y-19411027D01*
X25029489Y-19418607D01*
X25029578Y-19421476D01*
X25032580Y-19422483D01*
X25039763Y-19424437D01*
X25050268Y-19427111D01*
X25063264Y-19430292D01*
X25077921Y-19433769D01*
X25082122Y-19434759D01*
X25096568Y-19438336D01*
X25110098Y-19442037D01*
X25123644Y-19446171D01*
X25138138Y-19451049D01*
X25154512Y-19456981D01*
X25173699Y-19464275D01*
X25196630Y-19473244D01*
X25213766Y-19479934D01*
X25238596Y-19489445D01*
X25264858Y-19499334D01*
X25291019Y-19509028D01*
X25315543Y-19517955D01*
X25336894Y-19525543D01*
X25338895Y-19526242D01*
X25353928Y-19531512D01*
X25366933Y-19536149D01*
X25378501Y-19540426D01*
X25389228Y-19544613D01*
X25399706Y-19548982D01*
X25410530Y-19553806D01*
X25422292Y-19559355D01*
X25435587Y-19565902D01*
X25451008Y-19573718D01*
X25469149Y-19583075D01*
X25490603Y-19594245D01*
X25515964Y-19607498D01*
X25527656Y-19613618D01*
X25557972Y-19629540D01*
X25587771Y-19645265D01*
X25616721Y-19660613D01*
X25644491Y-19675406D01*
X25670747Y-19689463D01*
X25695158Y-19702605D01*
X25717392Y-19714651D01*
X25737117Y-19725423D01*
X25754000Y-19734740D01*
X25767709Y-19742423D01*
X25777913Y-19748291D01*
X25784279Y-19752166D01*
X25786474Y-19753868D01*
X25786483Y-19754065D01*
X25786979Y-19757994D01*
X25788141Y-19765869D01*
X25789835Y-19776876D01*
X25791930Y-19790199D01*
X25794295Y-19805024D01*
X25796796Y-19820535D01*
X25799303Y-19835917D01*
X25801682Y-19850356D01*
X25803802Y-19863036D01*
X25805532Y-19873143D01*
X25806738Y-19879861D01*
X25807290Y-19882375D01*
X25808142Y-19883029D01*
X25812389Y-19886271D01*
X25819553Y-19891735D01*
X25828930Y-19898885D01*
X25839814Y-19907183D01*
X25856702Y-19920784D01*
X25877487Y-19939878D01*
X25897981Y-19961590D01*
X25919240Y-19986982D01*
X25920399Y-19988987D01*
X25923361Y-19995607D01*
X25927473Y-20005820D01*
X25932446Y-20018883D01*
X25937991Y-20034049D01*
X25943822Y-20050576D01*
X25963910Y-20108532D01*
X25975545Y-20198702D01*
X25987181Y-20288872D01*
X25964860Y-20368179D01*
X25942540Y-20447486D01*
X25903627Y-20495496D01*
X25897984Y-20502454D01*
X25886918Y-20516009D01*
X25878036Y-20526601D01*
X25870636Y-20534919D01*
X25864016Y-20541655D01*
X25857472Y-20547498D01*
X25850301Y-20553139D01*
X25841803Y-20559268D01*
X25831272Y-20566575D01*
X25823569Y-20572066D01*
X25810065Y-20582195D01*
X25794427Y-20594363D01*
X25777638Y-20607793D01*
X25760677Y-20621706D01*
X25744528Y-20635325D01*
X25691224Y-20681006D01*
X25596082Y-20681154D01*
X25500939Y-20681302D01*
X25491307Y-20671896D01*
X25488173Y-20668549D01*
X25483482Y-20661962D01*
X25481674Y-20656821D01*
X25481689Y-20656321D01*
X25482220Y-20650962D01*
X25483404Y-20641933D01*
X25485085Y-20630361D01*
X25487108Y-20617377D01*
X25492542Y-20583603D01*
X25517243Y-20546727D01*
X25520333Y-20542136D01*
X25529256Y-20529260D01*
X25537459Y-20518248D01*
X25545841Y-20508045D01*
X25555297Y-20497598D01*
X25566726Y-20485850D01*
X25581024Y-20471748D01*
X25594150Y-20459003D01*
X25610211Y-20443659D01*
X25623898Y-20431024D01*
X25635898Y-20420553D01*
X25646899Y-20411701D01*
X25657586Y-20403922D01*
X25668646Y-20396671D01*
X25680767Y-20389404D01*
X25694635Y-20381575D01*
X25702667Y-20377107D01*
X25715307Y-20369884D01*
X25725002Y-20363889D01*
X25732771Y-20358368D01*
X25739633Y-20352566D01*
X25746609Y-20345730D01*
X25754716Y-20337103D01*
X25775826Y-20314215D01*
X25761052Y-20227584D01*
X25746277Y-20140954D01*
X25723831Y-20111616D01*
X25701384Y-20082278D01*
X25659474Y-20063144D01*
X25637767Y-20053348D01*
X25607680Y-20040230D01*
X25578792Y-20028271D01*
X25550330Y-20017206D01*
X25521521Y-20006766D01*
X25491593Y-19996685D01*
X25459771Y-19986696D01*
X25425283Y-19976532D01*
X25387356Y-19965925D01*
X25345217Y-19954610D01*
X25343381Y-19954124D01*
X25320532Y-19948067D01*
X25301661Y-19942980D01*
X25285893Y-19938567D01*
X25272354Y-19934532D01*
X25260171Y-19930577D01*
X25248470Y-19926409D01*
X25236377Y-19921729D01*
X25223018Y-19916242D01*
X25207519Y-19909652D01*
X25189007Y-19901663D01*
X25177449Y-19896691D01*
X25155639Y-19887441D01*
X25132579Y-19877809D01*
X25108764Y-19867989D01*
X25084688Y-19858177D01*
X25060846Y-19848568D01*
X25037733Y-19839357D01*
X25015843Y-19830741D01*
X24995671Y-19822914D01*
X24977712Y-19816072D01*
X24962460Y-19810411D01*
X24950409Y-19806125D01*
X24942056Y-19803410D01*
X24937893Y-19802462D01*
X24937692Y-19802643D01*
X24936293Y-19806217D01*
X24934009Y-19813813D01*
X24931040Y-19824699D01*
X24927588Y-19838146D01*
X24923854Y-19853423D01*
X24920346Y-19867983D01*
X24916944Y-19881585D01*
X24914286Y-19891306D01*
X24912175Y-19897737D01*
X24910412Y-19901469D01*
X24908799Y-19903091D01*
X24907137Y-19903196D01*
X24906465Y-19903013D01*
X24901506Y-19901660D01*
X24891897Y-19899034D01*
X24877808Y-19895181D01*
X24859411Y-19890149D01*
X24836875Y-19883983D01*
X24810372Y-19876732D01*
X24780072Y-19868441D01*
X24746146Y-19859158D01*
X24708765Y-19848928D01*
X24668099Y-19837799D01*
X24624319Y-19825818D01*
X24577595Y-19813031D01*
X24528099Y-19799484D01*
X24476001Y-19785225D01*
X24421472Y-19770300D01*
X24364682Y-19754757D01*
X24305802Y-19738641D01*
X24245003Y-19721999D01*
X24182456Y-19704879D01*
X24118331Y-19687326D01*
X24052798Y-19669388D01*
X23986030Y-19651111D01*
X23069471Y-19400216D01*
X23077604Y-19367964D01*
X23085738Y-19335711D01*
X23039741Y-19322338D01*
X23007652Y-19312845D01*
X22973820Y-19302382D01*
X22944700Y-19292814D01*
X22920145Y-19284089D01*
X22900009Y-19276157D01*
X22884144Y-19268968D01*
X22883928Y-19268861D01*
X22865407Y-19260677D01*
X22843380Y-19252577D01*
X22819374Y-19245123D01*
X22780384Y-19234067D01*
X22691484Y-19229654D01*
X22675720Y-19228905D01*
X22650174Y-19227854D01*
X22625008Y-19227052D01*
X22599313Y-19226485D01*
X22572178Y-19226139D01*
X22542695Y-19225999D01*
X22509954Y-19226053D01*
X22473044Y-19226284D01*
X22343504Y-19227328D01*
X22325866Y-19237259D01*
X22319355Y-19241375D01*
X22309491Y-19248242D01*
X22297119Y-19257254D01*
X22282964Y-19267875D01*
X22267752Y-19279569D01*
X22252206Y-19291799D01*
X22241693Y-19300106D01*
X22222836Y-19314763D01*
X22203068Y-19329872D01*
X22183600Y-19344517D01*
X22165644Y-19357781D01*
X22150412Y-19368750D01*
X22149382Y-19369478D01*
X22136157Y-19378866D01*
X22125317Y-19386749D01*
X22116137Y-19393786D01*
X22107891Y-19400635D01*
X22099855Y-19407954D01*
X22091303Y-19416401D01*
X22081511Y-19426634D01*
X22069753Y-19439312D01*
X22055305Y-19455092D01*
X22047666Y-19463449D01*
X22035058Y-19477157D01*
X22024486Y-19488405D01*
X22015185Y-19497882D01*
X22006394Y-19506275D01*
X21997351Y-19514274D01*
X21987292Y-19522566D01*
X21975455Y-19531839D01*
X21961077Y-19542781D01*
X21943397Y-19556082D01*
X21926347Y-19569013D01*
X21901408Y-19588530D01*
X21879307Y-19606705D01*
X21859099Y-19624322D01*
X21839840Y-19642166D01*
X21826166Y-19655109D01*
X21814413Y-19665896D01*
X21804341Y-19674587D01*
X21794972Y-19681952D01*
X21785327Y-19688755D01*
X21774429Y-19695764D01*
X21761301Y-19703746D01*
X21723744Y-19726233D01*
X21667229Y-19726247D01*
X21610714Y-19726262D01*
X21610714Y-19649002D01*
X21610715Y-19571743D01*
X21629303Y-19551847D01*
X21635596Y-19544687D01*
X21646825Y-19530376D01*
X21658789Y-19513530D01*
X21670578Y-19495396D01*
X21693264Y-19458840D01*
X21751684Y-19405104D01*
X21781793Y-19378012D01*
X21824212Y-19342035D01*
X21866493Y-19308844D01*
X21873040Y-19303893D01*
X21891481Y-19289726D01*
X21906878Y-19277457D01*
X21920099Y-19266340D01*
X21932013Y-19255629D01*
X21943488Y-19244576D01*
X21955393Y-19232436D01*
X21987904Y-19198552D01*
X22066289Y-19149930D01*
X22084773Y-19138447D01*
X22102204Y-19127535D01*
X22116450Y-19118458D01*
X22128118Y-19110778D01*
X22137816Y-19104057D01*
X22146153Y-19097858D01*
X22153737Y-19091744D01*
X22161175Y-19085278D01*
X22167029Y-19079902D01*
X23325611Y-19079902D01*
X23328840Y-19115875D01*
X23335483Y-19150385D01*
X23345492Y-19182241D01*
X23362264Y-19219139D01*
X23383409Y-19254023D01*
X23408318Y-19285630D01*
X23436803Y-19313797D01*
X23468678Y-19338362D01*
X23503757Y-19359163D01*
X23541853Y-19376037D01*
X23582781Y-19388823D01*
X23586345Y-19389645D01*
X23601219Y-19392042D01*
X23619393Y-19393818D01*
X23639519Y-19394939D01*
X23660248Y-19395369D01*
X23680231Y-19395075D01*
X23698119Y-19394021D01*
X23712564Y-19392172D01*
X23733420Y-19387654D01*
X23771997Y-19375523D01*
X23808432Y-19359083D01*
X23842406Y-19338629D01*
X23873600Y-19314454D01*
X23901698Y-19286853D01*
X23926379Y-19256120D01*
X23947328Y-19222548D01*
X23964224Y-19186432D01*
X23976750Y-19148066D01*
X23984362Y-19109508D01*
X23987309Y-19069486D01*
X23985312Y-19029602D01*
X23978429Y-18990181D01*
X23966717Y-18951545D01*
X23950233Y-18914018D01*
X23929034Y-18877922D01*
X23921809Y-18868130D01*
X23910395Y-18854625D01*
X23896852Y-18840012D01*
X23882215Y-18825325D01*
X23867521Y-18811598D01*
X23853805Y-18799864D01*
X23842104Y-18791159D01*
X23834003Y-18785963D01*
X23797526Y-18766189D01*
X23758499Y-18750522D01*
X23717644Y-18739263D01*
X23714681Y-18738664D01*
X23696622Y-18736193D01*
X23675435Y-18734838D01*
X23652652Y-18734587D01*
X23629806Y-18735426D01*
X23608428Y-18737343D01*
X23590051Y-18740325D01*
X23550284Y-18751330D01*
X23512658Y-18766728D01*
X23477601Y-18786226D01*
X23445398Y-18809563D01*
X23416328Y-18836479D01*
X23390674Y-18866712D01*
X23368717Y-18900001D01*
X23350740Y-18936084D01*
X23337025Y-18974702D01*
X23336899Y-18975140D01*
X23329592Y-19008342D01*
X23325846Y-19043660D01*
X23325611Y-19079902D01*
X22167029Y-19079902D01*
X22169077Y-19078021D01*
X22178049Y-19069537D01*
X22211424Y-19037766D01*
X22271114Y-19006301D01*
X22292606Y-18994908D01*
X22322941Y-18978536D01*
X22349672Y-18963675D01*
X22373413Y-18949947D01*
X22394781Y-18936975D01*
X22414391Y-18924381D01*
X22432859Y-18911789D01*
X22450799Y-18898821D01*
X22468829Y-18885099D01*
X22516372Y-18848101D01*
X22607738Y-18853847D01*
X22620572Y-18854648D01*
X22648054Y-18856337D01*
X22678399Y-18858173D01*
X22710157Y-18860068D01*
X22741881Y-18861938D01*
X22772123Y-18863696D01*
X22799434Y-18865255D01*
X22899764Y-18870917D01*
X22984854Y-18889492D01*
X22990740Y-18890782D01*
X23014834Y-18896162D01*
X23040103Y-18901942D01*
X23065320Y-18907831D01*
X23089254Y-18913540D01*
X23110675Y-18918780D01*
X23128356Y-18923261D01*
X23139312Y-18926095D01*
X23154661Y-18930005D01*
X23167840Y-18933289D01*
X23178164Y-18935782D01*
X23184947Y-18937314D01*
X23187504Y-18937719D01*
X23187564Y-18937596D01*
X23188586Y-18934173D01*
X23190663Y-18926542D01*
X23193641Y-18915308D01*
X23197366Y-18901076D01*
X23201682Y-18884452D01*
X23206435Y-18866042D01*
X23211470Y-18846451D01*
X23216633Y-18826286D01*
X23221767Y-18806151D01*
X23226720Y-18786652D01*
X23231335Y-18768395D01*
X23235458Y-18751986D01*
X23238934Y-18738030D01*
X23241609Y-18727132D01*
X23243327Y-18719899D01*
X23243934Y-18716936D01*
X23243647Y-18716395D01*
X23240036Y-18713610D01*
X23232935Y-18709328D01*
X23223165Y-18704027D01*
X23211549Y-18698182D01*
X23179164Y-18682448D01*
X23068674Y-18658134D01*
X23033175Y-18650280D01*
X22997260Y-18642211D01*
X22965511Y-18634908D01*
X22937492Y-18628246D01*
X22912771Y-18622105D01*
X22890913Y-18616360D01*
X22871485Y-18610890D01*
X22854054Y-18605571D01*
X22838184Y-18600282D01*
X22823443Y-18594898D01*
X22809397Y-18589299D01*
X22795612Y-18583360D01*
X22781654Y-18576960D01*
X22780416Y-18576380D01*
X22765154Y-18569480D01*
X22746757Y-18561516D01*
X22726717Y-18553115D01*
X22706526Y-18544903D01*
X22687674Y-18537506D01*
X22685400Y-18536631D01*
X22666577Y-18529227D01*
X22646825Y-18521206D01*
X22627568Y-18513162D01*
X22610230Y-18505688D01*
X22596234Y-18499379D01*
X22578875Y-18491270D01*
X22559907Y-18482364D01*
X22544771Y-18475171D01*
X22533023Y-18469456D01*
X22524222Y-18464985D01*
X22517924Y-18461523D01*
X22513687Y-18458834D01*
X22511068Y-18456684D01*
X22509623Y-18454839D01*
X22508911Y-18453062D01*
X22508900Y-18453022D01*
X22508328Y-18448667D01*
X22507667Y-18440155D01*
X22506971Y-18428388D01*
X22506292Y-18414267D01*
X22505686Y-18398696D01*
X22504004Y-18350020D01*
X22493604Y-18347259D01*
X22493501Y-18347231D01*
X22484638Y-18345039D01*
X22471682Y-18342043D01*
X22455508Y-18338429D01*
X22436993Y-18334383D01*
X22417010Y-18330093D01*
X22396436Y-18325744D01*
X22376145Y-18321522D01*
X22357012Y-18317616D01*
X22339914Y-18314210D01*
X22325724Y-18311491D01*
X22297154Y-18306128D01*
X22248826Y-18296798D01*
X22203324Y-18287678D01*
X22161017Y-18278847D01*
X22122271Y-18270385D01*
X22087455Y-18262371D01*
X22056937Y-18254884D01*
X22031084Y-18248004D01*
X21967584Y-18230225D01*
X21932807Y-18230213D01*
X21898029Y-18230202D01*
X21852797Y-18248166D01*
X21836858Y-18254460D01*
X21816754Y-18262331D01*
X21795215Y-18270711D01*
X21773960Y-18278930D01*
X21754704Y-18286320D01*
X21701844Y-18306510D01*
X21683819Y-18290581D01*
X21672164Y-18279511D01*
X21659179Y-18265569D01*
X21647148Y-18251094D01*
X21637083Y-18237311D01*
X21629998Y-18225446D01*
X21622855Y-18207402D01*
X21619115Y-18186684D01*
X21620114Y-18166417D01*
X21625881Y-18147207D01*
X21626793Y-18145238D01*
X21634451Y-18132740D01*
X21644092Y-18121935D01*
X21654280Y-18114479D01*
X21657705Y-18111907D01*
X21662659Y-18104980D01*
X21667778Y-18093740D01*
X21674540Y-18076532D01*
X21777084Y-18020854D01*
X21854554Y-18015451D01*
X21932024Y-18010049D01*
X22008053Y-18018537D01*
X22021125Y-18020016D01*
X22040954Y-18022379D01*
X22058852Y-18024717D01*
X22075803Y-18027195D01*
X22092791Y-18029979D01*
X22110799Y-18033232D01*
X22130809Y-18037120D01*
X22153806Y-18041807D01*
X22180773Y-18047457D01*
X22204964Y-18052513D01*
X22232912Y-18058155D01*
X22257824Y-18062905D01*
X22280775Y-18066949D01*
X22302837Y-18070474D01*
X22325083Y-18073668D01*
X22348584Y-18076718D01*
X22359899Y-18078131D01*
X22379248Y-18080630D01*
X22395485Y-18082918D01*
X22409753Y-18085222D01*
X22423196Y-18087765D01*
X22436957Y-18090772D01*
X22452180Y-18094468D01*
X22470010Y-18099078D01*
X22491589Y-18104827D01*
X22496794Y-18106218D01*
X22514716Y-18110915D01*
X22530868Y-18115010D01*
X22544622Y-18118355D01*
X22555354Y-18120801D01*
X22562438Y-18122197D01*
X22565249Y-18122396D01*
X22566722Y-18119859D01*
X22569787Y-18113525D01*
X22573927Y-18104436D01*
X22578676Y-18093591D01*
X22590327Y-18066499D01*
X22627319Y-18053195D01*
X22664312Y-18039890D01*
X22737082Y-18053670D01*
X22741287Y-18054460D01*
X22763785Y-18058530D01*
X22789611Y-18062989D01*
X22817353Y-18067607D01*
X22845604Y-18072153D01*
X22872952Y-18076393D01*
X22897989Y-18080098D01*
X22916846Y-18082852D01*
X22935342Y-18085675D01*
X22953351Y-18088577D01*
X22971479Y-18091673D01*
X22990331Y-18095079D01*
X23010510Y-18098908D01*
X23032622Y-18103276D01*
X23057272Y-18108297D01*
X23085064Y-18114086D01*
X23116603Y-18120759D01*
X23152494Y-18128430D01*
X23161441Y-18130352D01*
X23190627Y-18136658D01*
X23218977Y-18142838D01*
X23245973Y-18148776D01*
X23271099Y-18154356D01*
X23293838Y-18159462D01*
X23313674Y-18163979D01*
X23330090Y-18167790D01*
X23342570Y-18170781D01*
X23350597Y-18172834D01*
X23352847Y-18173452D01*
X23364397Y-18176577D01*
X23373804Y-18179055D01*
X23380151Y-18180646D01*
X23382521Y-18181113D01*
X23383325Y-18178284D01*
X23385200Y-18171158D01*
X23387990Y-18160355D01*
X23391540Y-18146488D01*
X23395695Y-18130172D01*
X23400300Y-18112021D01*
X23405200Y-18092650D01*
X23410241Y-18072673D01*
X23415267Y-18052705D01*
X23420124Y-18033359D01*
X23424658Y-18015250D01*
X23428712Y-17998992D01*
X23432133Y-17985200D01*
X23434765Y-17974488D01*
X23436454Y-17967471D01*
X23437045Y-17964762D01*
X23436510Y-17964335D01*
X23432010Y-17962965D01*
X23423527Y-17961103D01*
X23411779Y-17958887D01*
X23397483Y-17956457D01*
X23381358Y-17953953D01*
X23369807Y-17952183D01*
X23349423Y-17948757D01*
X23332164Y-17945434D01*
X23318674Y-17942344D01*
X23309597Y-17939616D01*
X23307597Y-17938880D01*
X23299806Y-17936115D01*
X23288068Y-17932026D01*
X23272987Y-17926820D01*
X23255169Y-17920704D01*
X23235216Y-17913887D01*
X23213735Y-17906577D01*
X23191330Y-17898980D01*
X23149773Y-17884706D01*
X23101179Y-17867518D01*
X23052376Y-17849759D01*
X23004215Y-17831751D01*
X22957546Y-17813818D01*
X22913220Y-17796281D01*
X22872086Y-17779464D01*
X22834994Y-17763690D01*
X22820626Y-17757408D01*
X22803456Y-17749766D01*
X22788700Y-17742942D01*
X22775402Y-17736431D01*
X22762604Y-17729725D01*
X22749349Y-17722318D01*
X22734680Y-17713704D01*
X22717639Y-17703376D01*
X22697269Y-17690828D01*
X22626854Y-17647272D01*
X22626784Y-17612438D01*
X22626549Y-17597724D01*
X22625898Y-17580801D01*
X22624937Y-17564760D01*
X22623769Y-17551699D01*
X22622897Y-17544399D01*
X22621380Y-17534380D01*
X22619662Y-17527587D01*
X22617399Y-17522831D01*
X22614244Y-17518923D01*
X22611800Y-17516856D01*
X22604723Y-17511910D01*
X22593963Y-17504993D01*
X22579985Y-17496384D01*
X22563256Y-17486360D01*
X22544239Y-17475199D01*
X22523402Y-17463178D01*
X22501208Y-17450576D01*
X22478124Y-17437671D01*
X22458622Y-17426737D01*
X22436519Y-17414020D01*
X22417204Y-17402527D01*
X22401114Y-17392523D01*
X22388687Y-17384276D01*
X22380357Y-17378050D01*
X22372673Y-17372311D01*
X22359630Y-17363928D01*
X22342843Y-17354143D01*
X22322826Y-17343254D01*
X22300094Y-17331559D01*
X22297879Y-17330427D01*
X22285500Y-17323627D01*
X22269282Y-17314111D01*
X22249487Y-17302046D01*
X22226377Y-17287595D01*
X22200212Y-17270924D01*
X22171256Y-17252198D01*
X22139770Y-17231582D01*
X22106014Y-17209240D01*
X22104096Y-17207964D01*
X22087912Y-17197258D01*
X22074850Y-17188821D01*
X22063926Y-17182130D01*
X22054156Y-17176663D01*
X22044557Y-17171896D01*
X22034146Y-17167308D01*
X22021939Y-17162375D01*
X22006954Y-17156574D01*
X21996164Y-17152499D01*
X21975676Y-17145015D01*
X21953907Y-17137318D01*
X21932854Y-17130110D01*
X21914516Y-17124093D01*
X21869068Y-17109643D01*
X21835141Y-17080399D01*
X21825732Y-17072128D01*
X21815944Y-17063133D01*
X21808178Y-17055551D01*
X21803060Y-17049998D01*
X21801214Y-17047086D01*
X21801230Y-17046492D01*
X21801536Y-17041396D01*
X21802178Y-17032577D01*
X21803075Y-17021092D01*
X21804148Y-17007999D01*
X21807082Y-16972982D01*
X21838605Y-16938652D01*
X21848347Y-16928132D01*
X21857340Y-16918599D01*
X21864632Y-16911060D01*
X21869652Y-16906104D01*
X21871830Y-16904321D01*
X21874548Y-16904942D01*
X21881528Y-16906734D01*
X21892105Y-16909524D01*
X21905620Y-16913136D01*
X21921416Y-16917397D01*
X21938837Y-16922131D01*
X21950467Y-16925356D01*
X21976453Y-16932959D01*
X22003525Y-16941445D01*
X22032575Y-16951108D01*
X22064491Y-16962240D01*
X22100163Y-16975134D01*
X22110562Y-16978953D01*
X22135656Y-16988261D01*
X22157078Y-16996387D01*
X22175651Y-17003676D01*
X22192202Y-17010472D01*
X22207555Y-17017118D01*
X22222536Y-17023959D01*
X22237968Y-17031339D01*
X22254677Y-17039603D01*
X22313169Y-17068879D01*
X22371517Y-17115547D01*
X22376815Y-17119780D01*
X22393593Y-17133087D01*
X22407662Y-17143990D01*
X22419971Y-17153134D01*
X22431467Y-17161165D01*
X22443099Y-17168729D01*
X22455814Y-17176470D01*
X22470560Y-17185035D01*
X22488284Y-17195069D01*
X22513784Y-17209329D01*
X22538967Y-17223248D01*
X22562664Y-17236183D01*
X22584457Y-17247911D01*
X22603928Y-17258213D01*
X22620662Y-17266869D01*
X22634241Y-17273657D01*
X22644248Y-17278357D01*
X22650266Y-17280749D01*
X22651164Y-17281008D01*
X22658136Y-17282218D01*
X22661949Y-17281303D01*
X22663882Y-17278871D01*
X22668425Y-17272999D01*
X22675014Y-17264414D01*
X22683124Y-17253802D01*
X22692228Y-17241848D01*
X22720456Y-17204725D01*
X22777090Y-17214392D01*
X22802574Y-17218739D01*
X22830743Y-17223550D01*
X22856153Y-17227924D01*
X22879231Y-17231959D01*
X22900401Y-17235757D01*
X22920087Y-17239417D01*
X22938717Y-17243038D01*
X22956714Y-17246720D01*
X22974503Y-17250565D01*
X22992510Y-17254670D01*
X23011161Y-17259137D01*
X23030880Y-17264064D01*
X23052092Y-17269553D01*
X23075222Y-17275702D01*
X23100696Y-17282611D01*
X23128939Y-17290381D01*
X23160377Y-17299112D01*
X23195433Y-17308902D01*
X23234533Y-17319852D01*
X23278104Y-17332063D01*
X23291241Y-17335743D01*
X23327141Y-17345791D01*
X23361545Y-17355409D01*
X23394143Y-17364511D01*
X23424627Y-17373010D01*
X23452689Y-17380822D01*
X23478020Y-17387861D01*
X23500312Y-17394041D01*
X23519255Y-17399276D01*
X23534542Y-17403480D01*
X23545863Y-17406569D01*
X23552910Y-17408456D01*
X23555376Y-17409056D01*
X23555908Y-17407760D01*
X23557617Y-17402133D01*
X23560267Y-17392656D01*
X23563698Y-17379954D01*
X23567750Y-17364653D01*
X23572263Y-17347379D01*
X23577078Y-17328758D01*
X23582035Y-17309415D01*
X23586976Y-17289978D01*
X23591740Y-17271072D01*
X23596168Y-17253322D01*
X23600100Y-17237356D01*
X23603376Y-17223798D01*
X23605838Y-17213275D01*
X23607326Y-17206412D01*
X23607680Y-17203836D01*
X23607631Y-17203807D01*
X23604507Y-17202793D01*
X23596899Y-17200565D01*
X23585189Y-17197229D01*
X23569759Y-17192892D01*
X23550991Y-17187660D01*
X23529268Y-17181638D01*
X23504971Y-17174935D01*
X23478484Y-17167655D01*
X23450187Y-17159904D01*
X23420464Y-17151790D01*
X23235044Y-17101255D01*
X23014064Y-16930079D01*
X23008755Y-16925966D01*
X22979470Y-16903278D01*
X22951354Y-16881489D01*
X22924667Y-16860802D01*
X22899666Y-16841417D01*
X22876610Y-16823535D01*
X22855760Y-16807356D01*
X22837373Y-16793083D01*
X22821708Y-16780915D01*
X22809025Y-16771053D01*
X22799581Y-16763699D01*
X22793637Y-16759054D01*
X22791450Y-16757317D01*
X22791383Y-16757151D01*
X22790773Y-16753412D01*
X22789711Y-16745089D01*
X22788238Y-16732572D01*
X22786398Y-16716248D01*
X22784231Y-16696507D01*
X22781782Y-16673738D01*
X22779092Y-16648328D01*
X22776203Y-16620669D01*
X22773157Y-16591147D01*
X22769998Y-16560152D01*
X22750180Y-16364572D01*
X22757020Y-16301072D01*
X22757636Y-16295251D01*
X22759806Y-16273215D01*
X22761910Y-16249724D01*
X22763812Y-16226403D01*
X22765378Y-16204878D01*
X22766474Y-16186772D01*
X22766533Y-16185645D01*
X22769096Y-16150310D01*
X22773245Y-16112043D01*
X22779077Y-16069932D01*
X22780559Y-16060025D01*
X22783728Y-16038160D01*
X22786880Y-16015618D01*
X22789820Y-15993824D01*
X22792355Y-15974200D01*
X22794291Y-15958172D01*
X22795093Y-15951389D01*
X22797760Y-15930873D01*
X22800929Y-15908629D01*
X22804271Y-15886918D01*
X22807454Y-15868002D01*
X22809549Y-15856425D01*
X22812252Y-15842505D01*
X22814822Y-15831370D01*
X22817664Y-15821684D01*
X22821188Y-15812116D01*
X22825800Y-15801329D01*
X22831909Y-15787992D01*
X22832578Y-15786554D01*
X22840633Y-15769976D01*
X22847565Y-15757308D01*
X22853866Y-15747715D01*
X22860028Y-15740367D01*
X22871634Y-15728302D01*
X22994430Y-15728302D01*
X22998305Y-15734214D01*
X22999483Y-15736526D01*
X23002323Y-15743506D01*
X23006083Y-15753756D01*
X23010413Y-15766311D01*
X23014963Y-15780206D01*
X23027746Y-15820284D01*
X23024100Y-15865098D01*
X23023161Y-15876184D01*
X23021728Y-15891770D01*
X23020299Y-15905937D01*
X23018999Y-15917470D01*
X23017952Y-15925152D01*
X23015868Y-15938254D01*
X23013766Y-15952639D01*
X23011798Y-15967661D01*
X23009828Y-15984428D01*
X23007721Y-16004044D01*
X23005339Y-16027618D01*
X23005177Y-16029244D01*
X23003564Y-16044574D01*
X23001884Y-16058384D01*
X22999969Y-16071595D01*
X22997651Y-16085128D01*
X22994761Y-16099903D01*
X22991130Y-16116841D01*
X22986592Y-16136862D01*
X22980977Y-16160888D01*
X22978367Y-16171850D01*
X22973576Y-16191429D01*
X22969117Y-16208958D01*
X22965148Y-16223855D01*
X22961825Y-16235539D01*
X22959305Y-16243430D01*
X22957746Y-16246946D01*
X22957726Y-16246969D01*
X22956001Y-16249402D01*
X22955105Y-16252511D01*
X22955157Y-16256988D01*
X22956275Y-16263528D01*
X22958578Y-16272826D01*
X22962183Y-16285577D01*
X22967209Y-16302474D01*
X22967741Y-16304258D01*
X22971670Y-16318248D01*
X22975095Y-16331810D01*
X22977664Y-16343474D01*
X22979024Y-16351773D01*
X22979235Y-16353451D01*
X22980640Y-16360250D01*
X22983248Y-16369131D01*
X22987245Y-16380600D01*
X22992812Y-16395164D01*
X23000134Y-16413331D01*
X23009394Y-16435606D01*
X23011152Y-16439779D01*
X23018583Y-16457159D01*
X23025524Y-16472995D01*
X23031688Y-16486654D01*
X23036784Y-16497507D01*
X23040526Y-16504923D01*
X23042625Y-16508271D01*
X23043717Y-16509275D01*
X23048491Y-16513611D01*
X23056300Y-16520671D01*
X23066656Y-16530017D01*
X23079074Y-16541212D01*
X23093067Y-16553819D01*
X23108150Y-16567400D01*
X23123835Y-16581517D01*
X23139636Y-16595734D01*
X23155069Y-16609612D01*
X23169645Y-16622714D01*
X23182879Y-16634602D01*
X23194284Y-16644840D01*
X23203375Y-16652989D01*
X23209665Y-16658611D01*
X23212668Y-16661271D01*
X23214826Y-16662953D01*
X23217315Y-16663865D01*
X23220732Y-16663492D01*
X23225979Y-16661585D01*
X23233959Y-16657893D01*
X23245575Y-16652167D01*
X23254744Y-16647642D01*
X23268966Y-16640716D01*
X23282658Y-16634141D01*
X23293817Y-16628885D01*
X23314490Y-16619305D01*
X23518204Y-16737875D01*
X23523953Y-16741220D01*
X23553234Y-16758246D01*
X23581188Y-16774475D01*
X23607510Y-16789732D01*
X23631892Y-16803840D01*
X23654029Y-16816623D01*
X23673615Y-16827905D01*
X23690344Y-16837509D01*
X23703909Y-16845258D01*
X23714004Y-16850977D01*
X23720324Y-16854489D01*
X23722562Y-16855618D01*
X23723236Y-16853382D01*
X23725003Y-16846825D01*
X23727680Y-16836605D01*
X23731099Y-16823381D01*
X23735087Y-16807809D01*
X23739475Y-16790546D01*
X23743655Y-16774186D01*
X23748013Y-16757634D01*
X23751492Y-16745199D01*
X23754238Y-16736416D01*
X23756399Y-16730823D01*
X23758122Y-16727954D01*
X23759554Y-16727344D01*
X23759654Y-16727372D01*
X23763090Y-16728310D01*
X23771227Y-16730531D01*
X23783893Y-16733988D01*
X23800914Y-16738635D01*
X23822118Y-16744422D01*
X23847331Y-16751305D01*
X23876381Y-16759234D01*
X23909095Y-16768163D01*
X23945299Y-16778045D01*
X23984821Y-16788833D01*
X24027488Y-16800479D01*
X24073126Y-16812936D01*
X24121563Y-16826157D01*
X24172626Y-16840095D01*
X24226142Y-16854702D01*
X24281938Y-16869931D01*
X24339841Y-16885736D01*
X24399677Y-16902068D01*
X24461275Y-16918881D01*
X24524461Y-16936128D01*
X24589062Y-16953760D01*
X24654904Y-16971732D01*
X24665210Y-16974545D01*
X24730856Y-16992468D01*
X24795226Y-17010049D01*
X24858146Y-17027242D01*
X24919445Y-17043999D01*
X24978949Y-17060272D01*
X25036486Y-17076015D01*
X25091884Y-17091179D01*
X25144969Y-17105718D01*
X25195570Y-17119584D01*
X25243513Y-17132730D01*
X25288626Y-17145108D01*
X25330737Y-17156671D01*
X25369673Y-17167371D01*
X25405261Y-17177162D01*
X25437328Y-17185996D01*
X25465702Y-17193825D01*
X25490211Y-17200602D01*
X25510682Y-17206280D01*
X25526942Y-17210812D01*
X25538819Y-17214149D01*
X25546139Y-17216245D01*
X25548731Y-17217053D01*
X25548975Y-17217646D01*
X25548817Y-17222338D01*
X25547529Y-17230905D01*
X25545238Y-17242587D01*
X25542074Y-17256620D01*
X25540404Y-17263675D01*
X25537570Y-17275819D01*
X25535341Y-17285607D01*
X25533912Y-17292180D01*
X25533477Y-17294674D01*
X25533863Y-17294771D01*
X25538172Y-17295588D01*
X25546939Y-17297167D01*
X25559765Y-17299438D01*
X25576253Y-17302332D01*
X25596005Y-17305781D01*
X25618623Y-17309716D01*
X25643708Y-17314067D01*
X25670863Y-17318765D01*
X25699689Y-17323742D01*
X25729790Y-17328929D01*
X25760766Y-17334256D01*
X25792220Y-17339655D01*
X25823753Y-17345057D01*
X25854968Y-17350392D01*
X25924732Y-17362302D01*
X26072224Y-17343028D01*
X26154774Y-17312152D01*
X26159780Y-17310280D01*
X26175233Y-17304479D01*
X26188989Y-17299253D01*
X26201527Y-17294380D01*
X26213326Y-17289638D01*
X26224866Y-17284808D01*
X26236625Y-17279668D01*
X26249082Y-17273998D01*
X26262716Y-17267576D01*
X26278007Y-17260181D01*
X26295433Y-17251594D01*
X26315474Y-17241592D01*
X26338609Y-17229955D01*
X26365316Y-17216463D01*
X26396074Y-17200894D01*
X26554824Y-17120511D01*
X26561902Y-17099830D01*
X26563549Y-17095141D01*
X26567457Y-17084387D01*
X26572626Y-17070447D01*
X26578699Y-17054275D01*
X26585321Y-17036821D01*
X26592134Y-17019040D01*
X26615288Y-16958932D01*
X26643476Y-16921721D01*
X26643783Y-16921316D01*
X26658199Y-16903179D01*
X26675190Y-16883199D01*
X26693504Y-16862806D01*
X26711893Y-16843431D01*
X26752122Y-16802352D01*
X26793272Y-16793258D01*
X26834423Y-16784163D01*
X26867054Y-16806777D01*
X26899686Y-16829392D01*
X26897972Y-16892892D01*
X26896259Y-16956392D01*
X26867584Y-17016082D01*
X26858976Y-17033840D01*
X26850405Y-17050968D01*
X26842698Y-17065523D01*
X26835219Y-17078615D01*
X26827328Y-17091354D01*
X26818388Y-17104853D01*
X26807761Y-17120222D01*
X26805156Y-17123929D01*
X26795594Y-17137369D01*
X26786739Y-17149567D01*
X26779135Y-17159789D01*
X26773326Y-17167301D01*
X26769859Y-17171366D01*
X26769733Y-17171488D01*
X26765736Y-17174950D01*
X26758330Y-17180985D01*
X26748112Y-17189124D01*
X26735679Y-17198894D01*
X26721626Y-17209824D01*
X26706550Y-17221442D01*
X26700864Y-17225796D01*
X26684866Y-17237923D01*
X26670926Y-17248203D01*
X26658111Y-17257246D01*
X26645488Y-17265661D01*
X26632126Y-17274056D01*
X26617092Y-17283041D01*
X26599454Y-17293224D01*
X26578280Y-17305213D01*
X26575517Y-17306767D01*
X26558203Y-17316442D01*
X26537316Y-17328025D01*
X26513616Y-17341100D01*
X26487866Y-17355249D01*
X26460824Y-17370055D01*
X26433253Y-17385101D01*
X26405913Y-17399968D01*
X26379564Y-17414240D01*
X26369435Y-17419724D01*
X26329546Y-17441516D01*
X26293522Y-17461551D01*
X26260779Y-17480166D01*
X26230729Y-17497698D01*
X26202786Y-17514481D01*
X26176364Y-17530854D01*
X26161924Y-17539851D01*
X26138685Y-17554052D01*
X26112978Y-17569502D01*
X26085965Y-17585511D01*
X26058810Y-17601393D01*
X26032675Y-17616458D01*
X26008724Y-17630020D01*
X26003581Y-17632898D01*
X25980051Y-17645998D01*
X25959939Y-17657043D01*
X25942426Y-17666438D01*
X25926696Y-17674592D01*
X25911931Y-17681911D01*
X25897312Y-17688803D01*
X25882023Y-17695674D01*
X25865247Y-17702933D01*
X25846164Y-17710986D01*
X25775044Y-17740762D01*
X25699123Y-17751958D01*
X25623201Y-17763153D01*
X25549263Y-17741527D01*
X25545302Y-17740371D01*
X25525664Y-17734684D01*
X25506734Y-17729278D01*
X25489345Y-17724386D01*
X25474329Y-17720239D01*
X25462520Y-17717070D01*
X25454748Y-17715113D01*
X25434172Y-17710325D01*
X25408852Y-17816440D01*
X25383532Y-17922556D01*
X25401488Y-17926511D01*
X25407462Y-17927742D01*
X25417925Y-17929800D01*
X25432239Y-17932562D01*
X25449826Y-17935917D01*
X25470109Y-17939756D01*
X25492512Y-17943970D01*
X25516456Y-17948448D01*
X25541364Y-17953081D01*
X25556593Y-17955906D01*
X25578992Y-17960078D01*
X25598803Y-17963829D01*
X25616556Y-17967300D01*
X25632781Y-17970634D01*
X25648008Y-17973971D01*
X25662767Y-17977453D01*
X25677589Y-17981222D01*
X25693004Y-17985419D01*
X25709541Y-17990186D01*
X25727732Y-17995664D01*
X25748107Y-18001994D01*
X25771195Y-18009319D01*
X25797527Y-18017779D01*
X25827633Y-18027517D01*
X25862043Y-18038674D01*
X25881866Y-18045025D01*
X25908826Y-18053494D01*
X25938332Y-18062613D01*
X25969111Y-18071995D01*
X25999889Y-18081252D01*
X26029394Y-18089997D01*
X26056353Y-18097842D01*
X26161124Y-18127976D01*
X26162566Y-18181942D01*
X26173275Y-18181947D01*
X26178823Y-18181707D01*
X26188609Y-18180991D01*
X26201454Y-18179887D01*
X26216339Y-18178482D01*
X26232244Y-18176864D01*
X26237269Y-18176354D01*
X26252297Y-18174965D01*
X26271206Y-18173355D01*
X26293164Y-18171590D01*
X26317335Y-18169734D01*
X26342888Y-18167851D01*
X26368989Y-18166007D01*
X26394804Y-18164265D01*
X26509104Y-18156755D01*
X26584034Y-18140396D01*
X26598913Y-18137161D01*
X26618513Y-18132990D01*
X26635065Y-18129657D01*
X26649728Y-18126988D01*
X26663656Y-18124807D01*
X26678008Y-18122937D01*
X26693938Y-18121204D01*
X26712605Y-18119432D01*
X26735164Y-18117444D01*
X26764304Y-18114942D01*
X26795787Y-18112296D01*
X26822926Y-18110097D01*
X26846114Y-18108322D01*
X26865742Y-18106947D01*
X26882204Y-18105949D01*
X26895891Y-18105305D01*
X26907196Y-18104990D01*
X26916512Y-18104983D01*
X26924231Y-18105259D01*
X26930744Y-18105795D01*
X26933203Y-18106061D01*
X26942843Y-18107075D01*
X26950340Y-18107818D01*
X26954239Y-18108145D01*
X26954837Y-18108521D01*
X26955713Y-18111074D01*
X26956378Y-18116427D01*
X26956854Y-18125036D01*
X26957161Y-18137357D01*
X26957322Y-18153845D01*
X26957358Y-18174957D01*
X26957327Y-18191286D01*
X26957218Y-18208167D01*
X26956999Y-18221062D01*
X26956631Y-18230583D01*
X26956076Y-18237346D01*
X26955296Y-18241963D01*
X26954255Y-18245050D01*
X26952913Y-18247219D01*
X26950215Y-18249499D01*
X26942646Y-18253727D01*
X26931285Y-18258824D01*
X26916774Y-18264482D01*
X26915414Y-18264980D01*
X26903350Y-18269179D01*
X26891618Y-18272763D01*
X26879145Y-18275991D01*
X26864857Y-18279119D01*
X26847680Y-18282404D01*
X26826542Y-18286104D01*
X26794477Y-18291631D01*
X26755609Y-18298496D01*
X26715161Y-18305796D01*
X26673958Y-18313376D01*
X26632823Y-18321080D01*
X26592582Y-18328751D01*
X26554058Y-18336234D01*
X26518076Y-18343373D01*
X26485460Y-18350012D01*
X26457034Y-18355995D01*
X26440393Y-18359501D01*
X26409702Y-18365670D01*
X26377186Y-18371889D01*
X26344534Y-18377844D01*
X26313436Y-18383224D01*
X26285584Y-18387715D01*
X26280200Y-18388544D01*
X26256368Y-18392281D01*
X26236298Y-18395594D01*
X26218934Y-18398702D01*
X26203220Y-18401825D01*
X26188098Y-18405181D01*
X26172513Y-18408992D01*
X26155407Y-18413476D01*
X26135724Y-18418853D01*
X26069684Y-18437114D01*
X26011264Y-18478454D01*
X25974434Y-18485179D01*
X25974362Y-18485192D01*
X25962771Y-18487056D01*
X25946650Y-18489278D01*
X25926526Y-18491800D01*
X25902929Y-18494566D01*
X25876386Y-18497521D01*
X25847427Y-18500607D01*
X25816579Y-18503769D01*
X25784372Y-18506949D01*
X25751333Y-18510093D01*
X25717991Y-18513143D01*
X25684874Y-18516044D01*
X25669321Y-18517480D01*
X25648323Y-18519634D01*
X25625751Y-18522130D01*
X25603452Y-18524762D01*
X25583274Y-18527326D01*
X25528664Y-18534591D01*
X25468974Y-18522151D01*
X25460333Y-18520327D01*
X25440132Y-18515832D01*
X25421055Y-18511183D01*
X25401926Y-18506056D01*
X25381566Y-18500128D01*
X25358799Y-18493074D01*
X25332449Y-18484571D01*
X25321874Y-18481115D01*
X25304013Y-18475302D01*
X25288116Y-18470156D01*
X25274756Y-18465862D01*
X25264503Y-18462602D01*
X25257932Y-18460561D01*
X25255614Y-18459922D01*
X25255508Y-18460413D01*
X25254471Y-18464859D01*
X25252430Y-18473502D01*
X25249508Y-18485823D01*
X25245828Y-18501301D01*
X25241516Y-18519415D01*
X25236693Y-18539646D01*
X25231484Y-18561472D01*
X25229231Y-18570914D01*
X25224170Y-18592145D01*
X25219547Y-18611571D01*
X25215488Y-18628668D01*
X25212115Y-18642915D01*
X25209553Y-18653789D01*
X25207925Y-18660767D01*
X25207354Y-18663328D01*
X25208963Y-18664386D01*
X25214423Y-18667446D01*
X25223055Y-18672103D01*
X25234135Y-18677969D01*
X25246942Y-18684653D01*
X25286529Y-18705182D01*
X25335207Y-18705147D01*
X25383884Y-18705113D01*
X25442304Y-18719344D01*
X25448670Y-18720916D01*
X25467317Y-18725734D01*
X25485680Y-18730764D01*
X25502592Y-18735671D01*
X25516886Y-18740119D01*
X25527394Y-18743773D01*
X25530555Y-18745057D01*
X25540493Y-18749533D01*
X25554012Y-18756018D01*
X25570515Y-18764210D01*
X25589403Y-18773808D01*
X25610077Y-18784507D01*
X25631941Y-18796006D01*
X25654394Y-18808002D01*
X25659757Y-18810888D01*
X25682924Y-18823324D01*
X25709477Y-18837536D01*
X25738537Y-18853055D01*
X25769222Y-18869411D01*
X25800652Y-18886137D01*
X25831948Y-18902762D01*
X25862229Y-18918818D01*
X25890614Y-18933836D01*
X25891427Y-18934266D01*
X25915658Y-18947072D01*
X25938509Y-18959153D01*
X25959592Y-18970305D01*
X25978518Y-18980321D01*
X25994897Y-18988994D01*
X26008340Y-18996119D01*
X26018459Y-19001490D01*
X26024864Y-19004900D01*
X26027166Y-19006144D01*
X26026477Y-19007878D01*
X26023702Y-19013412D01*
X26019168Y-19022041D01*
X26013256Y-19033044D01*
X26006343Y-19045700D01*
X26000326Y-19056727D01*
X25994267Y-19068039D01*
X25993512Y-19069486D01*
X25989546Y-19077093D01*
X25986541Y-19083164D01*
%TD*%
D11*
%TO.C,JP1*%
X26775000Y-45578400D03*
D12*
X24235000Y-45578400D03*
X21695000Y-45578400D03*
%TD*%
D13*
%TO.C,J2*%
X31870000Y-52030000D03*
X31870000Y-49490000D03*
X31870000Y-46950000D03*
X31870000Y-44410000D03*
X31870000Y-41870000D03*
X31870000Y-39330000D03*
X31870000Y-36790000D03*
X31870000Y-34250000D03*
X31870000Y-31710000D03*
X31870000Y-29170000D03*
X31870000Y-26630000D03*
X31870000Y-24090000D03*
X31870000Y-21550000D03*
X31870000Y-19010000D03*
X31870000Y-16470000D03*
X16630000Y-16470000D03*
X16630000Y-19010000D03*
X16630000Y-21550000D03*
X16630000Y-24090000D03*
X16630000Y-26630000D03*
X16630000Y-29170000D03*
X16630000Y-31710000D03*
X16630000Y-34250000D03*
X16630000Y-36790000D03*
X16630000Y-39330000D03*
X16630000Y-41870000D03*
X16630000Y-44410000D03*
X16630000Y-46950000D03*
X16630000Y-49490000D03*
X16630000Y-52030000D03*
%TD*%
D14*
%TO.C,FID2*%
X19500000Y-50775000D03*
%TD*%
%TO.C,FID3*%
X29000000Y-17725000D03*
%TD*%
M02*
