M48
; DRILL file {KiCad (6.0.4)} date Tue May  3 13:29:39 2022
; FORMAT={-:-/ absolute / inch / decimal}
; #@! TF.CreationDate,2022-05-03T13:29:39+02:00
; #@! TF.GenerationSoftware,Kicad,Pcbnew,(6.0.4)
; #@! TF.FileFunction,Plated,1,2,PTH
FMAT,2
INCH
; #@! TA.AperFunction,Plated,PTH,ViaDrill
T1C0.0118
; #@! TA.AperFunction,Plated,PTH,ComponentDrill
T2C0.0118
; #@! TA.AperFunction,Plated,PTH,ComponentDrill
T3C0.0394
%
G90
G05
T1
X0.7343Y-1.2854
X0.7785Y-0.9774
X0.7795Y-1.3012
X0.7805Y-1.3976
X0.7835Y-1.9035
X0.8091Y-1.727
X0.815Y-1.9035
X0.815Y-1.9783
X0.8199Y-0.9774
X0.8219Y-0.8829
X0.8248Y-1.3012
X0.8258Y-1.1742
X0.8465Y-1.9035
X0.8465Y-1.9783
X0.8553Y-1.0994
X0.8657Y-1.5138
X0.8789Y-1.0354
X0.8819Y-1.4764
X0.9091Y-1.5134
X0.9114Y-0.9754
X0.9193Y-1.1417
X0.9272Y-1.597
X0.9291Y-1.1732
X0.935Y-1.4921
X0.936Y-1.0453
X0.9508Y-1.1319
X0.9703Y-1.1577
X0.9715Y-1.5955
X0.9732Y-1.5118
X0.9754Y-1.6781
X0.9803Y-1.1969
X0.9833Y-0.9439
X1.0Y-1.9006
X1.0157Y-1.5146
X1.0335Y-1.0728
X1.0531Y-1.1161
X1.0571Y-1.1969
X1.0591Y-0.9075
X1.0768Y-1.1398
X1.0787Y-1.9035
X1.0787Y-1.9783
X1.0807Y-1.3996
X1.0807Y-1.4921
X1.0846Y-0.8868
X1.0846Y-1.3602
X1.0866Y-1.5866
X1.1063Y-1.8661
X1.1102Y-1.9035
X1.1102Y-1.9783
X1.1142Y-0.6467
X1.1142Y-1.6959
X1.1161Y-1.3681
X1.1407Y-1.1476
X1.1417Y-1.9035
X1.1417Y-1.9783
X1.1476Y-0.6319
X1.1496Y-0.748
X1.1496Y-1.6024
X1.1516Y-1.0217
X1.1516Y-1.3642
X1.1575Y-1.8022
X1.1752Y-1.3012
X1.2087Y-1.2874
T2
X0.9646Y-1.9378
X0.9646Y-1.9783
X0.9646Y-2.0189
T3
X0.6547Y-0.6484
X0.6547Y-0.7484
X0.6547Y-0.8484
X0.6547Y-0.9484
X0.6547Y-1.0484
X0.6547Y-1.1484
X0.6547Y-1.2484
X0.6547Y-1.3484
X0.6547Y-1.4484
X0.6547Y-1.5484
X0.6547Y-1.6484
X0.6547Y-1.7484
X0.6547Y-1.8484
X0.6547Y-1.9484
X0.6547Y-2.0484
X0.8541Y-1.7944
X0.9541Y-1.7944
X1.0541Y-1.7944
X1.2547Y-0.6484
X1.2547Y-0.7484
X1.2547Y-0.8484
X1.2547Y-0.9484
X1.2547Y-1.0484
X1.2547Y-1.1484
X1.2547Y-1.2484
X1.2547Y-1.3484
X1.2547Y-1.4484
X1.2547Y-1.5484
X1.2547Y-1.6484
X1.2547Y-1.7484
X1.2547Y-1.8484
X1.2547Y-1.9484
X1.2547Y-2.0484
T0
M30
