%TF.GenerationSoftware,KiCad,Pcbnew,(6.0.4)*%
%TF.CreationDate,2022-05-03T13:29:39+02:00*%
%TF.ProjectId,nano_samc21e,6e616e6f-5f73-4616-9d63-3231652e6b69,rev?*%
%TF.SameCoordinates,Original*%
%TF.FileFunction,Paste,Top*%
%TF.FilePolarity,Positive*%
%FSLAX46Y46*%
G04 Gerber Fmt 4.6, Leading zero omitted, Abs format (unit mm)*
G04 Created by KiCad (PCBNEW (6.0.4)) date 2022-05-03 13:29:39*
%MOMM*%
%LPD*%
G01*
G04 APERTURE LIST*
G04 Aperture macros list*
%AMRoundRect*
0 Rectangle with rounded corners*
0 $1 Rounding radius*
0 $2 $3 $4 $5 $6 $7 $8 $9 X,Y pos of 4 corners*
0 Add a 4 corners polygon primitive as box body*
4,1,4,$2,$3,$4,$5,$6,$7,$8,$9,$2,$3,0*
0 Add four circle primitives for the rounded corners*
1,1,$1+$1,$2,$3*
1,1,$1+$1,$4,$5*
1,1,$1+$1,$6,$7*
1,1,$1+$1,$8,$9*
0 Add four rect primitives between the rounded corners*
20,1,$1+$1,$2,$3,$4,$5,0*
20,1,$1+$1,$4,$5,$6,$7,0*
20,1,$1+$1,$6,$7,$8,$9,0*
20,1,$1+$1,$8,$9,$2,$3,0*%
G04 Aperture macros list end*
%ADD10RoundRect,0.242500X-0.242500X0.242500X-0.242500X-0.242500X0.242500X-0.242500X0.242500X0.242500X0*%
%ADD11RoundRect,0.062500X-0.062500X0.337500X-0.062500X-0.337500X0.062500X-0.337500X0.062500X0.337500X0*%
%ADD12RoundRect,0.062500X-0.337500X0.062500X-0.337500X-0.062500X0.337500X-0.062500X0.337500X0.062500X0*%
%ADD13R,0.740000X2.400000*%
%ADD14RoundRect,0.250000X0.650000X-0.325000X0.650000X0.325000X-0.650000X0.325000X-0.650000X-0.325000X0*%
%ADD15RoundRect,0.250000X1.100000X-0.325000X1.100000X0.325000X-1.100000X0.325000X-1.100000X-0.325000X0*%
%ADD16RoundRect,0.140000X0.170000X-0.140000X0.170000X0.140000X-0.170000X0.140000X-0.170000X-0.140000X0*%
%ADD17RoundRect,0.140000X0.140000X0.170000X-0.140000X0.170000X-0.140000X-0.170000X0.140000X-0.170000X0*%
%ADD18RoundRect,0.162500X-0.162500X-0.287500X0.162500X-0.287500X0.162500X0.287500X-0.162500X0.287500X0*%
%ADD19RoundRect,0.112500X-0.287500X-0.112500X0.287500X-0.112500X0.287500X0.112500X-0.287500X0.112500X0*%
%ADD20RoundRect,0.225000X-0.250000X0.225000X-0.250000X-0.225000X0.250000X-0.225000X0.250000X0.225000X0*%
%ADD21RoundRect,0.140000X-0.140000X-0.170000X0.140000X-0.170000X0.140000X0.170000X-0.140000X0.170000X0*%
%ADD22R,1.800000X1.000000*%
%ADD23R,0.650000X1.060000*%
%ADD24RoundRect,0.218750X-0.256250X0.218750X-0.256250X-0.218750X0.256250X-0.218750X0.256250X0.218750X0*%
%ADD25RoundRect,0.140000X-0.170000X0.140000X-0.170000X-0.140000X0.170000X-0.140000X0.170000X0.140000X0*%
%ADD26RoundRect,0.225000X0.250000X-0.225000X0.250000X0.225000X-0.250000X0.225000X-0.250000X-0.225000X0*%
%ADD27R,1.000000X0.750000*%
G04 APERTURE END LIST*
D10*
%TO.C,U1*%
X23050000Y-35450000D03*
X25450000Y-35450000D03*
X24250000Y-35450000D03*
X24250000Y-33050000D03*
X25450000Y-33050000D03*
X25450000Y-34250000D03*
X24250000Y-34250000D03*
X23050000Y-34250000D03*
X23050000Y-33050000D03*
D11*
X26000000Y-31800000D03*
X25500000Y-31800000D03*
X25000000Y-31800000D03*
X24500000Y-31800000D03*
X24000000Y-31800000D03*
X23500000Y-31800000D03*
X23000000Y-31800000D03*
X22500000Y-31800000D03*
D12*
X21800000Y-32500000D03*
X21800000Y-33000000D03*
X21800000Y-33500000D03*
X21800000Y-34000000D03*
X21800000Y-34500000D03*
X21800000Y-35000000D03*
X21800000Y-35500000D03*
X21800000Y-36000000D03*
D11*
X22500000Y-36700000D03*
X23000000Y-36700000D03*
X23500000Y-36700000D03*
X24000000Y-36700000D03*
X24500000Y-36700000D03*
X25000000Y-36700000D03*
X25500000Y-36700000D03*
X26000000Y-36700000D03*
D12*
X26700000Y-36000000D03*
X26700000Y-35500000D03*
X26700000Y-35000000D03*
X26700000Y-34500000D03*
X26700000Y-34000000D03*
X26700000Y-33500000D03*
X26700000Y-33000000D03*
X26700000Y-32500000D03*
%TD*%
D13*
%TO.C,J1*%
X26790000Y-16985000D03*
X26790000Y-20885000D03*
X25520000Y-16985000D03*
X25520000Y-20885000D03*
X24250000Y-16985000D03*
X24250000Y-20885000D03*
X22980000Y-16985000D03*
X22980000Y-20885000D03*
X21710000Y-16985000D03*
X21710000Y-20885000D03*
%TD*%
D14*
%TO.C,C9*%
X28200000Y-52250000D03*
X28200000Y-49300000D03*
%TD*%
D15*
%TO.C,C12*%
X20700000Y-52250000D03*
X20700000Y-49300000D03*
%TD*%
D16*
%TO.C,R3*%
X23150000Y-24105000D03*
X23150000Y-23145000D03*
%TD*%
D17*
%TO.C,R6*%
X26305000Y-52625000D03*
X25345000Y-52625000D03*
%TD*%
%TO.C,R7*%
X23955000Y-52625000D03*
X22995000Y-52625000D03*
%TD*%
D18*
%TO.C,U3*%
X24500000Y-49280000D03*
X24500000Y-50250000D03*
X24500000Y-51220000D03*
D19*
X23150000Y-49050000D03*
X23150000Y-49650000D03*
X23150000Y-50250000D03*
X23150000Y-50850000D03*
X23150000Y-51450000D03*
X26200000Y-51450000D03*
X26200000Y-50850000D03*
X26200000Y-50250000D03*
X26200000Y-49650000D03*
X26200000Y-49050000D03*
%TD*%
D20*
%TO.C,C5*%
X20550000Y-41440000D03*
X20550000Y-42990000D03*
%TD*%
%TO.C,FB1*%
X22050000Y-41440000D03*
X22050000Y-42990000D03*
%TD*%
D21*
%TO.C,C7*%
X28270000Y-31650000D03*
X29230000Y-31650000D03*
%TD*%
D22*
%TO.C,Y1*%
X28600000Y-30400000D03*
X28600000Y-27900000D03*
%TD*%
D21*
%TO.C,C8*%
X28270000Y-26650000D03*
X29230000Y-26650000D03*
%TD*%
D16*
%TO.C,R4*%
X24100000Y-24105000D03*
X24100000Y-23145000D03*
%TD*%
%TO.C,R5*%
X19350000Y-24105000D03*
X19350000Y-23145000D03*
%TD*%
D23*
%TO.C,U2*%
X26650000Y-41789200D03*
X27600000Y-41789200D03*
X28550000Y-41789200D03*
X28550000Y-39589200D03*
X26650000Y-39589200D03*
%TD*%
D16*
%TO.C,C1*%
X21250000Y-24105000D03*
X21250000Y-23145000D03*
%TD*%
D21*
%TO.C,C4*%
X28270000Y-34000000D03*
X29230000Y-34000000D03*
%TD*%
D24*
%TO.C,D1*%
X28700000Y-20062500D03*
X28700000Y-21637500D03*
%TD*%
D16*
%TO.C,R2*%
X20300000Y-24105000D03*
X20300000Y-23145000D03*
%TD*%
D25*
%TO.C,C11*%
X25300000Y-39559200D03*
X25300000Y-40519200D03*
%TD*%
D24*
%TO.C,D2*%
X19800000Y-20062500D03*
X19800000Y-21637500D03*
%TD*%
D21*
%TO.C,C10*%
X26645000Y-43089200D03*
X27605000Y-43089200D03*
%TD*%
D17*
%TO.C,C6*%
X20230000Y-32500000D03*
X19270000Y-32500000D03*
%TD*%
D16*
%TO.C,R1*%
X22200000Y-24105000D03*
X22200000Y-23145000D03*
%TD*%
D21*
%TO.C,C3*%
X28270000Y-33050000D03*
X29230000Y-33050000D03*
%TD*%
D26*
%TO.C,C2*%
X23550000Y-42990000D03*
X23550000Y-41440000D03*
%TD*%
D27*
%TO.C,SW1*%
X20150000Y-29825000D03*
X26150000Y-29825000D03*
X26150000Y-26075000D03*
X20150000Y-26075000D03*
%TD*%
M02*
