%TF.GenerationSoftware,KiCad,Pcbnew,(6.0.4)*%
%TF.CreationDate,2022-05-03T13:51:14+02:00*%
%TF.ProjectId,nano_samc21e,6e616e6f-5f73-4616-9d63-3231652e6b69,rev?*%
%TF.SameCoordinates,Original*%
%TF.FileFunction,Legend,Bot*%
%TF.FilePolarity,Positive*%
%FSLAX46Y46*%
G04 Gerber Fmt 4.6, Leading zero omitted, Abs format (unit mm)*
G04 Created by KiCad (PCBNEW (6.0.4)) date 2022-05-03 13:51:14*
%MOMM*%
%LPD*%
G01*
G04 APERTURE LIST*
%ADD10C,0.153000*%
%ADD11C,0.150000*%
%ADD12C,0.010000*%
%ADD13C,1.800000*%
%ADD14O,1.800000X1.800000*%
%ADD15C,1.900000*%
%ADD16C,1.448000*%
G04 APERTURE END LIST*
D10*
X28869047Y-51852380D02*
X28869047Y-52566666D01*
X28916666Y-52709523D01*
X29011904Y-52804761D01*
X29154761Y-52852380D01*
X29250000Y-52852380D01*
X27916666Y-52852380D02*
X28392857Y-52852380D01*
X28392857Y-51852380D01*
X27011904Y-52757142D02*
X27059523Y-52804761D01*
X27202380Y-52852380D01*
X27297619Y-52852380D01*
X27440476Y-52804761D01*
X27535714Y-52709523D01*
X27583333Y-52614285D01*
X27630952Y-52423809D01*
X27630952Y-52280952D01*
X27583333Y-52090476D01*
X27535714Y-51995238D01*
X27440476Y-51900000D01*
X27297619Y-51852380D01*
X27202380Y-51852380D01*
X27059523Y-51900000D01*
X27011904Y-51947619D01*
X26297619Y-51852380D02*
X26297619Y-52566666D01*
X26345238Y-52709523D01*
X26440476Y-52804761D01*
X26583333Y-52852380D01*
X26678571Y-52852380D01*
X25345238Y-52852380D02*
X25821428Y-52852380D01*
X25821428Y-51852380D01*
X24440476Y-52757142D02*
X24488095Y-52804761D01*
X24630952Y-52852380D01*
X24726190Y-52852380D01*
X24869047Y-52804761D01*
X24964285Y-52709523D01*
X25011904Y-52614285D01*
X25059523Y-52423809D01*
X25059523Y-52280952D01*
X25011904Y-52090476D01*
X24964285Y-51995238D01*
X24869047Y-51900000D01*
X24726190Y-51852380D01*
X24630952Y-51852380D01*
X24488095Y-51900000D01*
X24440476Y-51947619D01*
X23726190Y-51852380D02*
X23726190Y-52566666D01*
X23773809Y-52709523D01*
X23869047Y-52804761D01*
X24011904Y-52852380D01*
X24107142Y-52852380D01*
X22773809Y-52852380D02*
X23250000Y-52852380D01*
X23250000Y-51852380D01*
X21869047Y-52757142D02*
X21916666Y-52804761D01*
X22059523Y-52852380D01*
X22154761Y-52852380D01*
X22297619Y-52804761D01*
X22392857Y-52709523D01*
X22440476Y-52614285D01*
X22488095Y-52423809D01*
X22488095Y-52280952D01*
X22440476Y-52090476D01*
X22392857Y-51995238D01*
X22297619Y-51900000D01*
X22154761Y-51852380D01*
X22059523Y-51852380D01*
X21916666Y-51900000D01*
X21869047Y-51947619D01*
X21154761Y-51852380D02*
X21154761Y-52566666D01*
X21202380Y-52709523D01*
X21297619Y-52804761D01*
X21440476Y-52852380D01*
X21535714Y-52852380D01*
X20202380Y-52852380D02*
X20678571Y-52852380D01*
X20678571Y-51852380D01*
X19297619Y-52757142D02*
X19345238Y-52804761D01*
X19488095Y-52852380D01*
X19583333Y-52852380D01*
X19726190Y-52804761D01*
X19821428Y-52709523D01*
X19869047Y-52614285D01*
X19916666Y-52423809D01*
X19916666Y-52280952D01*
X19869047Y-52090476D01*
X19821428Y-51995238D01*
X19726190Y-51900000D01*
X19583333Y-51852380D01*
X19488095Y-51852380D01*
X19345238Y-51900000D01*
X19297619Y-51947619D01*
D11*
%TO.C,*%
D10*
X30752707Y-46404523D02*
X30276517Y-46121190D01*
X30752707Y-45918809D02*
X29752707Y-45918809D01*
X29752707Y-46242619D01*
X29800327Y-46323571D01*
X29847946Y-46364047D01*
X29943184Y-46404523D01*
X30086041Y-46404523D01*
X30181279Y-46364047D01*
X30228898Y-46323571D01*
X30276517Y-46242619D01*
X30276517Y-45918809D01*
X30705088Y-46728333D02*
X30752707Y-46849761D01*
X30752707Y-47052142D01*
X30705088Y-47133095D01*
X30657469Y-47173571D01*
X30562231Y-47214047D01*
X30466993Y-47214047D01*
X30371755Y-47173571D01*
X30324136Y-47133095D01*
X30276517Y-47052142D01*
X30228898Y-46890238D01*
X30181279Y-46809285D01*
X30133660Y-46768809D01*
X30038422Y-46728333D01*
X29943184Y-46728333D01*
X29847946Y-46768809D01*
X29800327Y-46809285D01*
X29752707Y-46890238D01*
X29752707Y-47092619D01*
X29800327Y-47214047D01*
X29752707Y-47456904D02*
X29752707Y-47942619D01*
X30752707Y-47699761D02*
X29752707Y-47699761D01*
X18700000Y-50057619D02*
X18747619Y-50138571D01*
X18747619Y-50260000D01*
X18700000Y-50381428D01*
X18604761Y-50462380D01*
X18509523Y-50502857D01*
X18319047Y-50543333D01*
X18176190Y-50543333D01*
X17985714Y-50502857D01*
X17890476Y-50462380D01*
X17795238Y-50381428D01*
X17747619Y-50260000D01*
X17747619Y-50179047D01*
X17795238Y-50057619D01*
X17842857Y-50017142D01*
X18176190Y-50017142D01*
X18176190Y-50179047D01*
X17747619Y-49652857D02*
X18747619Y-49652857D01*
X17747619Y-49167142D01*
X18747619Y-49167142D01*
X17747619Y-48762380D02*
X18747619Y-48762380D01*
X18747619Y-48560000D01*
X18700000Y-48438571D01*
X18604761Y-48357619D01*
X18509523Y-48317142D01*
X18319047Y-48276666D01*
X18176190Y-48276666D01*
X17985714Y-48317142D01*
X17890476Y-48357619D01*
X17795238Y-48438571D01*
X17747619Y-48560000D01*
X17747619Y-48762380D01*
X29847946Y-41142380D02*
X29800327Y-41182857D01*
X29752707Y-41263809D01*
X29752707Y-41466190D01*
X29800327Y-41547142D01*
X29847946Y-41587619D01*
X29943184Y-41628095D01*
X30038422Y-41628095D01*
X30181279Y-41587619D01*
X30752707Y-41101904D01*
X30752707Y-41628095D01*
X30086041Y-42356666D02*
X30752707Y-42356666D01*
X29705088Y-42154285D02*
X30419374Y-41951904D01*
X30419374Y-42478095D01*
X29847946Y-38602380D02*
X29800327Y-38642857D01*
X29752707Y-38723809D01*
X29752707Y-38926190D01*
X29800327Y-39007142D01*
X29847946Y-39047619D01*
X29943184Y-39088095D01*
X30038422Y-39088095D01*
X30181279Y-39047619D01*
X30752707Y-38561904D01*
X30752707Y-39088095D01*
X29752707Y-39857142D02*
X29752707Y-39452380D01*
X30228898Y-39411904D01*
X30181279Y-39452380D01*
X30133660Y-39533333D01*
X30133660Y-39735714D01*
X30181279Y-39816666D01*
X30228898Y-39857142D01*
X30324136Y-39897619D01*
X30562231Y-39897619D01*
X30657469Y-39857142D01*
X30705088Y-39816666D01*
X30752707Y-39735714D01*
X30752707Y-39533333D01*
X30705088Y-39452380D01*
X30657469Y-39411904D01*
X29847946Y-33522380D02*
X29800327Y-33562857D01*
X29752707Y-33643809D01*
X29752707Y-33846190D01*
X29800327Y-33927142D01*
X29847946Y-33967619D01*
X29943184Y-34008095D01*
X30038422Y-34008095D01*
X30181279Y-33967619D01*
X30752707Y-33481904D01*
X30752707Y-34008095D01*
X30181279Y-34493809D02*
X30133660Y-34412857D01*
X30086041Y-34372380D01*
X29990803Y-34331904D01*
X29943184Y-34331904D01*
X29847946Y-34372380D01*
X29800327Y-34412857D01*
X29752707Y-34493809D01*
X29752707Y-34655714D01*
X29800327Y-34736666D01*
X29847946Y-34777142D01*
X29943184Y-34817619D01*
X29990803Y-34817619D01*
X30086041Y-34777142D01*
X30133660Y-34736666D01*
X30181279Y-34655714D01*
X30181279Y-34493809D01*
X30228898Y-34412857D01*
X30276517Y-34372380D01*
X30371755Y-34331904D01*
X30562231Y-34331904D01*
X30657469Y-34372380D01*
X30705088Y-34412857D01*
X30752707Y-34493809D01*
X30752707Y-34655714D01*
X30705088Y-34736666D01*
X30657469Y-34777142D01*
X30562231Y-34817619D01*
X30371755Y-34817619D01*
X30276517Y-34777142D01*
X30228898Y-34736666D01*
X30181279Y-34655714D01*
X17747619Y-16551904D02*
X17747619Y-17037619D01*
X17747619Y-16794761D02*
X18747619Y-16794761D01*
X18604761Y-16875714D01*
X18509523Y-16956666D01*
X18461904Y-17037619D01*
X18747619Y-16268571D02*
X18747619Y-15701904D01*
X17747619Y-16066190D01*
X17747619Y-47335476D02*
X18223809Y-47618809D01*
X17747619Y-47821190D02*
X18747619Y-47821190D01*
X18747619Y-47497380D01*
X18700000Y-47416428D01*
X18652380Y-47375952D01*
X18557142Y-47335476D01*
X18414285Y-47335476D01*
X18319047Y-47375952D01*
X18271428Y-47416428D01*
X18223809Y-47497380D01*
X18223809Y-47821190D01*
X17795238Y-47011666D02*
X17747619Y-46890238D01*
X17747619Y-46687857D01*
X17795238Y-46606904D01*
X17842857Y-46566428D01*
X17938095Y-46525952D01*
X18033333Y-46525952D01*
X18128571Y-46566428D01*
X18176190Y-46606904D01*
X18223809Y-46687857D01*
X18271428Y-46849761D01*
X18319047Y-46930714D01*
X18366666Y-46971190D01*
X18461904Y-47011666D01*
X18557142Y-47011666D01*
X18652380Y-46971190D01*
X18700000Y-46930714D01*
X18747619Y-46849761D01*
X18747619Y-46647380D01*
X18700000Y-46525952D01*
X18747619Y-46283095D02*
X18747619Y-45797380D01*
X17747619Y-46040238D02*
X18747619Y-46040238D01*
X30752707Y-26388095D02*
X30752707Y-25902380D01*
X30752707Y-26145238D02*
X29752707Y-26145238D01*
X29895565Y-26064285D01*
X29990803Y-25983333D01*
X30038422Y-25902380D01*
X29752707Y-27157142D02*
X29752707Y-26752380D01*
X30228898Y-26711904D01*
X30181279Y-26752380D01*
X30133660Y-26833333D01*
X30133660Y-27035714D01*
X30181279Y-27116666D01*
X30228898Y-27157142D01*
X30324136Y-27197619D01*
X30562231Y-27197619D01*
X30657469Y-27157142D01*
X30705088Y-27116666D01*
X30752707Y-27035714D01*
X30752707Y-26833333D01*
X30705088Y-26752380D01*
X30657469Y-26711904D01*
X17747619Y-41951904D02*
X17747619Y-42437619D01*
X17747619Y-42194761D02*
X18747619Y-42194761D01*
X18604761Y-42275714D01*
X18509523Y-42356666D01*
X18461904Y-42437619D01*
X17747619Y-41142380D02*
X17747619Y-41628095D01*
X17747619Y-41385238D02*
X18747619Y-41385238D01*
X18604761Y-41466190D01*
X18509523Y-41547142D01*
X18461904Y-41628095D01*
X29847946Y-48762380D02*
X29800327Y-48802857D01*
X29752707Y-48883809D01*
X29752707Y-49086190D01*
X29800327Y-49167142D01*
X29847946Y-49207619D01*
X29943184Y-49248095D01*
X30038422Y-49248095D01*
X30181279Y-49207619D01*
X30752707Y-48721904D01*
X30752707Y-49248095D01*
X29752707Y-49531428D02*
X29752707Y-50057619D01*
X30133660Y-49774285D01*
X30133660Y-49895714D01*
X30181279Y-49976666D01*
X30228898Y-50017142D01*
X30324136Y-50057619D01*
X30562231Y-50057619D01*
X30657469Y-50017142D01*
X30705088Y-49976666D01*
X30752707Y-49895714D01*
X30752707Y-49652857D01*
X30705088Y-49571904D01*
X30657469Y-49531428D01*
X17747619Y-39411904D02*
X17747619Y-39897619D01*
X17747619Y-39654761D02*
X18747619Y-39654761D01*
X18604761Y-39735714D01*
X18509523Y-39816666D01*
X18461904Y-39897619D01*
X18747619Y-38885714D02*
X18747619Y-38804761D01*
X18700000Y-38723809D01*
X18652380Y-38683333D01*
X18557142Y-38642857D01*
X18366666Y-38602380D01*
X18128571Y-38602380D01*
X17938095Y-38642857D01*
X17842857Y-38683333D01*
X17795238Y-38723809D01*
X17747619Y-38804761D01*
X17747619Y-38885714D01*
X17795238Y-38966666D01*
X17842857Y-39007142D01*
X17938095Y-39047619D01*
X18128571Y-39088095D01*
X18366666Y-39088095D01*
X18557142Y-39047619D01*
X18652380Y-39007142D01*
X18700000Y-38966666D01*
X18747619Y-38885714D01*
X18747619Y-34615238D02*
X18747619Y-34534285D01*
X18700000Y-34453333D01*
X18652380Y-34412857D01*
X18557142Y-34372380D01*
X18366666Y-34331904D01*
X18128571Y-34331904D01*
X17938095Y-34372380D01*
X17842857Y-34412857D01*
X17795238Y-34453333D01*
X17747619Y-34534285D01*
X17747619Y-34615238D01*
X17795238Y-34696190D01*
X17842857Y-34736666D01*
X17938095Y-34777142D01*
X18128571Y-34817619D01*
X18366666Y-34817619D01*
X18557142Y-34777142D01*
X18652380Y-34736666D01*
X18700000Y-34696190D01*
X18747619Y-34615238D01*
X18319047Y-33846190D02*
X18366666Y-33927142D01*
X18414285Y-33967619D01*
X18509523Y-34008095D01*
X18557142Y-34008095D01*
X18652380Y-33967619D01*
X18700000Y-33927142D01*
X18747619Y-33846190D01*
X18747619Y-33684285D01*
X18700000Y-33603333D01*
X18652380Y-33562857D01*
X18557142Y-33522380D01*
X18509523Y-33522380D01*
X18414285Y-33562857D01*
X18366666Y-33603333D01*
X18319047Y-33684285D01*
X18319047Y-33846190D01*
X18271428Y-33927142D01*
X18223809Y-33967619D01*
X18128571Y-34008095D01*
X17938095Y-34008095D01*
X17842857Y-33967619D01*
X17795238Y-33927142D01*
X17747619Y-33846190D01*
X17747619Y-33684285D01*
X17795238Y-33603333D01*
X17842857Y-33562857D01*
X17938095Y-33522380D01*
X18128571Y-33522380D01*
X18223809Y-33562857D01*
X18271428Y-33603333D01*
X18319047Y-33684285D01*
X18747619Y-32075238D02*
X18747619Y-31994285D01*
X18700000Y-31913333D01*
X18652380Y-31872857D01*
X18557142Y-31832380D01*
X18366666Y-31791904D01*
X18128571Y-31791904D01*
X17938095Y-31832380D01*
X17842857Y-31872857D01*
X17795238Y-31913333D01*
X17747619Y-31994285D01*
X17747619Y-32075238D01*
X17795238Y-32156190D01*
X17842857Y-32196666D01*
X17938095Y-32237142D01*
X18128571Y-32277619D01*
X18366666Y-32277619D01*
X18557142Y-32237142D01*
X18652380Y-32196666D01*
X18700000Y-32156190D01*
X18747619Y-32075238D01*
X18747619Y-31508571D02*
X18747619Y-30941904D01*
X17747619Y-31306190D01*
X30752707Y-16228095D02*
X30752707Y-15742380D01*
X30752707Y-15985238D02*
X29752707Y-15985238D01*
X29895565Y-15904285D01*
X29990803Y-15823333D01*
X30038422Y-15742380D01*
X29752707Y-16956666D02*
X29752707Y-16794761D01*
X29800327Y-16713809D01*
X29847946Y-16673333D01*
X29990803Y-16592380D01*
X30181279Y-16551904D01*
X30562231Y-16551904D01*
X30657469Y-16592380D01*
X30705088Y-16632857D01*
X30752707Y-16713809D01*
X30752707Y-16875714D01*
X30705088Y-16956666D01*
X30657469Y-16997142D01*
X30562231Y-17037619D01*
X30324136Y-17037619D01*
X30228898Y-16997142D01*
X30181279Y-16956666D01*
X30133660Y-16875714D01*
X30133660Y-16713809D01*
X30181279Y-16632857D01*
X30228898Y-16592380D01*
X30324136Y-16551904D01*
X18731280Y-24455238D02*
X18731280Y-24374285D01*
X18683661Y-24293333D01*
X18636041Y-24252857D01*
X18540803Y-24212380D01*
X18350327Y-24171904D01*
X18112232Y-24171904D01*
X17921756Y-24212380D01*
X17826518Y-24252857D01*
X17778899Y-24293333D01*
X17731280Y-24374285D01*
X17731280Y-24455238D01*
X17778899Y-24536190D01*
X17826518Y-24576666D01*
X17921756Y-24617142D01*
X18112232Y-24657619D01*
X18350327Y-24657619D01*
X18540803Y-24617142D01*
X18636041Y-24576666D01*
X18683661Y-24536190D01*
X18731280Y-24455238D01*
X18397946Y-23443333D02*
X17731280Y-23443333D01*
X18778899Y-23645714D02*
X18064613Y-23848095D01*
X18064613Y-23321904D01*
X18747619Y-26995238D02*
X18747619Y-26914285D01*
X18700000Y-26833333D01*
X18652380Y-26792857D01*
X18557142Y-26752380D01*
X18366666Y-26711904D01*
X18128571Y-26711904D01*
X17938095Y-26752380D01*
X17842857Y-26792857D01*
X17795238Y-26833333D01*
X17747619Y-26914285D01*
X17747619Y-26995238D01*
X17795238Y-27076190D01*
X17842857Y-27116666D01*
X17938095Y-27157142D01*
X18128571Y-27197619D01*
X18366666Y-27197619D01*
X18557142Y-27157142D01*
X18652380Y-27116666D01*
X18700000Y-27076190D01*
X18747619Y-26995238D01*
X18747619Y-25942857D02*
X18747619Y-26347619D01*
X18271428Y-26388095D01*
X18319047Y-26347619D01*
X18366666Y-26266666D01*
X18366666Y-26064285D01*
X18319047Y-25983333D01*
X18271428Y-25942857D01*
X18176190Y-25902380D01*
X17938095Y-25902380D01*
X17842857Y-25942857D01*
X17795238Y-25983333D01*
X17747619Y-26064285D01*
X17747619Y-26266666D01*
X17795238Y-26347619D01*
X17842857Y-26388095D01*
X30752380Y-21308095D02*
X30752380Y-20822380D01*
X30752380Y-21065238D02*
X29752380Y-21065238D01*
X29895238Y-20984285D01*
X29990476Y-20903333D01*
X30038095Y-20822380D01*
X30180952Y-21793809D02*
X30133333Y-21712857D01*
X30085714Y-21672380D01*
X29990476Y-21631904D01*
X29942857Y-21631904D01*
X29847619Y-21672380D01*
X29800000Y-21712857D01*
X29752380Y-21793809D01*
X29752380Y-21955714D01*
X29800000Y-22036666D01*
X29847619Y-22077142D01*
X29942857Y-22117619D01*
X29990476Y-22117619D01*
X30085714Y-22077142D01*
X30133333Y-22036666D01*
X30180952Y-21955714D01*
X30180952Y-21793809D01*
X30228571Y-21712857D01*
X30276190Y-21672380D01*
X30371428Y-21631904D01*
X30561904Y-21631904D01*
X30657142Y-21672380D01*
X30704761Y-21712857D01*
X30752380Y-21793809D01*
X30752380Y-21955714D01*
X30704761Y-22036666D01*
X30657142Y-22077142D01*
X30561904Y-22117619D01*
X30371428Y-22117619D01*
X30276190Y-22077142D01*
X30228571Y-22036666D01*
X30180952Y-21955714D01*
X30752380Y-28928095D02*
X30752380Y-28442380D01*
X30752380Y-28685238D02*
X29752380Y-28685238D01*
X29895238Y-28604285D01*
X29990476Y-28523333D01*
X30038095Y-28442380D01*
X30085714Y-29656666D02*
X30752380Y-29656666D01*
X29704761Y-29454285D02*
X30419047Y-29251904D01*
X30419047Y-29778095D01*
X29847946Y-51302380D02*
X29800327Y-51342857D01*
X29752707Y-51423809D01*
X29752707Y-51626190D01*
X29800327Y-51707142D01*
X29847946Y-51747619D01*
X29943184Y-51788095D01*
X30038422Y-51788095D01*
X30181279Y-51747619D01*
X30752707Y-51261904D01*
X30752707Y-51788095D01*
X29847946Y-52111904D02*
X29800327Y-52152380D01*
X29752707Y-52233333D01*
X29752707Y-52435714D01*
X29800327Y-52516666D01*
X29847946Y-52557142D01*
X29943184Y-52597619D01*
X30038422Y-52597619D01*
X30181279Y-52557142D01*
X30752707Y-52071428D01*
X30752707Y-52597619D01*
X18747619Y-29535238D02*
X18747619Y-29454285D01*
X18700000Y-29373333D01*
X18652380Y-29332857D01*
X18557142Y-29292380D01*
X18366666Y-29251904D01*
X18128571Y-29251904D01*
X17938095Y-29292380D01*
X17842857Y-29332857D01*
X17795238Y-29373333D01*
X17747619Y-29454285D01*
X17747619Y-29535238D01*
X17795238Y-29616190D01*
X17842857Y-29656666D01*
X17938095Y-29697142D01*
X18128571Y-29737619D01*
X18366666Y-29737619D01*
X18557142Y-29697142D01*
X18652380Y-29656666D01*
X18700000Y-29616190D01*
X18747619Y-29535238D01*
X18747619Y-28523333D02*
X18747619Y-28685238D01*
X18700000Y-28766190D01*
X18652380Y-28806666D01*
X18509523Y-28887619D01*
X18319047Y-28928095D01*
X17938095Y-28928095D01*
X17842857Y-28887619D01*
X17795238Y-28847142D01*
X17747619Y-28766190D01*
X17747619Y-28604285D01*
X17795238Y-28523333D01*
X17842857Y-28482857D01*
X17938095Y-28442380D01*
X18176190Y-28442380D01*
X18271428Y-28482857D01*
X18319047Y-28523333D01*
X18366666Y-28604285D01*
X18366666Y-28766190D01*
X18319047Y-28847142D01*
X18271428Y-28887619D01*
X18176190Y-28928095D01*
X18747619Y-37155238D02*
X18747619Y-37074285D01*
X18700000Y-36993333D01*
X18652380Y-36952857D01*
X18557142Y-36912380D01*
X18366666Y-36871904D01*
X18128571Y-36871904D01*
X17938095Y-36912380D01*
X17842857Y-36952857D01*
X17795238Y-36993333D01*
X17747619Y-37074285D01*
X17747619Y-37155238D01*
X17795238Y-37236190D01*
X17842857Y-37276666D01*
X17938095Y-37317142D01*
X18128571Y-37357619D01*
X18366666Y-37357619D01*
X18557142Y-37317142D01*
X18652380Y-37276666D01*
X18700000Y-37236190D01*
X18747619Y-37155238D01*
X17747619Y-36467142D02*
X17747619Y-36305238D01*
X17795238Y-36224285D01*
X17842857Y-36183809D01*
X17985714Y-36102857D01*
X18176190Y-36062380D01*
X18557142Y-36062380D01*
X18652380Y-36102857D01*
X18700000Y-36143333D01*
X18747619Y-36224285D01*
X18747619Y-36386190D01*
X18700000Y-36467142D01*
X18652380Y-36507619D01*
X18557142Y-36548095D01*
X18319047Y-36548095D01*
X18223809Y-36507619D01*
X18176190Y-36467142D01*
X18128571Y-36386190D01*
X18128571Y-36224285D01*
X18176190Y-36143333D01*
X18223809Y-36102857D01*
X18319047Y-36062380D01*
X29800327Y-43682380D02*
X29752707Y-43601428D01*
X29752707Y-43480000D01*
X29800327Y-43358571D01*
X29895565Y-43277619D01*
X29990803Y-43237142D01*
X30181279Y-43196666D01*
X30324136Y-43196666D01*
X30514612Y-43237142D01*
X30609850Y-43277619D01*
X30705088Y-43358571D01*
X30752707Y-43480000D01*
X30752707Y-43560952D01*
X30705088Y-43682380D01*
X30657469Y-43722857D01*
X30324136Y-43722857D01*
X30324136Y-43560952D01*
X30752707Y-44087142D02*
X29752707Y-44087142D01*
X30752707Y-44572857D01*
X29752707Y-44572857D01*
X30752707Y-44977619D02*
X29752707Y-44977619D01*
X29752707Y-45180000D01*
X29800327Y-45301428D01*
X29895565Y-45382380D01*
X29990803Y-45422857D01*
X30181279Y-45463333D01*
X30324136Y-45463333D01*
X30514612Y-45422857D01*
X30609850Y-45382380D01*
X30705088Y-45301428D01*
X30752707Y-45180000D01*
X30752707Y-44977619D01*
X29847946Y-36062380D02*
X29800327Y-36102857D01*
X29752707Y-36183809D01*
X29752707Y-36386190D01*
X29800327Y-36467142D01*
X29847946Y-36507619D01*
X29943184Y-36548095D01*
X30038422Y-36548095D01*
X30181279Y-36507619D01*
X30752707Y-36021904D01*
X30752707Y-36548095D01*
X29752707Y-36831428D02*
X29752707Y-37398095D01*
X30752707Y-37033809D01*
X29752380Y-23564761D02*
X29752380Y-23645714D01*
X29800000Y-23726666D01*
X29847619Y-23767142D01*
X29942857Y-23807619D01*
X30133333Y-23848095D01*
X30371428Y-23848095D01*
X30561904Y-23807619D01*
X30657142Y-23767142D01*
X30704761Y-23726666D01*
X30752380Y-23645714D01*
X30752380Y-23564761D01*
X30704761Y-23483809D01*
X30657142Y-23443333D01*
X30561904Y-23402857D01*
X30371428Y-23362380D01*
X30133333Y-23362380D01*
X29942857Y-23402857D01*
X29847619Y-23443333D01*
X29800000Y-23483809D01*
X29752380Y-23564761D01*
X29847619Y-24171904D02*
X29800000Y-24212380D01*
X29752380Y-24293333D01*
X29752380Y-24495714D01*
X29800000Y-24576666D01*
X29847619Y-24617142D01*
X29942857Y-24657619D01*
X30038095Y-24657619D01*
X30180952Y-24617142D01*
X30752380Y-24131428D01*
X30752380Y-24657619D01*
X18747618Y-19982380D02*
X18747618Y-19456190D01*
X18366665Y-19739523D01*
X18366665Y-19618095D01*
X18319046Y-19537142D01*
X18271427Y-19496666D01*
X18176189Y-19456190D01*
X17938094Y-19456190D01*
X17842856Y-19496666D01*
X17795237Y-19537142D01*
X17747618Y-19618095D01*
X17747618Y-19860952D01*
X17795237Y-19941904D01*
X17842856Y-19982380D01*
X18747618Y-19213333D02*
X17747618Y-18930000D01*
X18747618Y-18646666D01*
X18747618Y-18444285D02*
X18747618Y-17918095D01*
X18366665Y-18201428D01*
X18366665Y-18080000D01*
X18319046Y-17999047D01*
X18271427Y-17958571D01*
X18176189Y-17918095D01*
X17938094Y-17918095D01*
X17842856Y-17958571D01*
X17795237Y-17999047D01*
X17747618Y-18080000D01*
X17747618Y-18322857D01*
X17795237Y-18403809D01*
X17842856Y-18444285D01*
X18747619Y-52880952D02*
X17747619Y-52597619D01*
X18747619Y-52314285D01*
X17747619Y-52030952D02*
X18747619Y-52030952D01*
X17747619Y-51626190D02*
X18747619Y-51626190D01*
X17747619Y-51140476D01*
X18747619Y-51140476D01*
X18747619Y-44491904D02*
X18747619Y-44896666D01*
X18271428Y-44937142D01*
X18319047Y-44896666D01*
X18366666Y-44815714D01*
X18366666Y-44613333D01*
X18319047Y-44532380D01*
X18271428Y-44491904D01*
X18176190Y-44451428D01*
X17938095Y-44451428D01*
X17842857Y-44491904D01*
X17795238Y-44532380D01*
X17747619Y-44613333D01*
X17747619Y-44815714D01*
X17795238Y-44896666D01*
X17842857Y-44937142D01*
X18747619Y-44208571D02*
X17747619Y-43925238D01*
X18747619Y-43641904D01*
X30752707Y-18768095D02*
X30752707Y-18282380D01*
X30752707Y-18525238D02*
X29752707Y-18525238D01*
X29895565Y-18444285D01*
X29990803Y-18363333D01*
X30038422Y-18282380D01*
X30752707Y-19172857D02*
X30752707Y-19334761D01*
X30705088Y-19415714D01*
X30657469Y-19456190D01*
X30514612Y-19537142D01*
X30324136Y-19577619D01*
X29943184Y-19577619D01*
X29847946Y-19537142D01*
X29800327Y-19496666D01*
X29752707Y-19415714D01*
X29752707Y-19253809D01*
X29800327Y-19172857D01*
X29847946Y-19132380D01*
X29943184Y-19091904D01*
X30181279Y-19091904D01*
X30276517Y-19132380D01*
X30324136Y-19172857D01*
X30371755Y-19253809D01*
X30371755Y-19415714D01*
X30324136Y-19496666D01*
X30276517Y-19537142D01*
X30181279Y-19577619D01*
X29752380Y-30941904D02*
X29752380Y-31468095D01*
X30133333Y-31184761D01*
X30133333Y-31306190D01*
X30180952Y-31387142D01*
X30228571Y-31427619D01*
X30323809Y-31468095D01*
X30561904Y-31468095D01*
X30657142Y-31427619D01*
X30704761Y-31387142D01*
X30752380Y-31306190D01*
X30752380Y-31063333D01*
X30704761Y-30982380D01*
X30657142Y-30941904D01*
X30752380Y-32277619D02*
X30752380Y-31791904D01*
X30752380Y-32034761D02*
X29752380Y-32034761D01*
X29895238Y-31953809D01*
X29990476Y-31872857D01*
X30038095Y-31791904D01*
X18731280Y-21915238D02*
X18731280Y-21834285D01*
X18683661Y-21753333D01*
X18636041Y-21712857D01*
X18540803Y-21672380D01*
X18350327Y-21631904D01*
X18112232Y-21631904D01*
X17921756Y-21672380D01*
X17826518Y-21712857D01*
X17778899Y-21753333D01*
X17731280Y-21834285D01*
X17731280Y-21915238D01*
X17778899Y-21996190D01*
X17826518Y-22036666D01*
X17921756Y-22077142D01*
X18112232Y-22117619D01*
X18350327Y-22117619D01*
X18540803Y-22077142D01*
X18636041Y-22036666D01*
X18683661Y-21996190D01*
X18731280Y-21915238D01*
X18731280Y-21348571D02*
X18731280Y-20822380D01*
X18350327Y-21105714D01*
X18350327Y-20984285D01*
X18302708Y-20903333D01*
X18255089Y-20862857D01*
X18159851Y-20822380D01*
X17921756Y-20822380D01*
X17826518Y-20862857D01*
X17778899Y-20903333D01*
X17731280Y-20984285D01*
X17731280Y-21227142D01*
X17778899Y-21308095D01*
X17826518Y-21348571D01*
%TO.C,FID6*%
G36*
X22299802Y-50922971D02*
G01*
X21432178Y-50922971D01*
X21432178Y-47402178D01*
X22299802Y-47402178D01*
X22299802Y-50922971D01*
G37*
D12*
X22299802Y-50922971D02*
X21432178Y-50922971D01*
X21432178Y-47402178D01*
X22299802Y-47402178D01*
X22299802Y-50922971D01*
G36*
X26689304Y-50161662D02*
G01*
X26688218Y-50201314D01*
X26688218Y-50269109D01*
X26575049Y-50269109D01*
X26575049Y-50109577D01*
X26397268Y-50094682D01*
X26372963Y-50092682D01*
X26312120Y-50088023D01*
X26262611Y-50084731D01*
X26229008Y-50083092D01*
X26215884Y-50083390D01*
X26219657Y-50087724D01*
X26239324Y-50107496D01*
X26274182Y-50141679D01*
X26322424Y-50188541D01*
X26382243Y-50246354D01*
X26451833Y-50313387D01*
X26529385Y-50387912D01*
X26613093Y-50468197D01*
X26701151Y-50552513D01*
X26791750Y-50639130D01*
X26883085Y-50726319D01*
X26973347Y-50812349D01*
X27060731Y-50895492D01*
X27143428Y-50974016D01*
X27219632Y-51046192D01*
X27287537Y-51110291D01*
X27345334Y-51164583D01*
X27448960Y-51261592D01*
X27360685Y-51262034D01*
X27272411Y-51262475D01*
X26640842Y-50661938D01*
X26009274Y-50061401D01*
X25865326Y-50049396D01*
X25289365Y-50001365D01*
X25187209Y-49992876D01*
X25059388Y-49982343D01*
X24940233Y-49972621D01*
X24832086Y-49963898D01*
X24737287Y-49956358D01*
X24658181Y-49950187D01*
X24597108Y-49945573D01*
X24556410Y-49942700D01*
X24538430Y-49941754D01*
X24530192Y-49944251D01*
X24512401Y-49955471D01*
X24485589Y-49976751D01*
X24473871Y-49987021D01*
X24448534Y-50009225D01*
X24400014Y-50054023D01*
X24338808Y-50112281D01*
X24263693Y-50185129D01*
X24173450Y-50273703D01*
X24066855Y-50379134D01*
X23996907Y-50448492D01*
X23899342Y-50545179D01*
X23802059Y-50641526D01*
X23707986Y-50734638D01*
X23620050Y-50821618D01*
X23541180Y-50899569D01*
X23474301Y-50965596D01*
X23422342Y-51016802D01*
X23218380Y-51217514D01*
X23180329Y-51181058D01*
X23171755Y-51172460D01*
X23150703Y-51147095D01*
X23142277Y-51129695D01*
X23149470Y-51116071D01*
X23171056Y-51090743D01*
X23202005Y-51060379D01*
X23221552Y-51041896D01*
X23257248Y-51007427D01*
X23307316Y-50958712D01*
X23369999Y-50897469D01*
X23443543Y-50825420D01*
X23526190Y-50744285D01*
X23616185Y-50655784D01*
X23711772Y-50561637D01*
X23811195Y-50463565D01*
X24360657Y-49921161D01*
X24075254Y-49899066D01*
X24014338Y-49894250D01*
X23932452Y-49887216D01*
X23870431Y-49880872D01*
X23825013Y-49874748D01*
X23792938Y-49868373D01*
X23770948Y-49861277D01*
X23755781Y-49852991D01*
X23734584Y-49841393D01*
X23695614Y-49831850D01*
X23639469Y-49829010D01*
X23557227Y-49829010D01*
X23557227Y-49823256D01*
X24657034Y-49823256D01*
X24660762Y-49827935D01*
X24670156Y-49829116D01*
X24685251Y-49829873D01*
X24724117Y-49832601D01*
X24783105Y-49837108D01*
X24859527Y-49843179D01*
X24950695Y-49850596D01*
X25053920Y-49859142D01*
X25166517Y-49868602D01*
X25285795Y-49878758D01*
X25390923Y-49887723D01*
X25501649Y-49897066D01*
X25602186Y-49905443D01*
X25690057Y-49912653D01*
X25762785Y-49918496D01*
X25817890Y-49922769D01*
X25852896Y-49925273D01*
X25865326Y-49925805D01*
X25865092Y-49925384D01*
X25853650Y-49913509D01*
X25826802Y-49887130D01*
X25786982Y-49848570D01*
X25736628Y-49800153D01*
X25678172Y-49744203D01*
X25614052Y-49683042D01*
X25546702Y-49618995D01*
X25478557Y-49554385D01*
X25412052Y-49491535D01*
X25349623Y-49432768D01*
X25293705Y-49380409D01*
X25185594Y-49279533D01*
X25183523Y-49277601D01*
X24908032Y-49553305D01*
X24840776Y-49620726D01*
X24777838Y-49684267D01*
X24729900Y-49733490D01*
X24695406Y-49770196D01*
X24672801Y-49796190D01*
X24660529Y-49813276D01*
X24657034Y-49823256D01*
X23557227Y-49823256D01*
X23557227Y-49750838D01*
X23846435Y-49750838D01*
X23874727Y-49757458D01*
X23881671Y-49758629D01*
X23912719Y-49762268D01*
X23962919Y-49767234D01*
X24028273Y-49773157D01*
X24104781Y-49779669D01*
X24188445Y-49786401D01*
X24473871Y-49808724D01*
X24779435Y-49507826D01*
X24835296Y-49452636D01*
X24903112Y-49385109D01*
X24963357Y-49324529D01*
X25013948Y-49273021D01*
X25052800Y-49232710D01*
X25077830Y-49205722D01*
X25086954Y-49194182D01*
X25082987Y-49187140D01*
X25282558Y-49187140D01*
X25285233Y-49191373D01*
X25303218Y-49211224D01*
X25336519Y-49245451D01*
X25383288Y-49292227D01*
X25441675Y-49349724D01*
X25509831Y-49416112D01*
X25585906Y-49489564D01*
X25668050Y-49568251D01*
X25751057Y-49647341D01*
X25832864Y-49724871D01*
X25899917Y-49787746D01*
X25953993Y-49837502D01*
X25996871Y-49875678D01*
X26030327Y-49903811D01*
X26056139Y-49923440D01*
X26076086Y-49936101D01*
X26091944Y-49943334D01*
X26105491Y-49946675D01*
X26112090Y-49947561D01*
X26148452Y-49951488D01*
X26201982Y-49956459D01*
X26266579Y-49961927D01*
X26336138Y-49967344D01*
X26360365Y-49969181D01*
X26425822Y-49974488D01*
X26482283Y-49979548D01*
X26524382Y-49983863D01*
X26546757Y-49986934D01*
X26575049Y-49992955D01*
X26575049Y-49948908D01*
X26688218Y-49948908D01*
X26688338Y-49965993D01*
X26690538Y-49991308D01*
X26697666Y-49998616D01*
X26712492Y-49992943D01*
X26715318Y-49991267D01*
X26737056Y-49972448D01*
X26761180Y-49945183D01*
X26780746Y-49917987D01*
X26788812Y-49899371D01*
X26787537Y-49897697D01*
X26770024Y-49893544D01*
X26738515Y-49891881D01*
X26688218Y-49891881D01*
X26688218Y-49948908D01*
X26575049Y-49948908D01*
X26575049Y-48274852D01*
X26527896Y-48279013D01*
X26506502Y-48280935D01*
X26448091Y-48286924D01*
X26409619Y-48292826D01*
X26387088Y-48299727D01*
X26376502Y-48308712D01*
X26373861Y-48320870D01*
X26372063Y-48331801D01*
X26363470Y-48339050D01*
X26343495Y-48343100D01*
X26307550Y-48344863D01*
X26251048Y-48345248D01*
X26128234Y-48345248D01*
X26088160Y-48385447D01*
X25990346Y-48483565D01*
X25852458Y-48621881D01*
X25958911Y-48621881D01*
X25958911Y-49376337D01*
X25720000Y-49376337D01*
X25720000Y-48757831D01*
X25503094Y-48967592D01*
X25461666Y-49007770D01*
X25404800Y-49063328D01*
X25355918Y-49111570D01*
X25317559Y-49149971D01*
X25292259Y-49176003D01*
X25282558Y-49187140D01*
X25082987Y-49187140D01*
X25082595Y-49186444D01*
X25062759Y-49163395D01*
X25029625Y-49128709D01*
X24986180Y-49085487D01*
X24935413Y-49036832D01*
X24921949Y-49024140D01*
X24861725Y-48967229D01*
X24790136Y-48899414D01*
X24712563Y-48825800D01*
X24634389Y-48751493D01*
X24560995Y-48681599D01*
X24556591Y-48677401D01*
X24488215Y-48612420D01*
X24435268Y-48562836D01*
X24395233Y-48526688D01*
X24365589Y-48502016D01*
X24343819Y-48486858D01*
X24327405Y-48479256D01*
X24313826Y-48477247D01*
X24300566Y-48478872D01*
X24299181Y-48479156D01*
X24267772Y-48492698D01*
X24253137Y-48519748D01*
X24221937Y-48603129D01*
X24169962Y-48677418D01*
X24101209Y-48735846D01*
X24018685Y-48775890D01*
X23925394Y-48795026D01*
X23846435Y-48801364D01*
X23846435Y-49750838D01*
X23557227Y-49750838D01*
X23557227Y-49602674D01*
X23733267Y-49602674D01*
X23733267Y-48757082D01*
X23677738Y-48708203D01*
X23663278Y-48694836D01*
X23605187Y-48622388D01*
X23569424Y-48540532D01*
X23558824Y-48463506D01*
X24516163Y-48463506D01*
X24520174Y-48469188D01*
X24539862Y-48490020D01*
X24573678Y-48523872D01*
X24619163Y-48568412D01*
X24673854Y-48621310D01*
X24735290Y-48680236D01*
X24801010Y-48742858D01*
X24868551Y-48806848D01*
X24935453Y-48869874D01*
X24999254Y-48929606D01*
X25057493Y-48983713D01*
X25107708Y-49029865D01*
X25147437Y-49065733D01*
X25174220Y-49088984D01*
X25185594Y-49097290D01*
X25196617Y-49089148D01*
X25223001Y-49065478D01*
X25262473Y-49028478D01*
X25312809Y-48980350D01*
X25371783Y-48923296D01*
X25437170Y-48859520D01*
X25506745Y-48791222D01*
X25578284Y-48720605D01*
X25649562Y-48649871D01*
X25718353Y-48581222D01*
X25782434Y-48516861D01*
X25839578Y-48458989D01*
X25887561Y-48409810D01*
X25924159Y-48371524D01*
X25947146Y-48346334D01*
X25954297Y-48336442D01*
X25946268Y-48336253D01*
X25915347Y-48337908D01*
X25863347Y-48341549D01*
X25792513Y-48346995D01*
X25705089Y-48354063D01*
X25603319Y-48362570D01*
X25489448Y-48372335D01*
X25365721Y-48383174D01*
X25234382Y-48394907D01*
X25133092Y-48404079D01*
X25007474Y-48415566D01*
X24891238Y-48426322D01*
X24786620Y-48436131D01*
X24695860Y-48444781D01*
X24621196Y-48452057D01*
X24564866Y-48457746D01*
X24529109Y-48461634D01*
X24516163Y-48463506D01*
X23558824Y-48463506D01*
X23557227Y-48451900D01*
X23563694Y-48373692D01*
X23590953Y-48285233D01*
X23639672Y-48209507D01*
X23653597Y-48194748D01*
X23698672Y-48157864D01*
X23751181Y-48125503D01*
X23802939Y-48102297D01*
X23845761Y-48092879D01*
X23851977Y-48092697D01*
X23874754Y-48091342D01*
X23890487Y-48087800D01*
X23897932Y-48080390D01*
X23895844Y-48067431D01*
X23882980Y-48047243D01*
X23858095Y-48018145D01*
X23819947Y-47978456D01*
X23767290Y-47926496D01*
X23698881Y-47860584D01*
X23613476Y-47779040D01*
X23567888Y-47735604D01*
X23491559Y-47663000D01*
X23419192Y-47594309D01*
X23353634Y-47532223D01*
X23297726Y-47479434D01*
X23254314Y-47438634D01*
X23226242Y-47412515D01*
X23148564Y-47341119D01*
X23236584Y-47252863D01*
X23808713Y-47798690D01*
X23844812Y-47833105D01*
X23973728Y-47955546D01*
X24085246Y-48060651D01*
X24179712Y-48148736D01*
X24257471Y-48220116D01*
X24318869Y-48275105D01*
X24364252Y-48314019D01*
X24393965Y-48337173D01*
X24408356Y-48344882D01*
X24408441Y-48344883D01*
X24426376Y-48343825D01*
X24466579Y-48340737D01*
X24526313Y-48335858D01*
X24602842Y-48329432D01*
X24693431Y-48321700D01*
X24795343Y-48312905D01*
X24905841Y-48303287D01*
X25022189Y-48293091D01*
X25141652Y-48282556D01*
X25261493Y-48271926D01*
X25342489Y-48264698D01*
X26688218Y-48264698D01*
X26688218Y-49679221D01*
X26778905Y-49675526D01*
X26869593Y-49671832D01*
X26884748Y-49596386D01*
X26891621Y-49558551D01*
X26901244Y-49495368D01*
X26908504Y-49436065D01*
X26917107Y-49351188D01*
X26813960Y-49351188D01*
X26813960Y-49250594D01*
X26914554Y-49250594D01*
X26977425Y-49250594D01*
X26977425Y-48873367D01*
X26914554Y-48873367D01*
X26914554Y-49250594D01*
X26813960Y-49250594D01*
X26813960Y-48772773D01*
X26904878Y-48772773D01*
X26896247Y-48700471D01*
X26877751Y-48589998D01*
X26844309Y-48478816D01*
X26797676Y-48386850D01*
X26737214Y-48312542D01*
X26688218Y-48264698D01*
X25342489Y-48264698D01*
X25378975Y-48261442D01*
X25491363Y-48251346D01*
X25595919Y-48241881D01*
X25689909Y-48233288D01*
X25770595Y-48225809D01*
X25835241Y-48219687D01*
X25881112Y-48215162D01*
X25905470Y-48212478D01*
X25958911Y-48205390D01*
X25958911Y-48112624D01*
X26059505Y-48112624D01*
X26059511Y-48119895D01*
X26060387Y-48160950D01*
X26064133Y-48183277D01*
X26072730Y-48192529D01*
X26088160Y-48194357D01*
X26110841Y-48186306D01*
X26148572Y-48158730D01*
X26197821Y-48112624D01*
X26278828Y-48030891D01*
X26059505Y-48030891D01*
X26059505Y-48112624D01*
X25958911Y-48112624D01*
X25958911Y-47930297D01*
X26169529Y-47929968D01*
X26380148Y-47929639D01*
X26839109Y-47477914D01*
X27298069Y-47026189D01*
X27385152Y-47025570D01*
X27472233Y-47024951D01*
X26923048Y-47566769D01*
X26870002Y-47619137D01*
X26760228Y-47727803D01*
X26666886Y-47820709D01*
X26588827Y-47899055D01*
X26524903Y-47964043D01*
X26473965Y-48016872D01*
X26434865Y-48058743D01*
X26406452Y-48090855D01*
X26387580Y-48114410D01*
X26377099Y-48130608D01*
X26373861Y-48140649D01*
X26374842Y-48157579D01*
X26382004Y-48167084D01*
X26401599Y-48168723D01*
X26439876Y-48164782D01*
X26463975Y-48162065D01*
X26504256Y-48158284D01*
X26531039Y-48156760D01*
X26540272Y-48156015D01*
X26550161Y-48148746D01*
X26553438Y-48128668D01*
X26552008Y-48089689D01*
X26551447Y-48079737D01*
X26552079Y-48039898D01*
X26560833Y-48011560D01*
X26580711Y-47983630D01*
X26584896Y-47978820D01*
X26635573Y-47939482D01*
X26694066Y-47922172D01*
X26755425Y-47927474D01*
X26814703Y-47955975D01*
X26818394Y-47958733D01*
X26850149Y-47996822D01*
X26868933Y-48046476D01*
X26873929Y-48100002D01*
X26864322Y-48149707D01*
X26839296Y-48187900D01*
X26826520Y-48200831D01*
X26823424Y-48213428D01*
X26833002Y-48231467D01*
X26856918Y-48261928D01*
X26864269Y-48271274D01*
X26910661Y-48343430D01*
X26951916Y-48428915D01*
X26985064Y-48519767D01*
X27007132Y-48608027D01*
X27015148Y-48685736D01*
X27015212Y-48693991D01*
X27019679Y-48739879D01*
X27032205Y-48765079D01*
X27054216Y-48772773D01*
X27061151Y-48773676D01*
X27067115Y-48778615D01*
X27071481Y-48790611D01*
X27074497Y-48812680D01*
X27076410Y-48847836D01*
X27077470Y-48899094D01*
X27077923Y-48969471D01*
X27078020Y-49061980D01*
X27077850Y-49148660D01*
X27077166Y-49222332D01*
X27075785Y-49276265D01*
X27073530Y-49313288D01*
X27070222Y-49336230D01*
X27065680Y-49347920D01*
X27059728Y-49351188D01*
X27045112Y-49361937D01*
X27035785Y-49392055D01*
X27034153Y-49403582D01*
X27028409Y-49442886D01*
X27020622Y-49495188D01*
X27011997Y-49552376D01*
X27007607Y-49583916D01*
X27002852Y-49630074D01*
X27001705Y-49662641D01*
X27004505Y-49676023D01*
X27006329Y-49678308D01*
X27010835Y-49699405D01*
X27013971Y-49737355D01*
X27015148Y-49786048D01*
X27015148Y-49891881D01*
X26977425Y-49891894D01*
X26974282Y-49891894D01*
X26961332Y-49892388D01*
X26939589Y-49898819D01*
X26921149Y-49917123D01*
X26899199Y-49952830D01*
X26879146Y-49984174D01*
X26840644Y-50031893D01*
X26797421Y-50075138D01*
X26755373Y-50108219D01*
X26720396Y-50125442D01*
X26706919Y-50129662D01*
X26697666Y-50137480D01*
X26694546Y-50140116D01*
X26689304Y-50161662D01*
G37*
X26689304Y-50161662D02*
X26688218Y-50201314D01*
X26688218Y-50269109D01*
X26575049Y-50269109D01*
X26575049Y-50109577D01*
X26397268Y-50094682D01*
X26372963Y-50092682D01*
X26312120Y-50088023D01*
X26262611Y-50084731D01*
X26229008Y-50083092D01*
X26215884Y-50083390D01*
X26219657Y-50087724D01*
X26239324Y-50107496D01*
X26274182Y-50141679D01*
X26322424Y-50188541D01*
X26382243Y-50246354D01*
X26451833Y-50313387D01*
X26529385Y-50387912D01*
X26613093Y-50468197D01*
X26701151Y-50552513D01*
X26791750Y-50639130D01*
X26883085Y-50726319D01*
X26973347Y-50812349D01*
X27060731Y-50895492D01*
X27143428Y-50974016D01*
X27219632Y-51046192D01*
X27287537Y-51110291D01*
X27345334Y-51164583D01*
X27448960Y-51261592D01*
X27360685Y-51262034D01*
X27272411Y-51262475D01*
X26640842Y-50661938D01*
X26009274Y-50061401D01*
X25865326Y-50049396D01*
X25289365Y-50001365D01*
X25187209Y-49992876D01*
X25059388Y-49982343D01*
X24940233Y-49972621D01*
X24832086Y-49963898D01*
X24737287Y-49956358D01*
X24658181Y-49950187D01*
X24597108Y-49945573D01*
X24556410Y-49942700D01*
X24538430Y-49941754D01*
X24530192Y-49944251D01*
X24512401Y-49955471D01*
X24485589Y-49976751D01*
X24473871Y-49987021D01*
X24448534Y-50009225D01*
X24400014Y-50054023D01*
X24338808Y-50112281D01*
X24263693Y-50185129D01*
X24173450Y-50273703D01*
X24066855Y-50379134D01*
X23996907Y-50448492D01*
X23899342Y-50545179D01*
X23802059Y-50641526D01*
X23707986Y-50734638D01*
X23620050Y-50821618D01*
X23541180Y-50899569D01*
X23474301Y-50965596D01*
X23422342Y-51016802D01*
X23218380Y-51217514D01*
X23180329Y-51181058D01*
X23171755Y-51172460D01*
X23150703Y-51147095D01*
X23142277Y-51129695D01*
X23149470Y-51116071D01*
X23171056Y-51090743D01*
X23202005Y-51060379D01*
X23221552Y-51041896D01*
X23257248Y-51007427D01*
X23307316Y-50958712D01*
X23369999Y-50897469D01*
X23443543Y-50825420D01*
X23526190Y-50744285D01*
X23616185Y-50655784D01*
X23711772Y-50561637D01*
X23811195Y-50463565D01*
X24360657Y-49921161D01*
X24075254Y-49899066D01*
X24014338Y-49894250D01*
X23932452Y-49887216D01*
X23870431Y-49880872D01*
X23825013Y-49874748D01*
X23792938Y-49868373D01*
X23770948Y-49861277D01*
X23755781Y-49852991D01*
X23734584Y-49841393D01*
X23695614Y-49831850D01*
X23639469Y-49829010D01*
X23557227Y-49829010D01*
X23557227Y-49823256D01*
X24657034Y-49823256D01*
X24660762Y-49827935D01*
X24670156Y-49829116D01*
X24685251Y-49829873D01*
X24724117Y-49832601D01*
X24783105Y-49837108D01*
X24859527Y-49843179D01*
X24950695Y-49850596D01*
X25053920Y-49859142D01*
X25166517Y-49868602D01*
X25285795Y-49878758D01*
X25390923Y-49887723D01*
X25501649Y-49897066D01*
X25602186Y-49905443D01*
X25690057Y-49912653D01*
X25762785Y-49918496D01*
X25817890Y-49922769D01*
X25852896Y-49925273D01*
X25865326Y-49925805D01*
X25865092Y-49925384D01*
X25853650Y-49913509D01*
X25826802Y-49887130D01*
X25786982Y-49848570D01*
X25736628Y-49800153D01*
X25678172Y-49744203D01*
X25614052Y-49683042D01*
X25546702Y-49618995D01*
X25478557Y-49554385D01*
X25412052Y-49491535D01*
X25349623Y-49432768D01*
X25293705Y-49380409D01*
X25185594Y-49279533D01*
X25183523Y-49277601D01*
X24908032Y-49553305D01*
X24840776Y-49620726D01*
X24777838Y-49684267D01*
X24729900Y-49733490D01*
X24695406Y-49770196D01*
X24672801Y-49796190D01*
X24660529Y-49813276D01*
X24657034Y-49823256D01*
X23557227Y-49823256D01*
X23557227Y-49750838D01*
X23846435Y-49750838D01*
X23874727Y-49757458D01*
X23881671Y-49758629D01*
X23912719Y-49762268D01*
X23962919Y-49767234D01*
X24028273Y-49773157D01*
X24104781Y-49779669D01*
X24188445Y-49786401D01*
X24473871Y-49808724D01*
X24779435Y-49507826D01*
X24835296Y-49452636D01*
X24903112Y-49385109D01*
X24963357Y-49324529D01*
X25013948Y-49273021D01*
X25052800Y-49232710D01*
X25077830Y-49205722D01*
X25086954Y-49194182D01*
X25082987Y-49187140D01*
X25282558Y-49187140D01*
X25285233Y-49191373D01*
X25303218Y-49211224D01*
X25336519Y-49245451D01*
X25383288Y-49292227D01*
X25441675Y-49349724D01*
X25509831Y-49416112D01*
X25585906Y-49489564D01*
X25668050Y-49568251D01*
X25751057Y-49647341D01*
X25832864Y-49724871D01*
X25899917Y-49787746D01*
X25953993Y-49837502D01*
X25996871Y-49875678D01*
X26030327Y-49903811D01*
X26056139Y-49923440D01*
X26076086Y-49936101D01*
X26091944Y-49943334D01*
X26105491Y-49946675D01*
X26112090Y-49947561D01*
X26148452Y-49951488D01*
X26201982Y-49956459D01*
X26266579Y-49961927D01*
X26336138Y-49967344D01*
X26360365Y-49969181D01*
X26425822Y-49974488D01*
X26482283Y-49979548D01*
X26524382Y-49983863D01*
X26546757Y-49986934D01*
X26575049Y-49992955D01*
X26575049Y-49948908D01*
X26688218Y-49948908D01*
X26688338Y-49965993D01*
X26690538Y-49991308D01*
X26697666Y-49998616D01*
X26712492Y-49992943D01*
X26715318Y-49991267D01*
X26737056Y-49972448D01*
X26761180Y-49945183D01*
X26780746Y-49917987D01*
X26788812Y-49899371D01*
X26787537Y-49897697D01*
X26770024Y-49893544D01*
X26738515Y-49891881D01*
X26688218Y-49891881D01*
X26688218Y-49948908D01*
X26575049Y-49948908D01*
X26575049Y-48274852D01*
X26527896Y-48279013D01*
X26506502Y-48280935D01*
X26448091Y-48286924D01*
X26409619Y-48292826D01*
X26387088Y-48299727D01*
X26376502Y-48308712D01*
X26373861Y-48320870D01*
X26372063Y-48331801D01*
X26363470Y-48339050D01*
X26343495Y-48343100D01*
X26307550Y-48344863D01*
X26251048Y-48345248D01*
X26128234Y-48345248D01*
X26088160Y-48385447D01*
X25990346Y-48483565D01*
X25852458Y-48621881D01*
X25958911Y-48621881D01*
X25958911Y-49376337D01*
X25720000Y-49376337D01*
X25720000Y-48757831D01*
X25503094Y-48967592D01*
X25461666Y-49007770D01*
X25404800Y-49063328D01*
X25355918Y-49111570D01*
X25317559Y-49149971D01*
X25292259Y-49176003D01*
X25282558Y-49187140D01*
X25082987Y-49187140D01*
X25082595Y-49186444D01*
X25062759Y-49163395D01*
X25029625Y-49128709D01*
X24986180Y-49085487D01*
X24935413Y-49036832D01*
X24921949Y-49024140D01*
X24861725Y-48967229D01*
X24790136Y-48899414D01*
X24712563Y-48825800D01*
X24634389Y-48751493D01*
X24560995Y-48681599D01*
X24556591Y-48677401D01*
X24488215Y-48612420D01*
X24435268Y-48562836D01*
X24395233Y-48526688D01*
X24365589Y-48502016D01*
X24343819Y-48486858D01*
X24327405Y-48479256D01*
X24313826Y-48477247D01*
X24300566Y-48478872D01*
X24299181Y-48479156D01*
X24267772Y-48492698D01*
X24253137Y-48519748D01*
X24221937Y-48603129D01*
X24169962Y-48677418D01*
X24101209Y-48735846D01*
X24018685Y-48775890D01*
X23925394Y-48795026D01*
X23846435Y-48801364D01*
X23846435Y-49750838D01*
X23557227Y-49750838D01*
X23557227Y-49602674D01*
X23733267Y-49602674D01*
X23733267Y-48757082D01*
X23677738Y-48708203D01*
X23663278Y-48694836D01*
X23605187Y-48622388D01*
X23569424Y-48540532D01*
X23558824Y-48463506D01*
X24516163Y-48463506D01*
X24520174Y-48469188D01*
X24539862Y-48490020D01*
X24573678Y-48523872D01*
X24619163Y-48568412D01*
X24673854Y-48621310D01*
X24735290Y-48680236D01*
X24801010Y-48742858D01*
X24868551Y-48806848D01*
X24935453Y-48869874D01*
X24999254Y-48929606D01*
X25057493Y-48983713D01*
X25107708Y-49029865D01*
X25147437Y-49065733D01*
X25174220Y-49088984D01*
X25185594Y-49097290D01*
X25196617Y-49089148D01*
X25223001Y-49065478D01*
X25262473Y-49028478D01*
X25312809Y-48980350D01*
X25371783Y-48923296D01*
X25437170Y-48859520D01*
X25506745Y-48791222D01*
X25578284Y-48720605D01*
X25649562Y-48649871D01*
X25718353Y-48581222D01*
X25782434Y-48516861D01*
X25839578Y-48458989D01*
X25887561Y-48409810D01*
X25924159Y-48371524D01*
X25947146Y-48346334D01*
X25954297Y-48336442D01*
X25946268Y-48336253D01*
X25915347Y-48337908D01*
X25863347Y-48341549D01*
X25792513Y-48346995D01*
X25705089Y-48354063D01*
X25603319Y-48362570D01*
X25489448Y-48372335D01*
X25365721Y-48383174D01*
X25234382Y-48394907D01*
X25133092Y-48404079D01*
X25007474Y-48415566D01*
X24891238Y-48426322D01*
X24786620Y-48436131D01*
X24695860Y-48444781D01*
X24621196Y-48452057D01*
X24564866Y-48457746D01*
X24529109Y-48461634D01*
X24516163Y-48463506D01*
X23558824Y-48463506D01*
X23557227Y-48451900D01*
X23563694Y-48373692D01*
X23590953Y-48285233D01*
X23639672Y-48209507D01*
X23653597Y-48194748D01*
X23698672Y-48157864D01*
X23751181Y-48125503D01*
X23802939Y-48102297D01*
X23845761Y-48092879D01*
X23851977Y-48092697D01*
X23874754Y-48091342D01*
X23890487Y-48087800D01*
X23897932Y-48080390D01*
X23895844Y-48067431D01*
X23882980Y-48047243D01*
X23858095Y-48018145D01*
X23819947Y-47978456D01*
X23767290Y-47926496D01*
X23698881Y-47860584D01*
X23613476Y-47779040D01*
X23567888Y-47735604D01*
X23491559Y-47663000D01*
X23419192Y-47594309D01*
X23353634Y-47532223D01*
X23297726Y-47479434D01*
X23254314Y-47438634D01*
X23226242Y-47412515D01*
X23148564Y-47341119D01*
X23236584Y-47252863D01*
X23808713Y-47798690D01*
X23844812Y-47833105D01*
X23973728Y-47955546D01*
X24085246Y-48060651D01*
X24179712Y-48148736D01*
X24257471Y-48220116D01*
X24318869Y-48275105D01*
X24364252Y-48314019D01*
X24393965Y-48337173D01*
X24408356Y-48344882D01*
X24408441Y-48344883D01*
X24426376Y-48343825D01*
X24466579Y-48340737D01*
X24526313Y-48335858D01*
X24602842Y-48329432D01*
X24693431Y-48321700D01*
X24795343Y-48312905D01*
X24905841Y-48303287D01*
X25022189Y-48293091D01*
X25141652Y-48282556D01*
X25261493Y-48271926D01*
X25342489Y-48264698D01*
X26688218Y-48264698D01*
X26688218Y-49679221D01*
X26778905Y-49675526D01*
X26869593Y-49671832D01*
X26884748Y-49596386D01*
X26891621Y-49558551D01*
X26901244Y-49495368D01*
X26908504Y-49436065D01*
X26917107Y-49351188D01*
X26813960Y-49351188D01*
X26813960Y-49250594D01*
X26914554Y-49250594D01*
X26977425Y-49250594D01*
X26977425Y-48873367D01*
X26914554Y-48873367D01*
X26914554Y-49250594D01*
X26813960Y-49250594D01*
X26813960Y-48772773D01*
X26904878Y-48772773D01*
X26896247Y-48700471D01*
X26877751Y-48589998D01*
X26844309Y-48478816D01*
X26797676Y-48386850D01*
X26737214Y-48312542D01*
X26688218Y-48264698D01*
X25342489Y-48264698D01*
X25378975Y-48261442D01*
X25491363Y-48251346D01*
X25595919Y-48241881D01*
X25689909Y-48233288D01*
X25770595Y-48225809D01*
X25835241Y-48219687D01*
X25881112Y-48215162D01*
X25905470Y-48212478D01*
X25958911Y-48205390D01*
X25958911Y-48112624D01*
X26059505Y-48112624D01*
X26059511Y-48119895D01*
X26060387Y-48160950D01*
X26064133Y-48183277D01*
X26072730Y-48192529D01*
X26088160Y-48194357D01*
X26110841Y-48186306D01*
X26148572Y-48158730D01*
X26197821Y-48112624D01*
X26278828Y-48030891D01*
X26059505Y-48030891D01*
X26059505Y-48112624D01*
X25958911Y-48112624D01*
X25958911Y-47930297D01*
X26169529Y-47929968D01*
X26380148Y-47929639D01*
X26839109Y-47477914D01*
X27298069Y-47026189D01*
X27385152Y-47025570D01*
X27472233Y-47024951D01*
X26923048Y-47566769D01*
X26870002Y-47619137D01*
X26760228Y-47727803D01*
X26666886Y-47820709D01*
X26588827Y-47899055D01*
X26524903Y-47964043D01*
X26473965Y-48016872D01*
X26434865Y-48058743D01*
X26406452Y-48090855D01*
X26387580Y-48114410D01*
X26377099Y-48130608D01*
X26373861Y-48140649D01*
X26374842Y-48157579D01*
X26382004Y-48167084D01*
X26401599Y-48168723D01*
X26439876Y-48164782D01*
X26463975Y-48162065D01*
X26504256Y-48158284D01*
X26531039Y-48156760D01*
X26540272Y-48156015D01*
X26550161Y-48148746D01*
X26553438Y-48128668D01*
X26552008Y-48089689D01*
X26551447Y-48079737D01*
X26552079Y-48039898D01*
X26560833Y-48011560D01*
X26580711Y-47983630D01*
X26584896Y-47978820D01*
X26635573Y-47939482D01*
X26694066Y-47922172D01*
X26755425Y-47927474D01*
X26814703Y-47955975D01*
X26818394Y-47958733D01*
X26850149Y-47996822D01*
X26868933Y-48046476D01*
X26873929Y-48100002D01*
X26864322Y-48149707D01*
X26839296Y-48187900D01*
X26826520Y-48200831D01*
X26823424Y-48213428D01*
X26833002Y-48231467D01*
X26856918Y-48261928D01*
X26864269Y-48271274D01*
X26910661Y-48343430D01*
X26951916Y-48428915D01*
X26985064Y-48519767D01*
X27007132Y-48608027D01*
X27015148Y-48685736D01*
X27015212Y-48693991D01*
X27019679Y-48739879D01*
X27032205Y-48765079D01*
X27054216Y-48772773D01*
X27061151Y-48773676D01*
X27067115Y-48778615D01*
X27071481Y-48790611D01*
X27074497Y-48812680D01*
X27076410Y-48847836D01*
X27077470Y-48899094D01*
X27077923Y-48969471D01*
X27078020Y-49061980D01*
X27077850Y-49148660D01*
X27077166Y-49222332D01*
X27075785Y-49276265D01*
X27073530Y-49313288D01*
X27070222Y-49336230D01*
X27065680Y-49347920D01*
X27059728Y-49351188D01*
X27045112Y-49361937D01*
X27035785Y-49392055D01*
X27034153Y-49403582D01*
X27028409Y-49442886D01*
X27020622Y-49495188D01*
X27011997Y-49552376D01*
X27007607Y-49583916D01*
X27002852Y-49630074D01*
X27001705Y-49662641D01*
X27004505Y-49676023D01*
X27006329Y-49678308D01*
X27010835Y-49699405D01*
X27013971Y-49737355D01*
X27015148Y-49786048D01*
X27015148Y-49891881D01*
X26977425Y-49891894D01*
X26974282Y-49891894D01*
X26961332Y-49892388D01*
X26939589Y-49898819D01*
X26921149Y-49917123D01*
X26899199Y-49952830D01*
X26879146Y-49984174D01*
X26840644Y-50031893D01*
X26797421Y-50075138D01*
X26755373Y-50108219D01*
X26720396Y-50125442D01*
X26706919Y-50129662D01*
X26697666Y-50137480D01*
X26694546Y-50140116D01*
X26689304Y-50161662D01*
%TO.C,FID5*%
G36*
X25862338Y-26153635D02*
G01*
X25856977Y-26254011D01*
X25848606Y-26328154D01*
X25834316Y-26389375D01*
X25811200Y-26450989D01*
X25776347Y-26526309D01*
X25764106Y-26550872D01*
X25658384Y-26712298D01*
X25522340Y-26845004D01*
X25355516Y-26949284D01*
X25157457Y-27025432D01*
X24927706Y-27073742D01*
X24914560Y-27075427D01*
X24826524Y-27082303D01*
X24709199Y-27086447D01*
X24570542Y-27088048D01*
X24418509Y-27087295D01*
X24261057Y-27084377D01*
X24106143Y-27079482D01*
X23961723Y-27072799D01*
X23835753Y-27064517D01*
X23736192Y-27054826D01*
X23670994Y-27043913D01*
X23598583Y-27023263D01*
X23412200Y-26946139D01*
X23249086Y-26842357D01*
X23114698Y-26715854D01*
X23014495Y-26570563D01*
X23001316Y-26545220D01*
X22952747Y-26436720D01*
X22922278Y-26331888D01*
X22906500Y-26215637D01*
X22902003Y-26072879D01*
X22902025Y-26071253D01*
X23665920Y-26071253D01*
X23671446Y-26120232D01*
X23709170Y-26190340D01*
X23783360Y-26239255D01*
X23796006Y-26243245D01*
X23856322Y-26252743D01*
X23948606Y-26260236D01*
X24065431Y-26265730D01*
X24199372Y-26269229D01*
X24343003Y-26270740D01*
X24488900Y-26270268D01*
X24629635Y-26267819D01*
X24757785Y-26263398D01*
X24865923Y-26257010D01*
X24946624Y-26248662D01*
X24992462Y-26238358D01*
X25032843Y-26216097D01*
X25087120Y-26154679D01*
X25105253Y-26071253D01*
X25104768Y-26043297D01*
X25099677Y-25999439D01*
X25085608Y-25964711D01*
X25058394Y-25938054D01*
X25013865Y-25918407D01*
X24947852Y-25904710D01*
X24856187Y-25895902D01*
X24734700Y-25890924D01*
X24579223Y-25888714D01*
X24385586Y-25888214D01*
X24275672Y-25888337D01*
X24103230Y-25889632D01*
X23966689Y-25893210D01*
X23861879Y-25900132D01*
X23784632Y-25911457D01*
X23730779Y-25928247D01*
X23696149Y-25951561D01*
X23676576Y-25982460D01*
X23667889Y-26022004D01*
X23665920Y-26071253D01*
X22902025Y-26071253D01*
X22902551Y-26032244D01*
X22925395Y-25822876D01*
X22982198Y-25638503D01*
X23073515Y-25478336D01*
X23199900Y-25341587D01*
X23361906Y-25227467D01*
X23560086Y-25135186D01*
X23564281Y-25133605D01*
X23611177Y-25116325D01*
X23653252Y-25102771D01*
X23696399Y-25092408D01*
X23746511Y-25084700D01*
X23809484Y-25079113D01*
X23891210Y-25075111D01*
X23997584Y-25072158D01*
X24134500Y-25069719D01*
X24307852Y-25067258D01*
X24325387Y-25067021D01*
X24507189Y-25065039D01*
X24653070Y-25064620D01*
X24768914Y-25065971D01*
X24860605Y-25069296D01*
X24934028Y-25074801D01*
X24995065Y-25082692D01*
X25049601Y-25093174D01*
X25127100Y-25112610D01*
X25328893Y-25187311D01*
X25501861Y-25289496D01*
X25643981Y-25417471D01*
X25753228Y-25569541D01*
X25827577Y-25744013D01*
X25836929Y-25775944D01*
X25854334Y-25849527D01*
X25863675Y-25923464D01*
X25866247Y-26011680D01*
X25864764Y-26071253D01*
X25863349Y-26128098D01*
X25862338Y-26153635D01*
G37*
X25862338Y-26153635D02*
X25856977Y-26254011D01*
X25848606Y-26328154D01*
X25834316Y-26389375D01*
X25811200Y-26450989D01*
X25776347Y-26526309D01*
X25764106Y-26550872D01*
X25658384Y-26712298D01*
X25522340Y-26845004D01*
X25355516Y-26949284D01*
X25157457Y-27025432D01*
X24927706Y-27073742D01*
X24914560Y-27075427D01*
X24826524Y-27082303D01*
X24709199Y-27086447D01*
X24570542Y-27088048D01*
X24418509Y-27087295D01*
X24261057Y-27084377D01*
X24106143Y-27079482D01*
X23961723Y-27072799D01*
X23835753Y-27064517D01*
X23736192Y-27054826D01*
X23670994Y-27043913D01*
X23598583Y-27023263D01*
X23412200Y-26946139D01*
X23249086Y-26842357D01*
X23114698Y-26715854D01*
X23014495Y-26570563D01*
X23001316Y-26545220D01*
X22952747Y-26436720D01*
X22922278Y-26331888D01*
X22906500Y-26215637D01*
X22902003Y-26072879D01*
X22902025Y-26071253D01*
X23665920Y-26071253D01*
X23671446Y-26120232D01*
X23709170Y-26190340D01*
X23783360Y-26239255D01*
X23796006Y-26243245D01*
X23856322Y-26252743D01*
X23948606Y-26260236D01*
X24065431Y-26265730D01*
X24199372Y-26269229D01*
X24343003Y-26270740D01*
X24488900Y-26270268D01*
X24629635Y-26267819D01*
X24757785Y-26263398D01*
X24865923Y-26257010D01*
X24946624Y-26248662D01*
X24992462Y-26238358D01*
X25032843Y-26216097D01*
X25087120Y-26154679D01*
X25105253Y-26071253D01*
X25104768Y-26043297D01*
X25099677Y-25999439D01*
X25085608Y-25964711D01*
X25058394Y-25938054D01*
X25013865Y-25918407D01*
X24947852Y-25904710D01*
X24856187Y-25895902D01*
X24734700Y-25890924D01*
X24579223Y-25888714D01*
X24385586Y-25888214D01*
X24275672Y-25888337D01*
X24103230Y-25889632D01*
X23966689Y-25893210D01*
X23861879Y-25900132D01*
X23784632Y-25911457D01*
X23730779Y-25928247D01*
X23696149Y-25951561D01*
X23676576Y-25982460D01*
X23667889Y-26022004D01*
X23665920Y-26071253D01*
X22902025Y-26071253D01*
X22902551Y-26032244D01*
X22925395Y-25822876D01*
X22982198Y-25638503D01*
X23073515Y-25478336D01*
X23199900Y-25341587D01*
X23361906Y-25227467D01*
X23560086Y-25135186D01*
X23564281Y-25133605D01*
X23611177Y-25116325D01*
X23653252Y-25102771D01*
X23696399Y-25092408D01*
X23746511Y-25084700D01*
X23809484Y-25079113D01*
X23891210Y-25075111D01*
X23997584Y-25072158D01*
X24134500Y-25069719D01*
X24307852Y-25067258D01*
X24325387Y-25067021D01*
X24507189Y-25065039D01*
X24653070Y-25064620D01*
X24768914Y-25065971D01*
X24860605Y-25069296D01*
X24934028Y-25074801D01*
X24995065Y-25082692D01*
X25049601Y-25093174D01*
X25127100Y-25112610D01*
X25328893Y-25187311D01*
X25501861Y-25289496D01*
X25643981Y-25417471D01*
X25753228Y-25569541D01*
X25827577Y-25744013D01*
X25836929Y-25775944D01*
X25854334Y-25849527D01*
X25863675Y-25923464D01*
X25866247Y-26011680D01*
X25864764Y-26071253D01*
X25863349Y-26128098D01*
X25862338Y-26153635D01*
G36*
X20495761Y-40388686D02*
G01*
X20638363Y-40393690D01*
X20752093Y-40403622D01*
X20843832Y-40419711D01*
X20920463Y-40443184D01*
X20988869Y-40475270D01*
X21055931Y-40517198D01*
X21127839Y-40576301D01*
X21223466Y-40696335D01*
X21291069Y-40840667D01*
X21327821Y-41002532D01*
X21330895Y-41175166D01*
X21330657Y-41177959D01*
X21301680Y-41338200D01*
X21241828Y-41476170D01*
X21146406Y-41602750D01*
X21120714Y-41629903D01*
X21025548Y-41714602D01*
X20926301Y-41773062D01*
X20806698Y-41815472D01*
X20777278Y-41822743D01*
X20635400Y-41837983D01*
X20482193Y-41827694D01*
X20335210Y-41792725D01*
X20324055Y-41788683D01*
X20224749Y-41735359D01*
X20124151Y-41655423D01*
X20034893Y-41560320D01*
X19969608Y-41461495D01*
X19954113Y-41427929D01*
X19919581Y-41327575D01*
X19895154Y-41219365D01*
X19883771Y-41118541D01*
X19888373Y-41040343D01*
X19901617Y-40980047D01*
X20451439Y-40980047D01*
X20434818Y-41027672D01*
X20421764Y-41083750D01*
X20427699Y-41165798D01*
X20461051Y-41231993D01*
X20514659Y-41277205D01*
X20581358Y-41296308D01*
X20653986Y-41284174D01*
X20725381Y-41235675D01*
X20745701Y-41212846D01*
X20783413Y-41137156D01*
X20782295Y-41062121D01*
X20743908Y-40995863D01*
X20669813Y-40946505D01*
X20658083Y-40942186D01*
X20603851Y-40930414D01*
X20522606Y-40922463D01*
X20409271Y-40917964D01*
X20258766Y-40916547D01*
X19919420Y-40916547D01*
X19919420Y-40387380D01*
X20328328Y-40387380D01*
X20495761Y-40388686D01*
G37*
X20495761Y-40388686D02*
X20638363Y-40393690D01*
X20752093Y-40403622D01*
X20843832Y-40419711D01*
X20920463Y-40443184D01*
X20988869Y-40475270D01*
X21055931Y-40517198D01*
X21127839Y-40576301D01*
X21223466Y-40696335D01*
X21291069Y-40840667D01*
X21327821Y-41002532D01*
X21330895Y-41175166D01*
X21330657Y-41177959D01*
X21301680Y-41338200D01*
X21241828Y-41476170D01*
X21146406Y-41602750D01*
X21120714Y-41629903D01*
X21025548Y-41714602D01*
X20926301Y-41773062D01*
X20806698Y-41815472D01*
X20777278Y-41822743D01*
X20635400Y-41837983D01*
X20482193Y-41827694D01*
X20335210Y-41792725D01*
X20324055Y-41788683D01*
X20224749Y-41735359D01*
X20124151Y-41655423D01*
X20034893Y-41560320D01*
X19969608Y-41461495D01*
X19954113Y-41427929D01*
X19919581Y-41327575D01*
X19895154Y-41219365D01*
X19883771Y-41118541D01*
X19888373Y-41040343D01*
X19901617Y-40980047D01*
X20451439Y-40980047D01*
X20434818Y-41027672D01*
X20421764Y-41083750D01*
X20427699Y-41165798D01*
X20461051Y-41231993D01*
X20514659Y-41277205D01*
X20581358Y-41296308D01*
X20653986Y-41284174D01*
X20725381Y-41235675D01*
X20745701Y-41212846D01*
X20783413Y-41137156D01*
X20782295Y-41062121D01*
X20743908Y-40995863D01*
X20669813Y-40946505D01*
X20658083Y-40942186D01*
X20603851Y-40930414D01*
X20522606Y-40922463D01*
X20409271Y-40917964D01*
X20258766Y-40916547D01*
X19919420Y-40916547D01*
X19919420Y-40387380D01*
X20328328Y-40387380D01*
X20495761Y-40388686D01*
G36*
X28280253Y-39985214D02*
G01*
X27692878Y-39986408D01*
X27593336Y-39986689D01*
X27416600Y-39987972D01*
X27275980Y-39990803D01*
X27167287Y-39995906D01*
X27086330Y-40004006D01*
X27028918Y-40015831D01*
X26990862Y-40032104D01*
X26967971Y-40053551D01*
X26956055Y-40080899D01*
X26950924Y-40114872D01*
X26950678Y-40117813D01*
X26948171Y-40156627D01*
X26950613Y-40187667D01*
X26962157Y-40211803D01*
X26986958Y-40229903D01*
X27029169Y-40242834D01*
X27092945Y-40251467D01*
X27182438Y-40256670D01*
X27301804Y-40259310D01*
X27455195Y-40260257D01*
X27646765Y-40260380D01*
X28280253Y-40260380D01*
X28280253Y-41068259D01*
X27597628Y-41059863D01*
X27413567Y-41057440D01*
X27258728Y-41054850D01*
X27135899Y-41051847D01*
X27039819Y-41048081D01*
X26965228Y-41043207D01*
X26906864Y-41036877D01*
X26859465Y-41028744D01*
X26817772Y-41018461D01*
X26776522Y-41005680D01*
X26601197Y-40930439D01*
X26451996Y-40826175D01*
X26330651Y-40691538D01*
X26233735Y-40523485D01*
X26196739Y-40414690D01*
X26171535Y-40273594D01*
X26162324Y-40122824D01*
X26170003Y-39978018D01*
X26195465Y-39854817D01*
X26203208Y-39831922D01*
X26286200Y-39658139D01*
X26402426Y-39506125D01*
X26546852Y-39380374D01*
X26714445Y-39285381D01*
X26900170Y-39225639D01*
X26932312Y-39220913D01*
X27013970Y-39214495D01*
X27130636Y-39209260D01*
X27277871Y-39205346D01*
X27451236Y-39202895D01*
X27646295Y-39202047D01*
X28280253Y-39202047D01*
X28280253Y-39985214D01*
G37*
X28280253Y-39985214D02*
X27692878Y-39986408D01*
X27593336Y-39986689D01*
X27416600Y-39987972D01*
X27275980Y-39990803D01*
X27167287Y-39995906D01*
X27086330Y-40004006D01*
X27028918Y-40015831D01*
X26990862Y-40032104D01*
X26967971Y-40053551D01*
X26956055Y-40080899D01*
X26950924Y-40114872D01*
X26950678Y-40117813D01*
X26948171Y-40156627D01*
X26950613Y-40187667D01*
X26962157Y-40211803D01*
X26986958Y-40229903D01*
X27029169Y-40242834D01*
X27092945Y-40251467D01*
X27182438Y-40256670D01*
X27301804Y-40259310D01*
X27455195Y-40260257D01*
X27646765Y-40260380D01*
X28280253Y-40260380D01*
X28280253Y-41068259D01*
X27597628Y-41059863D01*
X27413567Y-41057440D01*
X27258728Y-41054850D01*
X27135899Y-41051847D01*
X27039819Y-41048081D01*
X26965228Y-41043207D01*
X26906864Y-41036877D01*
X26859465Y-41028744D01*
X26817772Y-41018461D01*
X26776522Y-41005680D01*
X26601197Y-40930439D01*
X26451996Y-40826175D01*
X26330651Y-40691538D01*
X26233735Y-40523485D01*
X26196739Y-40414690D01*
X26171535Y-40273594D01*
X26162324Y-40122824D01*
X26170003Y-39978018D01*
X26195465Y-39854817D01*
X26203208Y-39831922D01*
X26286200Y-39658139D01*
X26402426Y-39506125D01*
X26546852Y-39380374D01*
X26714445Y-39285381D01*
X26900170Y-39225639D01*
X26932312Y-39220913D01*
X27013970Y-39214495D01*
X27130636Y-39209260D01*
X27277871Y-39205346D01*
X27451236Y-39202895D01*
X27646295Y-39202047D01*
X28280253Y-39202047D01*
X28280253Y-39985214D01*
G36*
X24030999Y-41339882D02*
G01*
X24261274Y-41340009D01*
X24454006Y-41340442D01*
X24613330Y-41341329D01*
X24743379Y-41342818D01*
X24848287Y-41345057D01*
X24932187Y-41348195D01*
X24999213Y-41352379D01*
X25053498Y-41357759D01*
X25099175Y-41364481D01*
X25140379Y-41372694D01*
X25181242Y-41382546D01*
X25273727Y-41410291D01*
X25451567Y-41492006D01*
X25600914Y-41602803D01*
X25719512Y-41740799D01*
X25805104Y-41904106D01*
X25826329Y-41974852D01*
X25847741Y-42093721D01*
X25861399Y-42230423D01*
X25866486Y-42371375D01*
X25862183Y-42502993D01*
X25847675Y-42611695D01*
X25806632Y-42749846D01*
X25719166Y-42923447D01*
X25599615Y-43076246D01*
X25452808Y-43203420D01*
X25283576Y-43300145D01*
X25096748Y-43361599D01*
X25093911Y-43362201D01*
X25047394Y-43369291D01*
X24980097Y-43375234D01*
X24888942Y-43380112D01*
X24770850Y-43384006D01*
X24622743Y-43386997D01*
X24441542Y-43389166D01*
X24224169Y-43390595D01*
X23967545Y-43391364D01*
X22967420Y-43393047D01*
X22967420Y-42525214D01*
X23938232Y-42525214D01*
X24050351Y-42525206D01*
X24259761Y-42525081D01*
X24432454Y-42524673D01*
X24572249Y-42523820D01*
X24682969Y-42522357D01*
X24768432Y-42520122D01*
X24832462Y-42516951D01*
X24878877Y-42512680D01*
X24911499Y-42507148D01*
X24934149Y-42500190D01*
X24950647Y-42491643D01*
X24964815Y-42481344D01*
X24992901Y-42453029D01*
X25020614Y-42386581D01*
X25011659Y-42314847D01*
X24965984Y-42248445D01*
X24911382Y-42197130D01*
X23939401Y-42191031D01*
X22967420Y-42184931D01*
X22967420Y-41339880D01*
X23990617Y-41339880D01*
X24030999Y-41339882D01*
G37*
X24030999Y-41339882D02*
X24261274Y-41340009D01*
X24454006Y-41340442D01*
X24613330Y-41341329D01*
X24743379Y-41342818D01*
X24848287Y-41345057D01*
X24932187Y-41348195D01*
X24999213Y-41352379D01*
X25053498Y-41357759D01*
X25099175Y-41364481D01*
X25140379Y-41372694D01*
X25181242Y-41382546D01*
X25273727Y-41410291D01*
X25451567Y-41492006D01*
X25600914Y-41602803D01*
X25719512Y-41740799D01*
X25805104Y-41904106D01*
X25826329Y-41974852D01*
X25847741Y-42093721D01*
X25861399Y-42230423D01*
X25866486Y-42371375D01*
X25862183Y-42502993D01*
X25847675Y-42611695D01*
X25806632Y-42749846D01*
X25719166Y-42923447D01*
X25599615Y-43076246D01*
X25452808Y-43203420D01*
X25283576Y-43300145D01*
X25096748Y-43361599D01*
X25093911Y-43362201D01*
X25047394Y-43369291D01*
X24980097Y-43375234D01*
X24888942Y-43380112D01*
X24770850Y-43384006D01*
X24622743Y-43386997D01*
X24441542Y-43389166D01*
X24224169Y-43390595D01*
X23967545Y-43391364D01*
X22967420Y-43393047D01*
X22967420Y-42525214D01*
X23938232Y-42525214D01*
X24050351Y-42525206D01*
X24259761Y-42525081D01*
X24432454Y-42524673D01*
X24572249Y-42523820D01*
X24682969Y-42522357D01*
X24768432Y-42520122D01*
X24832462Y-42516951D01*
X24878877Y-42512680D01*
X24911499Y-42507148D01*
X24934149Y-42500190D01*
X24950647Y-42491643D01*
X24964815Y-42481344D01*
X24992901Y-42453029D01*
X25020614Y-42386581D01*
X25011659Y-42314847D01*
X24965984Y-42248445D01*
X24911382Y-42197130D01*
X23939401Y-42191031D01*
X22967420Y-42184931D01*
X22967420Y-41339880D01*
X23990617Y-41339880D01*
X24030999Y-41339882D01*
G36*
X20469753Y-26818121D02*
G01*
X20757910Y-26676547D01*
X20801157Y-26655342D01*
X20902334Y-26606687D01*
X20977714Y-26573269D01*
X21036171Y-26552239D01*
X21086581Y-26540747D01*
X21137818Y-26535941D01*
X21198757Y-26534973D01*
X21253988Y-26535885D01*
X21333369Y-26544144D01*
X21405549Y-26565210D01*
X21491931Y-26604132D01*
X21500117Y-26608210D01*
X21628043Y-26688987D01*
X21727665Y-26791419D01*
X21808720Y-26925380D01*
X21828555Y-26976024D01*
X21851948Y-27092401D01*
X21856812Y-27221986D01*
X21843085Y-27348489D01*
X21810707Y-27455622D01*
X21785237Y-27506218D01*
X21686131Y-27642509D01*
X21557257Y-27751111D01*
X21403578Y-27827491D01*
X21340178Y-27843485D01*
X21230457Y-27854237D01*
X21113773Y-27851143D01*
X21009503Y-27833886D01*
X20967133Y-27819846D01*
X20859971Y-27765415D01*
X20757107Y-27690689D01*
X20675922Y-27607465D01*
X20617507Y-27531867D01*
X20841359Y-27405703D01*
X20863869Y-27393078D01*
X20960007Y-27341360D01*
X21026433Y-27310507D01*
X21067914Y-27298556D01*
X21089215Y-27303542D01*
X21104497Y-27315407D01*
X21160319Y-27328812D01*
X21220138Y-27313413D01*
X21267048Y-27272191D01*
X21285847Y-27240301D01*
X21291286Y-27204945D01*
X21271421Y-27161066D01*
X21270791Y-27159972D01*
X21232542Y-27117906D01*
X21177430Y-27108244D01*
X21157949Y-27112208D01*
X21115483Y-27127780D01*
X21051582Y-27156169D01*
X20964031Y-27198500D01*
X20850616Y-27255897D01*
X20709124Y-27329485D01*
X20537341Y-27420389D01*
X20333052Y-27529733D01*
X20094045Y-27658643D01*
X19919420Y-27753097D01*
X19919420Y-26502047D01*
X20469753Y-26502047D01*
X20469753Y-26818121D01*
G37*
X20469753Y-26818121D02*
X20757910Y-26676547D01*
X20801157Y-26655342D01*
X20902334Y-26606687D01*
X20977714Y-26573269D01*
X21036171Y-26552239D01*
X21086581Y-26540747D01*
X21137818Y-26535941D01*
X21198757Y-26534973D01*
X21253988Y-26535885D01*
X21333369Y-26544144D01*
X21405549Y-26565210D01*
X21491931Y-26604132D01*
X21500117Y-26608210D01*
X21628043Y-26688987D01*
X21727665Y-26791419D01*
X21808720Y-26925380D01*
X21828555Y-26976024D01*
X21851948Y-27092401D01*
X21856812Y-27221986D01*
X21843085Y-27348489D01*
X21810707Y-27455622D01*
X21785237Y-27506218D01*
X21686131Y-27642509D01*
X21557257Y-27751111D01*
X21403578Y-27827491D01*
X21340178Y-27843485D01*
X21230457Y-27854237D01*
X21113773Y-27851143D01*
X21009503Y-27833886D01*
X20967133Y-27819846D01*
X20859971Y-27765415D01*
X20757107Y-27690689D01*
X20675922Y-27607465D01*
X20617507Y-27531867D01*
X20841359Y-27405703D01*
X20863869Y-27393078D01*
X20960007Y-27341360D01*
X21026433Y-27310507D01*
X21067914Y-27298556D01*
X21089215Y-27303542D01*
X21104497Y-27315407D01*
X21160319Y-27328812D01*
X21220138Y-27313413D01*
X21267048Y-27272191D01*
X21285847Y-27240301D01*
X21291286Y-27204945D01*
X21271421Y-27161066D01*
X21270791Y-27159972D01*
X21232542Y-27117906D01*
X21177430Y-27108244D01*
X21157949Y-27112208D01*
X21115483Y-27127780D01*
X21051582Y-27156169D01*
X20964031Y-27198500D01*
X20850616Y-27255897D01*
X20709124Y-27329485D01*
X20537341Y-27420389D01*
X20333052Y-27529733D01*
X20094045Y-27658643D01*
X19919420Y-27753097D01*
X19919420Y-26502047D01*
X20469753Y-26502047D01*
X20469753Y-26818121D01*
G36*
X21855228Y-30403767D02*
G01*
X21853436Y-30498623D01*
X21845074Y-30568632D01*
X21826937Y-30630153D01*
X21795816Y-30699542D01*
X21726387Y-30809541D01*
X21612158Y-30919182D01*
X21465002Y-31002494D01*
X21284670Y-31059651D01*
X21283698Y-31059863D01*
X21232971Y-31065524D01*
X21149483Y-31069284D01*
X21042464Y-31071242D01*
X20921147Y-31071494D01*
X20794762Y-31070139D01*
X20672540Y-31067272D01*
X20563713Y-31062992D01*
X20477513Y-31057395D01*
X20423170Y-31050579D01*
X20398288Y-31044822D01*
X20285031Y-31006825D01*
X20174552Y-30953296D01*
X20079903Y-30891338D01*
X20014138Y-30828052D01*
X19960149Y-30749575D01*
X19911435Y-30646932D01*
X19885449Y-30533580D01*
X19878229Y-30406718D01*
X20387236Y-30406718D01*
X20415091Y-30472043D01*
X20424966Y-30483413D01*
X20443400Y-30495159D01*
X20473492Y-30503650D01*
X20521375Y-30509575D01*
X20593187Y-30513618D01*
X20695061Y-30516466D01*
X20833132Y-30518805D01*
X20906197Y-30519732D01*
X21046524Y-30519942D01*
X21151896Y-30516514D01*
X21227431Y-30508269D01*
X21278241Y-30494029D01*
X21309444Y-30472616D01*
X21326153Y-30442851D01*
X21333484Y-30403556D01*
X21334924Y-30381969D01*
X21330992Y-30344086D01*
X21313612Y-30315736D01*
X21277973Y-30295568D01*
X21219265Y-30282231D01*
X21132678Y-30274377D01*
X21013402Y-30270654D01*
X20856627Y-30269714D01*
X20741810Y-30269901D01*
X20633628Y-30270991D01*
X20556247Y-30273617D01*
X20503301Y-30278408D01*
X20468424Y-30285992D01*
X20445252Y-30296995D01*
X20427420Y-30312047D01*
X20401584Y-30344725D01*
X20387236Y-30406718D01*
X19878229Y-30406718D01*
X19877551Y-30394803D01*
X19877560Y-30369299D01*
X19880217Y-30280809D01*
X19889654Y-30214374D01*
X19909272Y-30153607D01*
X19942474Y-30082122D01*
X19974491Y-30024899D01*
X20068461Y-29910058D01*
X20190838Y-29822669D01*
X20345915Y-29759301D01*
X20389962Y-29746685D01*
X20441625Y-29735008D01*
X20497814Y-29727050D01*
X20566086Y-29722330D01*
X20653999Y-29720367D01*
X20769111Y-29720678D01*
X20918978Y-29722782D01*
X20987222Y-29723956D01*
X21117290Y-29726681D01*
X21215121Y-29730093D01*
X21287756Y-29734999D01*
X21342234Y-29742209D01*
X21385595Y-29752530D01*
X21424880Y-29766771D01*
X21467127Y-29785741D01*
X21595246Y-29857756D01*
X21711534Y-29958480D01*
X21792146Y-30079559D01*
X21839296Y-30224476D01*
X21853835Y-30381969D01*
X21855196Y-30396714D01*
X21855228Y-30403767D01*
G37*
X21855228Y-30403767D02*
X21853436Y-30498623D01*
X21845074Y-30568632D01*
X21826937Y-30630153D01*
X21795816Y-30699542D01*
X21726387Y-30809541D01*
X21612158Y-30919182D01*
X21465002Y-31002494D01*
X21284670Y-31059651D01*
X21283698Y-31059863D01*
X21232971Y-31065524D01*
X21149483Y-31069284D01*
X21042464Y-31071242D01*
X20921147Y-31071494D01*
X20794762Y-31070139D01*
X20672540Y-31067272D01*
X20563713Y-31062992D01*
X20477513Y-31057395D01*
X20423170Y-31050579D01*
X20398288Y-31044822D01*
X20285031Y-31006825D01*
X20174552Y-30953296D01*
X20079903Y-30891338D01*
X20014138Y-30828052D01*
X19960149Y-30749575D01*
X19911435Y-30646932D01*
X19885449Y-30533580D01*
X19878229Y-30406718D01*
X20387236Y-30406718D01*
X20415091Y-30472043D01*
X20424966Y-30483413D01*
X20443400Y-30495159D01*
X20473492Y-30503650D01*
X20521375Y-30509575D01*
X20593187Y-30513618D01*
X20695061Y-30516466D01*
X20833132Y-30518805D01*
X20906197Y-30519732D01*
X21046524Y-30519942D01*
X21151896Y-30516514D01*
X21227431Y-30508269D01*
X21278241Y-30494029D01*
X21309444Y-30472616D01*
X21326153Y-30442851D01*
X21333484Y-30403556D01*
X21334924Y-30381969D01*
X21330992Y-30344086D01*
X21313612Y-30315736D01*
X21277973Y-30295568D01*
X21219265Y-30282231D01*
X21132678Y-30274377D01*
X21013402Y-30270654D01*
X20856627Y-30269714D01*
X20741810Y-30269901D01*
X20633628Y-30270991D01*
X20556247Y-30273617D01*
X20503301Y-30278408D01*
X20468424Y-30285992D01*
X20445252Y-30296995D01*
X20427420Y-30312047D01*
X20401584Y-30344725D01*
X20387236Y-30406718D01*
X19878229Y-30406718D01*
X19877551Y-30394803D01*
X19877560Y-30369299D01*
X19880217Y-30280809D01*
X19889654Y-30214374D01*
X19909272Y-30153607D01*
X19942474Y-30082122D01*
X19974491Y-30024899D01*
X20068461Y-29910058D01*
X20190838Y-29822669D01*
X20345915Y-29759301D01*
X20389962Y-29746685D01*
X20441625Y-29735008D01*
X20497814Y-29727050D01*
X20566086Y-29722330D01*
X20653999Y-29720367D01*
X20769111Y-29720678D01*
X20918978Y-29722782D01*
X20987222Y-29723956D01*
X21117290Y-29726681D01*
X21215121Y-29730093D01*
X21287756Y-29734999D01*
X21342234Y-29742209D01*
X21385595Y-29752530D01*
X21424880Y-29766771D01*
X21467127Y-29785741D01*
X21595246Y-29857756D01*
X21711534Y-29958480D01*
X21792146Y-30079559D01*
X21839296Y-30224476D01*
X21853835Y-30381969D01*
X21855196Y-30396714D01*
X21855228Y-30403767D01*
G36*
X20744934Y-37665935D02*
G01*
X20875905Y-37698215D01*
X20964580Y-37739684D01*
X21093833Y-37834525D01*
X21198681Y-37956257D01*
X21275782Y-38098081D01*
X21321796Y-38253194D01*
X21333381Y-38414797D01*
X21307196Y-38576087D01*
X21243473Y-38735669D01*
X21148274Y-38873270D01*
X21024868Y-38979434D01*
X20873999Y-39053525D01*
X20696417Y-39094908D01*
X20646424Y-39099192D01*
X20557515Y-39103637D01*
X20440033Y-39107611D01*
X20301185Y-39110914D01*
X20148176Y-39113342D01*
X19988211Y-39114696D01*
X19411420Y-39117380D01*
X19411420Y-38568803D01*
X20058861Y-38562633D01*
X20706302Y-38556464D01*
X20757361Y-38497075D01*
X20762623Y-38490730D01*
X20795134Y-38439256D01*
X20808420Y-38395482D01*
X20792220Y-38324217D01*
X20746267Y-38253996D01*
X20682418Y-38207627D01*
X20663241Y-38200955D01*
X20583285Y-38197975D01*
X20510701Y-38231537D01*
X20456350Y-38297334D01*
X20435733Y-38349857D01*
X20436488Y-38399842D01*
X20459033Y-38466505D01*
X20462322Y-38479728D01*
X20455168Y-38490560D01*
X20430400Y-38497511D01*
X20381840Y-38501429D01*
X20303307Y-38503158D01*
X20188623Y-38503547D01*
X19902964Y-38503547D01*
X19889816Y-38433458D01*
X19885853Y-38372435D01*
X19894868Y-38274495D01*
X19916881Y-38168481D01*
X19949135Y-38071234D01*
X19968922Y-38032513D01*
X20030356Y-37947156D01*
X20111913Y-37859674D01*
X20202099Y-37781758D01*
X20289417Y-37725101D01*
X20322390Y-37709890D01*
X20452437Y-37672494D01*
X20598531Y-37657602D01*
X20744934Y-37665935D01*
G37*
X20744934Y-37665935D02*
X20875905Y-37698215D01*
X20964580Y-37739684D01*
X21093833Y-37834525D01*
X21198681Y-37956257D01*
X21275782Y-38098081D01*
X21321796Y-38253194D01*
X21333381Y-38414797D01*
X21307196Y-38576087D01*
X21243473Y-38735669D01*
X21148274Y-38873270D01*
X21024868Y-38979434D01*
X20873999Y-39053525D01*
X20696417Y-39094908D01*
X20646424Y-39099192D01*
X20557515Y-39103637D01*
X20440033Y-39107611D01*
X20301185Y-39110914D01*
X20148176Y-39113342D01*
X19988211Y-39114696D01*
X19411420Y-39117380D01*
X19411420Y-38568803D01*
X20058861Y-38562633D01*
X20706302Y-38556464D01*
X20757361Y-38497075D01*
X20762623Y-38490730D01*
X20795134Y-38439256D01*
X20808420Y-38395482D01*
X20792220Y-38324217D01*
X20746267Y-38253996D01*
X20682418Y-38207627D01*
X20663241Y-38200955D01*
X20583285Y-38197975D01*
X20510701Y-38231537D01*
X20456350Y-38297334D01*
X20435733Y-38349857D01*
X20436488Y-38399842D01*
X20459033Y-38466505D01*
X20462322Y-38479728D01*
X20455168Y-38490560D01*
X20430400Y-38497511D01*
X20381840Y-38501429D01*
X20303307Y-38503158D01*
X20188623Y-38503547D01*
X19902964Y-38503547D01*
X19889816Y-38433458D01*
X19885853Y-38372435D01*
X19894868Y-38274495D01*
X19916881Y-38168481D01*
X19949135Y-38071234D01*
X19968922Y-38032513D01*
X20030356Y-37947156D01*
X20111913Y-37859674D01*
X20202099Y-37781758D01*
X20289417Y-37725101D01*
X20322390Y-37709890D01*
X20452437Y-37672494D01*
X20598531Y-37657602D01*
X20744934Y-37665935D01*
G36*
X21288852Y-39403023D02*
G01*
X21272874Y-39537238D01*
X21239604Y-39658161D01*
X21186464Y-39756288D01*
X21109642Y-39840930D01*
X21054559Y-39884177D01*
X20929691Y-39943706D01*
X20787253Y-39964851D01*
X20728600Y-39967195D01*
X20604764Y-39986782D01*
X20517408Y-40026337D01*
X20465644Y-40086391D01*
X20448586Y-40167475D01*
X20448586Y-40239214D01*
X19871037Y-40239214D01*
X19883584Y-40075172D01*
X19886843Y-40036390D01*
X19903696Y-39911782D01*
X19930733Y-39814425D01*
X19972085Y-39732609D01*
X20031879Y-39654626D01*
X20059924Y-39624395D01*
X20148650Y-39549507D01*
X20252296Y-39493956D01*
X20379792Y-39453703D01*
X20540071Y-39424705D01*
X20559741Y-39421543D01*
X20648436Y-39391593D01*
X20704318Y-39342142D01*
X20723753Y-39276130D01*
X20723753Y-39223214D01*
X21301541Y-39223214D01*
X21288852Y-39403023D01*
G37*
X21288852Y-39403023D02*
X21272874Y-39537238D01*
X21239604Y-39658161D01*
X21186464Y-39756288D01*
X21109642Y-39840930D01*
X21054559Y-39884177D01*
X20929691Y-39943706D01*
X20787253Y-39964851D01*
X20728600Y-39967195D01*
X20604764Y-39986782D01*
X20517408Y-40026337D01*
X20465644Y-40086391D01*
X20448586Y-40167475D01*
X20448586Y-40239214D01*
X19871037Y-40239214D01*
X19883584Y-40075172D01*
X19886843Y-40036390D01*
X19903696Y-39911782D01*
X19930733Y-39814425D01*
X19972085Y-39732609D01*
X20031879Y-39654626D01*
X20059924Y-39624395D01*
X20148650Y-39549507D01*
X20252296Y-39493956D01*
X20379792Y-39453703D01*
X20540071Y-39424705D01*
X20559741Y-39421543D01*
X20648436Y-39391593D01*
X20704318Y-39342142D01*
X20723753Y-39276130D01*
X20723753Y-39223214D01*
X21301541Y-39223214D01*
X21288852Y-39403023D01*
G36*
X28327552Y-28310151D02*
G01*
X28311343Y-28395584D01*
X28257590Y-28551472D01*
X28158996Y-28730998D01*
X28030167Y-28888238D01*
X27875831Y-29018564D01*
X27700718Y-29117350D01*
X27509555Y-29179972D01*
X27392150Y-29199112D01*
X27182303Y-29201946D01*
X26979489Y-29165642D01*
X26788453Y-29092258D01*
X26613940Y-28983850D01*
X26460695Y-28842474D01*
X26333462Y-28670188D01*
X26313559Y-28635258D01*
X26240657Y-28460577D01*
X26197587Y-28267788D01*
X26188407Y-28107695D01*
X26972454Y-28107695D01*
X26983441Y-28198288D01*
X27026382Y-28283241D01*
X27103686Y-28354886D01*
X27112880Y-28360551D01*
X27198997Y-28391752D01*
X27295200Y-28398246D01*
X27380670Y-28378273D01*
X27397422Y-28370021D01*
X27482367Y-28306290D01*
X27535217Y-28226639D01*
X27557552Y-28138588D01*
X27550949Y-28049661D01*
X27516988Y-27967379D01*
X27457249Y-27899264D01*
X27373311Y-27852839D01*
X27266752Y-27835626D01*
X27199891Y-27842300D01*
X27107140Y-27878766D01*
X27036712Y-27940266D01*
X26991014Y-28019131D01*
X26972454Y-28107695D01*
X26188407Y-28107695D01*
X26186150Y-28068327D01*
X26208144Y-27873630D01*
X26245859Y-27741360D01*
X26330502Y-27563443D01*
X26446536Y-27402933D01*
X26588617Y-27264763D01*
X26751406Y-27153868D01*
X26929558Y-27075180D01*
X27117733Y-27033632D01*
X27132986Y-27032002D01*
X27352192Y-27026138D01*
X27551250Y-27056550D01*
X27733779Y-27124556D01*
X27903397Y-27231478D01*
X28063725Y-27378636D01*
X28073278Y-27388949D01*
X28195193Y-27546039D01*
X28279120Y-27712558D01*
X28327682Y-27895278D01*
X28343502Y-28100975D01*
X28343503Y-28102567D01*
X28341951Y-28138588D01*
X28339092Y-28204969D01*
X28327552Y-28310151D01*
G37*
X28327552Y-28310151D02*
X28311343Y-28395584D01*
X28257590Y-28551472D01*
X28158996Y-28730998D01*
X28030167Y-28888238D01*
X27875831Y-29018564D01*
X27700718Y-29117350D01*
X27509555Y-29179972D01*
X27392150Y-29199112D01*
X27182303Y-29201946D01*
X26979489Y-29165642D01*
X26788453Y-29092258D01*
X26613940Y-28983850D01*
X26460695Y-28842474D01*
X26333462Y-28670188D01*
X26313559Y-28635258D01*
X26240657Y-28460577D01*
X26197587Y-28267788D01*
X26188407Y-28107695D01*
X26972454Y-28107695D01*
X26983441Y-28198288D01*
X27026382Y-28283241D01*
X27103686Y-28354886D01*
X27112880Y-28360551D01*
X27198997Y-28391752D01*
X27295200Y-28398246D01*
X27380670Y-28378273D01*
X27397422Y-28370021D01*
X27482367Y-28306290D01*
X27535217Y-28226639D01*
X27557552Y-28138588D01*
X27550949Y-28049661D01*
X27516988Y-27967379D01*
X27457249Y-27899264D01*
X27373311Y-27852839D01*
X27266752Y-27835626D01*
X27199891Y-27842300D01*
X27107140Y-27878766D01*
X27036712Y-27940266D01*
X26991014Y-28019131D01*
X26972454Y-28107695D01*
X26188407Y-28107695D01*
X26186150Y-28068327D01*
X26208144Y-27873630D01*
X26245859Y-27741360D01*
X26330502Y-27563443D01*
X26446536Y-27402933D01*
X26588617Y-27264763D01*
X26751406Y-27153868D01*
X26929558Y-27075180D01*
X27117733Y-27033632D01*
X27132986Y-27032002D01*
X27352192Y-27026138D01*
X27551250Y-27056550D01*
X27733779Y-27124556D01*
X27903397Y-27231478D01*
X28063725Y-27378636D01*
X28073278Y-27388949D01*
X28195193Y-27546039D01*
X28279120Y-27712558D01*
X28327682Y-27895278D01*
X28343502Y-28100975D01*
X28343503Y-28102567D01*
X28341951Y-28138588D01*
X28339092Y-28204969D01*
X28327552Y-28310151D01*
G36*
X23508897Y-27591084D02*
G01*
X23597808Y-27614370D01*
X23696107Y-27672818D01*
X23789103Y-27760913D01*
X23859598Y-27863755D01*
X23891699Y-27961585D01*
X23902394Y-28079052D01*
X23891159Y-28197150D01*
X23858057Y-28298005D01*
X23837787Y-28332515D01*
X23764268Y-28420748D01*
X23672510Y-28497084D01*
X23578352Y-28547400D01*
X23529704Y-28562105D01*
X23393351Y-28576289D01*
X23258425Y-28554855D01*
X23134939Y-28500236D01*
X23032907Y-28414864D01*
X23020440Y-28400149D01*
X22948697Y-28281825D01*
X22912908Y-28153183D01*
X22911420Y-28021507D01*
X22942582Y-27894077D01*
X23004742Y-27778176D01*
X23096248Y-27681086D01*
X23215448Y-27610089D01*
X23296780Y-27589394D01*
X23402092Y-27582686D01*
X23508897Y-27591084D01*
G37*
X23508897Y-27591084D02*
X23597808Y-27614370D01*
X23696107Y-27672818D01*
X23789103Y-27760913D01*
X23859598Y-27863755D01*
X23891699Y-27961585D01*
X23902394Y-28079052D01*
X23891159Y-28197150D01*
X23858057Y-28298005D01*
X23837787Y-28332515D01*
X23764268Y-28420748D01*
X23672510Y-28497084D01*
X23578352Y-28547400D01*
X23529704Y-28562105D01*
X23393351Y-28576289D01*
X23258425Y-28554855D01*
X23134939Y-28500236D01*
X23032907Y-28414864D01*
X23020440Y-28400149D01*
X22948697Y-28281825D01*
X22912908Y-28153183D01*
X22911420Y-28021507D01*
X22942582Y-27894077D01*
X23004742Y-27778176D01*
X23096248Y-27681086D01*
X23215448Y-27610089D01*
X23296780Y-27589394D01*
X23402092Y-27582686D01*
X23508897Y-27591084D01*
G36*
X21316420Y-36746714D02*
G01*
X20923445Y-36746714D01*
X20784979Y-36747407D01*
X20662003Y-36750395D01*
X20572252Y-36756537D01*
X20510880Y-36766676D01*
X20473042Y-36781659D01*
X20453893Y-36802329D01*
X20448586Y-36829533D01*
X20448672Y-36834899D01*
X20453723Y-36861754D01*
X20470266Y-36882038D01*
X20503441Y-36896778D01*
X20558388Y-36907002D01*
X20640247Y-36913738D01*
X20754157Y-36918014D01*
X20905259Y-36920858D01*
X21305836Y-36926630D01*
X21311773Y-37198140D01*
X21317709Y-37469650D01*
X20793189Y-37462723D01*
X20268670Y-37455797D01*
X20154535Y-37392586D01*
X20119990Y-37371597D01*
X20042477Y-37311026D01*
X19986837Y-37248437D01*
X19966408Y-37212551D01*
X19930717Y-37100442D01*
X19923617Y-36976937D01*
X19946731Y-36857839D01*
X19955686Y-36830565D01*
X19967386Y-36785628D01*
X19967067Y-36767880D01*
X19964036Y-36768558D01*
X19934144Y-36783084D01*
X19887067Y-36810586D01*
X19811358Y-36872430D01*
X19760047Y-36958289D01*
X19742827Y-37065151D01*
X19758536Y-37196505D01*
X19775964Y-37275880D01*
X19552104Y-37275880D01*
X19486062Y-37275655D01*
X19396968Y-37271538D01*
X19337123Y-37257179D01*
X19300706Y-37226160D01*
X19281899Y-37172064D01*
X19274882Y-37088471D01*
X19273836Y-36968964D01*
X19273841Y-36962145D01*
X19275917Y-36855176D01*
X19283052Y-36777142D01*
X19297112Y-36715436D01*
X19319964Y-36657449D01*
X19347382Y-36605228D01*
X19440792Y-36479155D01*
X19559740Y-36369810D01*
X19692210Y-36289080D01*
X19824170Y-36228130D01*
X20570295Y-36221830D01*
X21316420Y-36215529D01*
X21316420Y-36746714D01*
G37*
X21316420Y-36746714D02*
X20923445Y-36746714D01*
X20784979Y-36747407D01*
X20662003Y-36750395D01*
X20572252Y-36756537D01*
X20510880Y-36766676D01*
X20473042Y-36781659D01*
X20453893Y-36802329D01*
X20448586Y-36829533D01*
X20448672Y-36834899D01*
X20453723Y-36861754D01*
X20470266Y-36882038D01*
X20503441Y-36896778D01*
X20558388Y-36907002D01*
X20640247Y-36913738D01*
X20754157Y-36918014D01*
X20905259Y-36920858D01*
X21305836Y-36926630D01*
X21311773Y-37198140D01*
X21317709Y-37469650D01*
X20793189Y-37462723D01*
X20268670Y-37455797D01*
X20154535Y-37392586D01*
X20119990Y-37371597D01*
X20042477Y-37311026D01*
X19986837Y-37248437D01*
X19966408Y-37212551D01*
X19930717Y-37100442D01*
X19923617Y-36976937D01*
X19946731Y-36857839D01*
X19955686Y-36830565D01*
X19967386Y-36785628D01*
X19967067Y-36767880D01*
X19964036Y-36768558D01*
X19934144Y-36783084D01*
X19887067Y-36810586D01*
X19811358Y-36872430D01*
X19760047Y-36958289D01*
X19742827Y-37065151D01*
X19758536Y-37196505D01*
X19775964Y-37275880D01*
X19552104Y-37275880D01*
X19486062Y-37275655D01*
X19396968Y-37271538D01*
X19337123Y-37257179D01*
X19300706Y-37226160D01*
X19281899Y-37172064D01*
X19274882Y-37088471D01*
X19273836Y-36968964D01*
X19273841Y-36962145D01*
X19275917Y-36855176D01*
X19283052Y-36777142D01*
X19297112Y-36715436D01*
X19319964Y-36657449D01*
X19347382Y-36605228D01*
X19440792Y-36479155D01*
X19559740Y-36369810D01*
X19692210Y-36289080D01*
X19824170Y-36228130D01*
X20570295Y-36221830D01*
X21316420Y-36215529D01*
X21316420Y-36746714D01*
G36*
X25031436Y-31151471D02*
G01*
X25035553Y-31201451D01*
X25038821Y-31281290D01*
X25040976Y-31384170D01*
X25041753Y-31503274D01*
X25041753Y-31869000D01*
X24773811Y-31983129D01*
X24505868Y-32097258D01*
X24773811Y-32201927D01*
X25041753Y-32306595D01*
X25041753Y-32687419D01*
X25041599Y-32763412D01*
X25040255Y-32884752D01*
X25037270Y-32970438D01*
X25032326Y-33024901D01*
X25025106Y-33052573D01*
X25015295Y-33057887D01*
X25000469Y-33051797D01*
X24946267Y-33028515D01*
X24861840Y-32991609D01*
X24751494Y-32943002D01*
X24619536Y-32884620D01*
X24470276Y-32818387D01*
X24308020Y-32746227D01*
X24137075Y-32670065D01*
X23961751Y-32591826D01*
X23786353Y-32513433D01*
X23615191Y-32436812D01*
X23452571Y-32363887D01*
X23302801Y-32296583D01*
X23170189Y-32236823D01*
X23059043Y-32186533D01*
X22973669Y-32147636D01*
X22918377Y-32122058D01*
X22897473Y-32111723D01*
X22897487Y-32111306D01*
X22918395Y-32098741D01*
X22973191Y-32071033D01*
X23057670Y-32030106D01*
X23167627Y-31977883D01*
X23298858Y-31916287D01*
X23447157Y-31847241D01*
X23608319Y-31772668D01*
X23778141Y-31694490D01*
X23952418Y-31614632D01*
X24126944Y-31535015D01*
X24297514Y-31457563D01*
X24459925Y-31384199D01*
X24609971Y-31316845D01*
X24743448Y-31257426D01*
X24856151Y-31207863D01*
X24943874Y-31170081D01*
X25002414Y-31146001D01*
X25027565Y-31137547D01*
X25031436Y-31151471D01*
G37*
X25031436Y-31151471D02*
X25035553Y-31201451D01*
X25038821Y-31281290D01*
X25040976Y-31384170D01*
X25041753Y-31503274D01*
X25041753Y-31869000D01*
X24773811Y-31983129D01*
X24505868Y-32097258D01*
X24773811Y-32201927D01*
X25041753Y-32306595D01*
X25041753Y-32687419D01*
X25041599Y-32763412D01*
X25040255Y-32884752D01*
X25037270Y-32970438D01*
X25032326Y-33024901D01*
X25025106Y-33052573D01*
X25015295Y-33057887D01*
X25000469Y-33051797D01*
X24946267Y-33028515D01*
X24861840Y-32991609D01*
X24751494Y-32943002D01*
X24619536Y-32884620D01*
X24470276Y-32818387D01*
X24308020Y-32746227D01*
X24137075Y-32670065D01*
X23961751Y-32591826D01*
X23786353Y-32513433D01*
X23615191Y-32436812D01*
X23452571Y-32363887D01*
X23302801Y-32296583D01*
X23170189Y-32236823D01*
X23059043Y-32186533D01*
X22973669Y-32147636D01*
X22918377Y-32122058D01*
X22897473Y-32111723D01*
X22897487Y-32111306D01*
X22918395Y-32098741D01*
X22973191Y-32071033D01*
X23057670Y-32030106D01*
X23167627Y-31977883D01*
X23298858Y-31916287D01*
X23447157Y-31847241D01*
X23608319Y-31772668D01*
X23778141Y-31694490D01*
X23952418Y-31614632D01*
X24126944Y-31535015D01*
X24297514Y-31457563D01*
X24459925Y-31384199D01*
X24609971Y-31316845D01*
X24743448Y-31257426D01*
X24856151Y-31207863D01*
X24943874Y-31170081D01*
X25002414Y-31146001D01*
X25027565Y-31137547D01*
X25031436Y-31151471D01*
G36*
X20469753Y-31476214D02*
G01*
X20469761Y-31482093D01*
X20471281Y-31554002D01*
X20474923Y-31605001D01*
X20479948Y-31624380D01*
X20482195Y-31623737D01*
X20512210Y-31610031D01*
X20570684Y-31581200D01*
X20650427Y-31540833D01*
X20744250Y-31492514D01*
X20820130Y-31453494D01*
X20906996Y-31411088D01*
X20973836Y-31383256D01*
X21030810Y-31366548D01*
X21088075Y-31357512D01*
X21155788Y-31352698D01*
X21274933Y-31353233D01*
X21408636Y-31377309D01*
X21527153Y-31431550D01*
X21641958Y-31519903D01*
X21716799Y-31596908D01*
X21795286Y-31715314D01*
X21839778Y-31848281D01*
X21854465Y-32005380D01*
X21851035Y-32108074D01*
X21836388Y-32191447D01*
X21807152Y-32269964D01*
X21767471Y-32343570D01*
X21671588Y-32466256D01*
X21553975Y-32565689D01*
X21424686Y-32632345D01*
X21424360Y-32632461D01*
X21364001Y-32646307D01*
X21279635Y-32656414D01*
X21189420Y-32660601D01*
X21141191Y-32660267D01*
X21056502Y-32653581D01*
X20983788Y-32635206D01*
X20902442Y-32600851D01*
X20841860Y-32566761D01*
X20773201Y-32517442D01*
X20710751Y-32463165D01*
X20661804Y-32410979D01*
X20633656Y-32367931D01*
X20633600Y-32341071D01*
X20652684Y-32328001D01*
X20702409Y-32298110D01*
X20774011Y-32256907D01*
X20859304Y-32209174D01*
X20902917Y-32185168D01*
X20981016Y-32143545D01*
X21033633Y-32119278D01*
X21068625Y-32109801D01*
X21093854Y-32112547D01*
X21117177Y-32124949D01*
X21163474Y-32144809D01*
X21208682Y-32133399D01*
X21214581Y-32130091D01*
X21262841Y-32084899D01*
X21282800Y-32030476D01*
X21277557Y-31976738D01*
X21250212Y-31933602D01*
X21203864Y-31910983D01*
X21141611Y-31918798D01*
X21133397Y-31922420D01*
X21089370Y-31944201D01*
X21015103Y-31982334D01*
X20915577Y-32034215D01*
X20795776Y-32097237D01*
X20660683Y-32168797D01*
X20515279Y-32246288D01*
X20447880Y-32282283D01*
X20309849Y-32355798D01*
X20186271Y-32421346D01*
X20081717Y-32476520D01*
X20000757Y-32518911D01*
X19947962Y-32546112D01*
X19927904Y-32555714D01*
X19927333Y-32554330D01*
X19925218Y-32524011D01*
X19923325Y-32457973D01*
X19921726Y-32361478D01*
X19920493Y-32239790D01*
X19919700Y-32098170D01*
X19919420Y-31941880D01*
X19919420Y-31328047D01*
X20469753Y-31328047D01*
X20469753Y-31476214D01*
G37*
X20469753Y-31476214D02*
X20469761Y-31482093D01*
X20471281Y-31554002D01*
X20474923Y-31605001D01*
X20479948Y-31624380D01*
X20482195Y-31623737D01*
X20512210Y-31610031D01*
X20570684Y-31581200D01*
X20650427Y-31540833D01*
X20744250Y-31492514D01*
X20820130Y-31453494D01*
X20906996Y-31411088D01*
X20973836Y-31383256D01*
X21030810Y-31366548D01*
X21088075Y-31357512D01*
X21155788Y-31352698D01*
X21274933Y-31353233D01*
X21408636Y-31377309D01*
X21527153Y-31431550D01*
X21641958Y-31519903D01*
X21716799Y-31596908D01*
X21795286Y-31715314D01*
X21839778Y-31848281D01*
X21854465Y-32005380D01*
X21851035Y-32108074D01*
X21836388Y-32191447D01*
X21807152Y-32269964D01*
X21767471Y-32343570D01*
X21671588Y-32466256D01*
X21553975Y-32565689D01*
X21424686Y-32632345D01*
X21424360Y-32632461D01*
X21364001Y-32646307D01*
X21279635Y-32656414D01*
X21189420Y-32660601D01*
X21141191Y-32660267D01*
X21056502Y-32653581D01*
X20983788Y-32635206D01*
X20902442Y-32600851D01*
X20841860Y-32566761D01*
X20773201Y-32517442D01*
X20710751Y-32463165D01*
X20661804Y-32410979D01*
X20633656Y-32367931D01*
X20633600Y-32341071D01*
X20652684Y-32328001D01*
X20702409Y-32298110D01*
X20774011Y-32256907D01*
X20859304Y-32209174D01*
X20902917Y-32185168D01*
X20981016Y-32143545D01*
X21033633Y-32119278D01*
X21068625Y-32109801D01*
X21093854Y-32112547D01*
X21117177Y-32124949D01*
X21163474Y-32144809D01*
X21208682Y-32133399D01*
X21214581Y-32130091D01*
X21262841Y-32084899D01*
X21282800Y-32030476D01*
X21277557Y-31976738D01*
X21250212Y-31933602D01*
X21203864Y-31910983D01*
X21141611Y-31918798D01*
X21133397Y-31922420D01*
X21089370Y-31944201D01*
X21015103Y-31982334D01*
X20915577Y-32034215D01*
X20795776Y-32097237D01*
X20660683Y-32168797D01*
X20515279Y-32246288D01*
X20447880Y-32282283D01*
X20309849Y-32355798D01*
X20186271Y-32421346D01*
X20081717Y-32476520D01*
X20000757Y-32518911D01*
X19947962Y-32546112D01*
X19927904Y-32555714D01*
X19927333Y-32554330D01*
X19925218Y-32524011D01*
X19923325Y-32457973D01*
X19921726Y-32361478D01*
X19920493Y-32239790D01*
X19919700Y-32098170D01*
X19919420Y-31941880D01*
X19919420Y-31328047D01*
X20469753Y-31328047D01*
X20469753Y-31476214D01*
G36*
X23607711Y-36556526D02*
G01*
X23727524Y-36556756D01*
X23908093Y-36558054D01*
X24053675Y-36560655D01*
X24168950Y-36564750D01*
X24258595Y-36570528D01*
X24327290Y-36578180D01*
X24379715Y-36587895D01*
X24529842Y-36634355D01*
X24702313Y-36722359D01*
X24844624Y-36838783D01*
X24955121Y-36981366D01*
X25032147Y-37147846D01*
X25074048Y-37335962D01*
X25079169Y-37543452D01*
X25068696Y-37645143D01*
X25029678Y-37806524D01*
X24961295Y-37947860D01*
X24859458Y-38079114D01*
X24731568Y-38201563D01*
X24593898Y-38295961D01*
X24443875Y-38359513D01*
X24271242Y-38397777D01*
X24269703Y-38397995D01*
X24218266Y-38402240D01*
X24131526Y-38406237D01*
X24016175Y-38409810D01*
X23878905Y-38412785D01*
X23726409Y-38414987D01*
X23565378Y-38416240D01*
X22967420Y-38418880D01*
X22967420Y-37614547D01*
X23587127Y-37614547D01*
X23705331Y-37614459D01*
X23875115Y-37613601D01*
X24009217Y-37611229D01*
X24111825Y-37606621D01*
X24187127Y-37599057D01*
X24239309Y-37587815D01*
X24272560Y-37572174D01*
X24291066Y-37551411D01*
X24299015Y-37524807D01*
X24300596Y-37491638D01*
X24299777Y-37466470D01*
X24293675Y-37430808D01*
X24278095Y-37402497D01*
X24248931Y-37380695D01*
X24202075Y-37364560D01*
X24133422Y-37353248D01*
X24038865Y-37345917D01*
X23914298Y-37341723D01*
X23755614Y-37339826D01*
X23558709Y-37339380D01*
X22967420Y-37339380D01*
X22967420Y-36556214D01*
X23607711Y-36556526D01*
G37*
X23607711Y-36556526D02*
X23727524Y-36556756D01*
X23908093Y-36558054D01*
X24053675Y-36560655D01*
X24168950Y-36564750D01*
X24258595Y-36570528D01*
X24327290Y-36578180D01*
X24379715Y-36587895D01*
X24529842Y-36634355D01*
X24702313Y-36722359D01*
X24844624Y-36838783D01*
X24955121Y-36981366D01*
X25032147Y-37147846D01*
X25074048Y-37335962D01*
X25079169Y-37543452D01*
X25068696Y-37645143D01*
X25029678Y-37806524D01*
X24961295Y-37947860D01*
X24859458Y-38079114D01*
X24731568Y-38201563D01*
X24593898Y-38295961D01*
X24443875Y-38359513D01*
X24271242Y-38397777D01*
X24269703Y-38397995D01*
X24218266Y-38402240D01*
X24131526Y-38406237D01*
X24016175Y-38409810D01*
X23878905Y-38412785D01*
X23726409Y-38414987D01*
X23565378Y-38416240D01*
X22967420Y-38418880D01*
X22967420Y-37614547D01*
X23587127Y-37614547D01*
X23705331Y-37614459D01*
X23875115Y-37613601D01*
X24009217Y-37611229D01*
X24111825Y-37606621D01*
X24187127Y-37599057D01*
X24239309Y-37587815D01*
X24272560Y-37572174D01*
X24291066Y-37551411D01*
X24299015Y-37524807D01*
X24300596Y-37491638D01*
X24299777Y-37466470D01*
X24293675Y-37430808D01*
X24278095Y-37402497D01*
X24248931Y-37380695D01*
X24202075Y-37364560D01*
X24133422Y-37353248D01*
X24038865Y-37345917D01*
X23914298Y-37341723D01*
X23755614Y-37339826D01*
X23558709Y-37339380D01*
X22967420Y-37339380D01*
X22967420Y-36556214D01*
X23607711Y-36556526D01*
G36*
X20390378Y-33660217D02*
G01*
X20394233Y-33660272D01*
X20546535Y-33662605D01*
X20663026Y-33665128D01*
X20750087Y-33668538D01*
X20814096Y-33673535D01*
X20861429Y-33680816D01*
X20898468Y-33691079D01*
X20931588Y-33705022D01*
X20967170Y-33723343D01*
X21000650Y-33742177D01*
X21134811Y-33844352D01*
X21234610Y-33971193D01*
X21300142Y-34122850D01*
X21331502Y-34299474D01*
X21329407Y-34445243D01*
X21293437Y-34611245D01*
X21224153Y-34761549D01*
X21124989Y-34890695D01*
X20999377Y-34993224D01*
X20850753Y-35063679D01*
X20775307Y-35081425D01*
X20650490Y-35091845D01*
X20517173Y-35086531D01*
X20391617Y-35066391D01*
X20290085Y-35032334D01*
X20218315Y-34990822D01*
X20112181Y-34905848D01*
X20021690Y-34806054D01*
X19959537Y-34704050D01*
X19950847Y-34683384D01*
X19918243Y-34584421D01*
X19895101Y-34479490D01*
X19884121Y-34383421D01*
X19888001Y-34311041D01*
X19901617Y-34249047D01*
X20445631Y-34249047D01*
X20427250Y-34313139D01*
X20422129Y-34337373D01*
X20424554Y-34412833D01*
X20449437Y-34480751D01*
X20491755Y-34524660D01*
X20505447Y-34531217D01*
X20586917Y-34547102D01*
X20669318Y-34532319D01*
X20735347Y-34489373D01*
X20751720Y-34469798D01*
X20784667Y-34395976D01*
X20775842Y-34320732D01*
X20725381Y-34247419D01*
X20663510Y-34185547D01*
X19919420Y-34185547D01*
X19919420Y-33653470D01*
X20390378Y-33660217D01*
G37*
X20390378Y-33660217D02*
X20394233Y-33660272D01*
X20546535Y-33662605D01*
X20663026Y-33665128D01*
X20750087Y-33668538D01*
X20814096Y-33673535D01*
X20861429Y-33680816D01*
X20898468Y-33691079D01*
X20931588Y-33705022D01*
X20967170Y-33723343D01*
X21000650Y-33742177D01*
X21134811Y-33844352D01*
X21234610Y-33971193D01*
X21300142Y-34122850D01*
X21331502Y-34299474D01*
X21329407Y-34445243D01*
X21293437Y-34611245D01*
X21224153Y-34761549D01*
X21124989Y-34890695D01*
X20999377Y-34993224D01*
X20850753Y-35063679D01*
X20775307Y-35081425D01*
X20650490Y-35091845D01*
X20517173Y-35086531D01*
X20391617Y-35066391D01*
X20290085Y-35032334D01*
X20218315Y-34990822D01*
X20112181Y-34905848D01*
X20021690Y-34806054D01*
X19959537Y-34704050D01*
X19950847Y-34683384D01*
X19918243Y-34584421D01*
X19895101Y-34479490D01*
X19884121Y-34383421D01*
X19888001Y-34311041D01*
X19901617Y-34249047D01*
X20445631Y-34249047D01*
X20427250Y-34313139D01*
X20422129Y-34337373D01*
X20424554Y-34412833D01*
X20449437Y-34480751D01*
X20491755Y-34524660D01*
X20505447Y-34531217D01*
X20586917Y-34547102D01*
X20669318Y-34532319D01*
X20735347Y-34489373D01*
X20751720Y-34469798D01*
X20784667Y-34395976D01*
X20775842Y-34320732D01*
X20725381Y-34247419D01*
X20663510Y-34185547D01*
X19919420Y-34185547D01*
X19919420Y-33653470D01*
X20390378Y-33660217D01*
G36*
X28288390Y-34347461D02*
G01*
X28211711Y-34530470D01*
X28201660Y-34548755D01*
X28097021Y-34697018D01*
X27963056Y-34830290D01*
X27808837Y-34941878D01*
X27643435Y-35025092D01*
X27475920Y-35073239D01*
X27403384Y-35082704D01*
X27215962Y-35083976D01*
X27025503Y-35056094D01*
X26845150Y-35001567D01*
X26688046Y-34922902D01*
X26630405Y-34883231D01*
X26479495Y-34746418D01*
X26355903Y-34582608D01*
X26263201Y-34398387D01*
X26204960Y-34200338D01*
X26185698Y-34004646D01*
X26972918Y-34004646D01*
X26988963Y-34095476D01*
X27034534Y-34175383D01*
X27109859Y-34234887D01*
X27163663Y-34258234D01*
X27275279Y-34279518D01*
X27376993Y-34262303D01*
X27463877Y-34207959D01*
X27531004Y-34117856D01*
X27536470Y-34106548D01*
X27558213Y-34011164D01*
X27544637Y-33912430D01*
X27499067Y-33821837D01*
X27424829Y-33750880D01*
X27386250Y-33732503D01*
X27299757Y-33716675D01*
X27205389Y-33722064D01*
X27121563Y-33748798D01*
X27099658Y-33761437D01*
X27028494Y-33828145D01*
X26986172Y-33912375D01*
X26972918Y-34004646D01*
X26185698Y-34004646D01*
X26184753Y-33995047D01*
X26193364Y-33862074D01*
X26237219Y-33666196D01*
X26314713Y-33481418D01*
X26421924Y-33313510D01*
X26554931Y-33168238D01*
X26709812Y-33051372D01*
X26882644Y-32968678D01*
X26947097Y-32948018D01*
X27156262Y-32908336D01*
X27363665Y-32908550D01*
X27564633Y-32946970D01*
X27754496Y-33021906D01*
X27928581Y-33131671D01*
X28082216Y-33274573D01*
X28210729Y-33448924D01*
X28273140Y-33575880D01*
X28325233Y-33758028D01*
X28345144Y-33952901D01*
X28341553Y-34011164D01*
X28332866Y-34152159D01*
X28288390Y-34347461D01*
G37*
X28288390Y-34347461D02*
X28211711Y-34530470D01*
X28201660Y-34548755D01*
X28097021Y-34697018D01*
X27963056Y-34830290D01*
X27808837Y-34941878D01*
X27643435Y-35025092D01*
X27475920Y-35073239D01*
X27403384Y-35082704D01*
X27215962Y-35083976D01*
X27025503Y-35056094D01*
X26845150Y-35001567D01*
X26688046Y-34922902D01*
X26630405Y-34883231D01*
X26479495Y-34746418D01*
X26355903Y-34582608D01*
X26263201Y-34398387D01*
X26204960Y-34200338D01*
X26185698Y-34004646D01*
X26972918Y-34004646D01*
X26988963Y-34095476D01*
X27034534Y-34175383D01*
X27109859Y-34234887D01*
X27163663Y-34258234D01*
X27275279Y-34279518D01*
X27376993Y-34262303D01*
X27463877Y-34207959D01*
X27531004Y-34117856D01*
X27536470Y-34106548D01*
X27558213Y-34011164D01*
X27544637Y-33912430D01*
X27499067Y-33821837D01*
X27424829Y-33750880D01*
X27386250Y-33732503D01*
X27299757Y-33716675D01*
X27205389Y-33722064D01*
X27121563Y-33748798D01*
X27099658Y-33761437D01*
X27028494Y-33828145D01*
X26986172Y-33912375D01*
X26972918Y-34004646D01*
X26185698Y-34004646D01*
X26184753Y-33995047D01*
X26193364Y-33862074D01*
X26237219Y-33666196D01*
X26314713Y-33481418D01*
X26421924Y-33313510D01*
X26554931Y-33168238D01*
X26709812Y-33051372D01*
X26882644Y-32968678D01*
X26947097Y-32948018D01*
X27156262Y-32908336D01*
X27363665Y-32908550D01*
X27564633Y-32946970D01*
X27754496Y-33021906D01*
X27928581Y-33131671D01*
X28082216Y-33274573D01*
X28210729Y-33448924D01*
X28273140Y-33575880D01*
X28325233Y-33758028D01*
X28345144Y-33952901D01*
X28341553Y-34011164D01*
X28332866Y-34152159D01*
X28288390Y-34347461D01*
G36*
X25803753Y-30481380D02*
G01*
X22967420Y-30481380D01*
X22967420Y-29677047D01*
X25803753Y-29677047D01*
X25803753Y-30481380D01*
G37*
X25803753Y-30481380D02*
X22967420Y-30481380D01*
X22967420Y-29677047D01*
X25803753Y-29677047D01*
X25803753Y-30481380D01*
G36*
X28917897Y-31813209D02*
G01*
X29016708Y-31844366D01*
X29061770Y-31874506D01*
X29133373Y-31948979D01*
X29190601Y-32039782D01*
X29221901Y-32130789D01*
X29226163Y-32193408D01*
X29206172Y-32307909D01*
X29156037Y-32416266D01*
X29081857Y-32506979D01*
X28989730Y-32568550D01*
X28989208Y-32568777D01*
X28875529Y-32596605D01*
X28760637Y-32587084D01*
X28653653Y-32543890D01*
X28563699Y-32470699D01*
X28499896Y-32371185D01*
X28472079Y-32259488D01*
X28475915Y-32134811D01*
X28510583Y-32014680D01*
X28573797Y-31913255D01*
X28610197Y-31880031D01*
X28701044Y-31833157D01*
X28808143Y-31810178D01*
X28917897Y-31813209D01*
G37*
X28917897Y-31813209D02*
X29016708Y-31844366D01*
X29061770Y-31874506D01*
X29133373Y-31948979D01*
X29190601Y-32039782D01*
X29221901Y-32130789D01*
X29226163Y-32193408D01*
X29206172Y-32307909D01*
X29156037Y-32416266D01*
X29081857Y-32506979D01*
X28989730Y-32568550D01*
X28989208Y-32568777D01*
X28875529Y-32596605D01*
X28760637Y-32587084D01*
X28653653Y-32543890D01*
X28563699Y-32470699D01*
X28499896Y-32371185D01*
X28472079Y-32259488D01*
X28475915Y-32134811D01*
X28510583Y-32014680D01*
X28573797Y-31913255D01*
X28610197Y-31880031D01*
X28701044Y-31833157D01*
X28808143Y-31810178D01*
X28917897Y-31813209D01*
G36*
X25051089Y-35433518D02*
G01*
X25019533Y-35539815D01*
X24936441Y-35712775D01*
X24821340Y-35872025D01*
X24680662Y-36010575D01*
X24520835Y-36121434D01*
X24348292Y-36197611D01*
X24268524Y-36217433D01*
X24123797Y-36235232D01*
X23966877Y-36237693D01*
X23814274Y-36224839D01*
X23682498Y-36196693D01*
X23588931Y-36163119D01*
X23410487Y-36069176D01*
X23258124Y-35947556D01*
X23132968Y-35802937D01*
X23036141Y-35639999D01*
X22968767Y-35463418D01*
X22931971Y-35277874D01*
X22928328Y-35142179D01*
X23710627Y-35142179D01*
X23720960Y-35237566D01*
X23764706Y-35324125D01*
X23841572Y-35392904D01*
X23912921Y-35421841D01*
X24004586Y-35434222D01*
X24076999Y-35426984D01*
X24174602Y-35388313D01*
X24246853Y-35321039D01*
X24288705Y-35230578D01*
X24295113Y-35122347D01*
X24292735Y-35105686D01*
X24257471Y-35010845D01*
X24193605Y-34937351D01*
X24109850Y-34888802D01*
X24014921Y-34868796D01*
X23917531Y-34880931D01*
X23826394Y-34928805D01*
X23791372Y-34960716D01*
X23734001Y-35046912D01*
X23710627Y-35142179D01*
X22928328Y-35142179D01*
X22926875Y-35088044D01*
X22954603Y-34898607D01*
X23016280Y-34714241D01*
X23113029Y-34539624D01*
X23245973Y-34379433D01*
X23302569Y-34326614D01*
X23470917Y-34205987D01*
X23653796Y-34121510D01*
X23846011Y-34073199D01*
X24042365Y-34061071D01*
X24237661Y-34085140D01*
X24426703Y-34145425D01*
X24604296Y-34241940D01*
X24765242Y-34374702D01*
X24816908Y-34429559D01*
X24942940Y-34601884D01*
X25029635Y-34789410D01*
X25076733Y-34991169D01*
X25081149Y-35122347D01*
X25083971Y-35206195D01*
X25051089Y-35433518D01*
G37*
X25051089Y-35433518D02*
X25019533Y-35539815D01*
X24936441Y-35712775D01*
X24821340Y-35872025D01*
X24680662Y-36010575D01*
X24520835Y-36121434D01*
X24348292Y-36197611D01*
X24268524Y-36217433D01*
X24123797Y-36235232D01*
X23966877Y-36237693D01*
X23814274Y-36224839D01*
X23682498Y-36196693D01*
X23588931Y-36163119D01*
X23410487Y-36069176D01*
X23258124Y-35947556D01*
X23132968Y-35802937D01*
X23036141Y-35639999D01*
X22968767Y-35463418D01*
X22931971Y-35277874D01*
X22928328Y-35142179D01*
X23710627Y-35142179D01*
X23720960Y-35237566D01*
X23764706Y-35324125D01*
X23841572Y-35392904D01*
X23912921Y-35421841D01*
X24004586Y-35434222D01*
X24076999Y-35426984D01*
X24174602Y-35388313D01*
X24246853Y-35321039D01*
X24288705Y-35230578D01*
X24295113Y-35122347D01*
X24292735Y-35105686D01*
X24257471Y-35010845D01*
X24193605Y-34937351D01*
X24109850Y-34888802D01*
X24014921Y-34868796D01*
X23917531Y-34880931D01*
X23826394Y-34928805D01*
X23791372Y-34960716D01*
X23734001Y-35046912D01*
X23710627Y-35142179D01*
X22928328Y-35142179D01*
X22926875Y-35088044D01*
X22954603Y-34898607D01*
X23016280Y-34714241D01*
X23113029Y-34539624D01*
X23245973Y-34379433D01*
X23302569Y-34326614D01*
X23470917Y-34205987D01*
X23653796Y-34121510D01*
X23846011Y-34073199D01*
X24042365Y-34061071D01*
X24237661Y-34085140D01*
X24426703Y-34145425D01*
X24604296Y-34241940D01*
X24765242Y-34374702D01*
X24816908Y-34429559D01*
X24942940Y-34601884D01*
X25029635Y-34789410D01*
X25076733Y-34991169D01*
X25081149Y-35122347D01*
X25083971Y-35206195D01*
X25051089Y-35433518D01*
G36*
X28301420Y-32598047D02*
G01*
X26227086Y-32598047D01*
X26227086Y-31814880D01*
X28301420Y-31814880D01*
X28301420Y-32598047D01*
G37*
X28301420Y-32598047D02*
X26227086Y-32598047D01*
X26227086Y-31814880D01*
X28301420Y-31814880D01*
X28301420Y-32598047D01*
G36*
X26909711Y-29512626D02*
G01*
X27088568Y-29515101D01*
X27244621Y-29517803D01*
X27368509Y-29520893D01*
X27465498Y-29524720D01*
X27540854Y-29529634D01*
X27599840Y-29535984D01*
X27647724Y-29544119D01*
X27689769Y-29554389D01*
X27731241Y-29567143D01*
X27781866Y-29585265D01*
X27953504Y-29672884D01*
X28096109Y-29789831D01*
X28207879Y-29933354D01*
X28287009Y-30100705D01*
X28331698Y-30289132D01*
X28340142Y-30495887D01*
X28335094Y-30573936D01*
X28322744Y-30662676D01*
X28300552Y-30740593D01*
X28264263Y-30826209D01*
X28229894Y-30891974D01*
X28118344Y-31045250D01*
X27977256Y-31174938D01*
X27813681Y-31275279D01*
X27634670Y-31340513D01*
X27620825Y-31343455D01*
X27550474Y-31352052D01*
X27442075Y-31358824D01*
X27294566Y-31363809D01*
X27106882Y-31367048D01*
X26877961Y-31368580D01*
X26227086Y-31370380D01*
X26227086Y-30587214D01*
X26804018Y-30587214D01*
X26949349Y-30586853D01*
X27119647Y-30584949D01*
X27254633Y-30581069D01*
X27358394Y-30574837D01*
X27435015Y-30565873D01*
X27488582Y-30553799D01*
X27523182Y-30538237D01*
X27542899Y-30518809D01*
X27557904Y-30476247D01*
X27554434Y-30408529D01*
X27525556Y-30350755D01*
X27516939Y-30342576D01*
X27500491Y-30333189D01*
X27474649Y-30325941D01*
X27434707Y-30320557D01*
X27375959Y-30316765D01*
X27293701Y-30314291D01*
X27183226Y-30312862D01*
X27039830Y-30312205D01*
X26858806Y-30312047D01*
X26227086Y-30312047D01*
X26227086Y-29503760D01*
X26909711Y-29512626D01*
G37*
X26909711Y-29512626D02*
X27088568Y-29515101D01*
X27244621Y-29517803D01*
X27368509Y-29520893D01*
X27465498Y-29524720D01*
X27540854Y-29529634D01*
X27599840Y-29535984D01*
X27647724Y-29544119D01*
X27689769Y-29554389D01*
X27731241Y-29567143D01*
X27781866Y-29585265D01*
X27953504Y-29672884D01*
X28096109Y-29789831D01*
X28207879Y-29933354D01*
X28287009Y-30100705D01*
X28331698Y-30289132D01*
X28340142Y-30495887D01*
X28335094Y-30573936D01*
X28322744Y-30662676D01*
X28300552Y-30740593D01*
X28264263Y-30826209D01*
X28229894Y-30891974D01*
X28118344Y-31045250D01*
X27977256Y-31174938D01*
X27813681Y-31275279D01*
X27634670Y-31340513D01*
X27620825Y-31343455D01*
X27550474Y-31352052D01*
X27442075Y-31358824D01*
X27294566Y-31363809D01*
X27106882Y-31367048D01*
X26877961Y-31368580D01*
X26227086Y-31370380D01*
X26227086Y-30587214D01*
X26804018Y-30587214D01*
X26949349Y-30586853D01*
X27119647Y-30584949D01*
X27254633Y-30581069D01*
X27358394Y-30574837D01*
X27435015Y-30565873D01*
X27488582Y-30553799D01*
X27523182Y-30538237D01*
X27542899Y-30518809D01*
X27557904Y-30476247D01*
X27554434Y-30408529D01*
X27525556Y-30350755D01*
X27516939Y-30342576D01*
X27500491Y-30333189D01*
X27474649Y-30325941D01*
X27434707Y-30320557D01*
X27375959Y-30316765D01*
X27293701Y-30314291D01*
X27183226Y-30312862D01*
X27039830Y-30312205D01*
X26858806Y-30312047D01*
X26227086Y-30312047D01*
X26227086Y-29503760D01*
X26909711Y-29512626D01*
G36*
X29063420Y-43435380D02*
G01*
X28237920Y-43435380D01*
X28237920Y-42800380D01*
X26227086Y-42800380D01*
X26227086Y-41932547D01*
X28237920Y-41932547D01*
X28237920Y-41297547D01*
X29063420Y-41297547D01*
X29063420Y-43435380D01*
G37*
X29063420Y-43435380D02*
X28237920Y-43435380D01*
X28237920Y-42800380D01*
X26227086Y-42800380D01*
X26227086Y-41932547D01*
X28237920Y-41932547D01*
X28237920Y-41297547D01*
X29063420Y-41297547D01*
X29063420Y-43435380D01*
G36*
X28335011Y-37691002D02*
G01*
X28336855Y-37703037D01*
X28341339Y-37768873D01*
X28342078Y-37857014D01*
X28338842Y-37951835D01*
X28329772Y-38043811D01*
X28285700Y-38221321D01*
X28207135Y-38375631D01*
X28093108Y-38508944D01*
X28064352Y-38534958D01*
X27950122Y-38620349D01*
X27824087Y-38684359D01*
X27676368Y-38731234D01*
X27497086Y-38765222D01*
X27494085Y-38765574D01*
X27453163Y-38767670D01*
X27376826Y-38769738D01*
X27270988Y-38771683D01*
X27141566Y-38773410D01*
X26994474Y-38774825D01*
X26835628Y-38775831D01*
X26227086Y-38778714D01*
X26227086Y-37974380D01*
X26778100Y-37974380D01*
X26880204Y-37974235D01*
X27047607Y-37972869D01*
X27179823Y-37969488D01*
X27281552Y-37963397D01*
X27357495Y-37953898D01*
X27412353Y-37940298D01*
X27450826Y-37921900D01*
X27477613Y-37898009D01*
X27497417Y-37867929D01*
X27512399Y-37809455D01*
X27509271Y-37729885D01*
X27487464Y-37651589D01*
X27486148Y-37648323D01*
X27485090Y-37636542D01*
X27495264Y-37627863D01*
X27521853Y-37621816D01*
X27570041Y-37617931D01*
X27645011Y-37615738D01*
X27751946Y-37614766D01*
X27896029Y-37614547D01*
X28320668Y-37614547D01*
X28335011Y-37691002D01*
G37*
X28335011Y-37691002D02*
X28336855Y-37703037D01*
X28341339Y-37768873D01*
X28342078Y-37857014D01*
X28338842Y-37951835D01*
X28329772Y-38043811D01*
X28285700Y-38221321D01*
X28207135Y-38375631D01*
X28093108Y-38508944D01*
X28064352Y-38534958D01*
X27950122Y-38620349D01*
X27824087Y-38684359D01*
X27676368Y-38731234D01*
X27497086Y-38765222D01*
X27494085Y-38765574D01*
X27453163Y-38767670D01*
X27376826Y-38769738D01*
X27270988Y-38771683D01*
X27141566Y-38773410D01*
X26994474Y-38774825D01*
X26835628Y-38775831D01*
X26227086Y-38778714D01*
X26227086Y-37974380D01*
X26778100Y-37974380D01*
X26880204Y-37974235D01*
X27047607Y-37972869D01*
X27179823Y-37969488D01*
X27281552Y-37963397D01*
X27357495Y-37953898D01*
X27412353Y-37940298D01*
X27450826Y-37921900D01*
X27477613Y-37898009D01*
X27497417Y-37867929D01*
X27512399Y-37809455D01*
X27509271Y-37729885D01*
X27487464Y-37651589D01*
X27486148Y-37648323D01*
X27485090Y-37636542D01*
X27495264Y-37627863D01*
X27521853Y-37621816D01*
X27570041Y-37617931D01*
X27645011Y-37615738D01*
X27751946Y-37614766D01*
X27896029Y-37614547D01*
X28320668Y-37614547D01*
X28335011Y-37691002D01*
G36*
X27332492Y-35287775D02*
G01*
X27528982Y-35313656D01*
X27706501Y-35373511D01*
X27871714Y-35470123D01*
X28031285Y-35606273D01*
X28091353Y-35669471D01*
X28208973Y-35828760D01*
X28288261Y-36000374D01*
X28331107Y-36189181D01*
X28339401Y-36400050D01*
X28333170Y-36566797D01*
X27901959Y-36572535D01*
X27850107Y-36573209D01*
X27717438Y-36574583D01*
X27620188Y-36574613D01*
X27553151Y-36572904D01*
X27511120Y-36569061D01*
X27488888Y-36562690D01*
X27481249Y-36553396D01*
X27482996Y-36540785D01*
X27489900Y-36519593D01*
X27517192Y-36431980D01*
X27531543Y-36371695D01*
X27533749Y-36328144D01*
X27524603Y-36290733D01*
X27504902Y-36248868D01*
X27486618Y-36218130D01*
X27413116Y-36143353D01*
X27321118Y-36101769D01*
X27219563Y-36096139D01*
X27117392Y-36129224D01*
X27104313Y-36136703D01*
X27030732Y-36202469D01*
X26985893Y-36286473D01*
X26970126Y-36379175D01*
X26983763Y-36471035D01*
X27027134Y-36552511D01*
X27100570Y-36614064D01*
X27107958Y-36617865D01*
X27129247Y-36626224D01*
X27157829Y-36633163D01*
X27197595Y-36638849D01*
X27252441Y-36643449D01*
X27326260Y-36647129D01*
X27422945Y-36650057D01*
X27546388Y-36652399D01*
X27700485Y-36654322D01*
X27889129Y-36655993D01*
X28116211Y-36657579D01*
X29063420Y-36663694D01*
X29063420Y-37469670D01*
X28073878Y-37460822D01*
X27932247Y-37459494D01*
X27715997Y-37457112D01*
X27536049Y-37454522D01*
X27388568Y-37451576D01*
X27269718Y-37448124D01*
X27175663Y-37444020D01*
X27102568Y-37439113D01*
X27046599Y-37433256D01*
X27003918Y-37426299D01*
X26970692Y-37418095D01*
X26880544Y-37387505D01*
X26687961Y-37292999D01*
X26522909Y-37168363D01*
X26387829Y-37016120D01*
X26285161Y-36838795D01*
X26217345Y-36638910D01*
X26189420Y-36461644D01*
X26191699Y-36255375D01*
X26230122Y-36059180D01*
X26301756Y-35876847D01*
X26403664Y-35712167D01*
X26532914Y-35568931D01*
X26686571Y-35450927D01*
X26861700Y-35361946D01*
X27055368Y-35305778D01*
X27264640Y-35286214D01*
X27332492Y-35287775D01*
G37*
X27332492Y-35287775D02*
X27528982Y-35313656D01*
X27706501Y-35373511D01*
X27871714Y-35470123D01*
X28031285Y-35606273D01*
X28091353Y-35669471D01*
X28208973Y-35828760D01*
X28288261Y-36000374D01*
X28331107Y-36189181D01*
X28339401Y-36400050D01*
X28333170Y-36566797D01*
X27901959Y-36572535D01*
X27850107Y-36573209D01*
X27717438Y-36574583D01*
X27620188Y-36574613D01*
X27553151Y-36572904D01*
X27511120Y-36569061D01*
X27488888Y-36562690D01*
X27481249Y-36553396D01*
X27482996Y-36540785D01*
X27489900Y-36519593D01*
X27517192Y-36431980D01*
X27531543Y-36371695D01*
X27533749Y-36328144D01*
X27524603Y-36290733D01*
X27504902Y-36248868D01*
X27486618Y-36218130D01*
X27413116Y-36143353D01*
X27321118Y-36101769D01*
X27219563Y-36096139D01*
X27117392Y-36129224D01*
X27104313Y-36136703D01*
X27030732Y-36202469D01*
X26985893Y-36286473D01*
X26970126Y-36379175D01*
X26983763Y-36471035D01*
X27027134Y-36552511D01*
X27100570Y-36614064D01*
X27107958Y-36617865D01*
X27129247Y-36626224D01*
X27157829Y-36633163D01*
X27197595Y-36638849D01*
X27252441Y-36643449D01*
X27326260Y-36647129D01*
X27422945Y-36650057D01*
X27546388Y-36652399D01*
X27700485Y-36654322D01*
X27889129Y-36655993D01*
X28116211Y-36657579D01*
X29063420Y-36663694D01*
X29063420Y-37469670D01*
X28073878Y-37460822D01*
X27932247Y-37459494D01*
X27715997Y-37457112D01*
X27536049Y-37454522D01*
X27388568Y-37451576D01*
X27269718Y-37448124D01*
X27175663Y-37444020D01*
X27102568Y-37439113D01*
X27046599Y-37433256D01*
X27003918Y-37426299D01*
X26970692Y-37418095D01*
X26880544Y-37387505D01*
X26687961Y-37292999D01*
X26522909Y-37168363D01*
X26387829Y-37016120D01*
X26285161Y-36838795D01*
X26217345Y-36638910D01*
X26189420Y-36461644D01*
X26191699Y-36255375D01*
X26230122Y-36059180D01*
X26301756Y-35876847D01*
X26403664Y-35712167D01*
X26532914Y-35568931D01*
X26686571Y-35450927D01*
X26861700Y-35361946D01*
X27055368Y-35305778D01*
X27264640Y-35286214D01*
X27332492Y-35287775D01*
G36*
X20469753Y-28421665D02*
G01*
X20746173Y-28282064D01*
X20809765Y-28250015D01*
X20901129Y-28205072D01*
X20969239Y-28174814D01*
X21023441Y-28156345D01*
X21073082Y-28146771D01*
X21127508Y-28143198D01*
X21196064Y-28142731D01*
X21274811Y-28144280D01*
X21352010Y-28152266D01*
X21417728Y-28170206D01*
X21489251Y-28201570D01*
X21609283Y-28277604D01*
X21725282Y-28393535D01*
X21810037Y-28531456D01*
X21833243Y-28601497D01*
X21851313Y-28715371D01*
X21854990Y-28838869D01*
X21844019Y-28955608D01*
X21818142Y-29049205D01*
X21755863Y-29160820D01*
X21651237Y-29282001D01*
X21524494Y-29376637D01*
X21384315Y-29436968D01*
X21297455Y-29454933D01*
X21136838Y-29457065D01*
X20979820Y-29421998D01*
X20835204Y-29352178D01*
X20711794Y-29250052D01*
X20710355Y-29248513D01*
X20662629Y-29195331D01*
X20630577Y-29155599D01*
X20621068Y-29137815D01*
X20638238Y-29126977D01*
X20685465Y-29099232D01*
X20754960Y-29059214D01*
X20839064Y-29011366D01*
X20860954Y-28999007D01*
X20947185Y-28951567D01*
X21006860Y-28922428D01*
X21048063Y-28908722D01*
X21078874Y-28907581D01*
X21107379Y-28916134D01*
X21175592Y-28929926D01*
X21236438Y-28910349D01*
X21275861Y-28857462D01*
X21282521Y-28826359D01*
X21271645Y-28767624D01*
X21236826Y-28721838D01*
X21186412Y-28703380D01*
X21178949Y-28704956D01*
X21136273Y-28721983D01*
X21063309Y-28755747D01*
X20965018Y-28803796D01*
X20846360Y-28863681D01*
X20712292Y-28932948D01*
X20567775Y-29009148D01*
X20509312Y-29040247D01*
X20368767Y-29114761D01*
X20241048Y-29182132D01*
X20131057Y-29239796D01*
X20043695Y-29285190D01*
X19983863Y-29315750D01*
X19956461Y-29328913D01*
X19948182Y-29330871D01*
X19939237Y-29326790D01*
X19932361Y-29311072D01*
X19927283Y-29279331D01*
X19923733Y-29227183D01*
X19921441Y-29150242D01*
X19920138Y-29044123D01*
X19919555Y-28904441D01*
X19919420Y-28726811D01*
X19919420Y-28110714D01*
X20469753Y-28110714D01*
X20469753Y-28421665D01*
G37*
X20469753Y-28421665D02*
X20746173Y-28282064D01*
X20809765Y-28250015D01*
X20901129Y-28205072D01*
X20969239Y-28174814D01*
X21023441Y-28156345D01*
X21073082Y-28146771D01*
X21127508Y-28143198D01*
X21196064Y-28142731D01*
X21274811Y-28144280D01*
X21352010Y-28152266D01*
X21417728Y-28170206D01*
X21489251Y-28201570D01*
X21609283Y-28277604D01*
X21725282Y-28393535D01*
X21810037Y-28531456D01*
X21833243Y-28601497D01*
X21851313Y-28715371D01*
X21854990Y-28838869D01*
X21844019Y-28955608D01*
X21818142Y-29049205D01*
X21755863Y-29160820D01*
X21651237Y-29282001D01*
X21524494Y-29376637D01*
X21384315Y-29436968D01*
X21297455Y-29454933D01*
X21136838Y-29457065D01*
X20979820Y-29421998D01*
X20835204Y-29352178D01*
X20711794Y-29250052D01*
X20710355Y-29248513D01*
X20662629Y-29195331D01*
X20630577Y-29155599D01*
X20621068Y-29137815D01*
X20638238Y-29126977D01*
X20685465Y-29099232D01*
X20754960Y-29059214D01*
X20839064Y-29011366D01*
X20860954Y-28999007D01*
X20947185Y-28951567D01*
X21006860Y-28922428D01*
X21048063Y-28908722D01*
X21078874Y-28907581D01*
X21107379Y-28916134D01*
X21175592Y-28929926D01*
X21236438Y-28910349D01*
X21275861Y-28857462D01*
X21282521Y-28826359D01*
X21271645Y-28767624D01*
X21236826Y-28721838D01*
X21186412Y-28703380D01*
X21178949Y-28704956D01*
X21136273Y-28721983D01*
X21063309Y-28755747D01*
X20965018Y-28803796D01*
X20846360Y-28863681D01*
X20712292Y-28932948D01*
X20567775Y-29009148D01*
X20509312Y-29040247D01*
X20368767Y-29114761D01*
X20241048Y-29182132D01*
X20131057Y-29239796D01*
X20043695Y-29285190D01*
X19983863Y-29315750D01*
X19956461Y-29328913D01*
X19948182Y-29330871D01*
X19939237Y-29326790D01*
X19932361Y-29311072D01*
X19927283Y-29279331D01*
X19923733Y-29227183D01*
X19921441Y-29150242D01*
X19920138Y-29044123D01*
X19919555Y-28904441D01*
X19919420Y-28726811D01*
X19919420Y-28110714D01*
X20469753Y-28110714D01*
X20469753Y-28421665D01*
G36*
X23554795Y-38842581D02*
G01*
X23661471Y-38842824D01*
X23850434Y-38844650D01*
X24005569Y-38848828D01*
X24132568Y-38856043D01*
X24237125Y-38866980D01*
X24324933Y-38882323D01*
X24401686Y-38902757D01*
X24473076Y-38928968D01*
X24544798Y-38961638D01*
X24597914Y-38989602D01*
X24757258Y-39102801D01*
X24885602Y-39244276D01*
X24982214Y-39412838D01*
X25046362Y-39607296D01*
X25077314Y-39826464D01*
X25080821Y-39928590D01*
X25069804Y-40103090D01*
X25033419Y-40262092D01*
X24969158Y-40419339D01*
X24961193Y-40435207D01*
X24849834Y-40607394D01*
X24707840Y-40754079D01*
X24540728Y-40871322D01*
X24354017Y-40955185D01*
X24153224Y-41001730D01*
X24077271Y-41009161D01*
X23865137Y-41004225D01*
X23666152Y-40962520D01*
X23483744Y-40887130D01*
X23321339Y-40781141D01*
X23182367Y-40647638D01*
X23070254Y-40489707D01*
X22988429Y-40310431D01*
X22940318Y-40112897D01*
X22929351Y-39900190D01*
X22935670Y-39741797D01*
X23345571Y-39736040D01*
X23370864Y-39735688D01*
X23505739Y-39734096D01*
X23604420Y-39733854D01*
X23672192Y-39735388D01*
X23714339Y-39739123D01*
X23736147Y-39745484D01*
X23742900Y-39754898D01*
X23739884Y-39767790D01*
X23735266Y-39781662D01*
X23723375Y-39836423D01*
X23713711Y-39904485D01*
X23711927Y-39957354D01*
X23734476Y-40056379D01*
X23790135Y-40131872D01*
X23875319Y-40179987D01*
X23986442Y-40196880D01*
X24080326Y-40182792D01*
X24168424Y-40131990D01*
X24237877Y-40043375D01*
X24252023Y-40015065D01*
X24275275Y-39915858D01*
X24259118Y-39821911D01*
X24205733Y-39739856D01*
X24117297Y-39676324D01*
X24101795Y-39669175D01*
X24070067Y-39658116D01*
X24029710Y-39649550D01*
X23975107Y-39643042D01*
X23900639Y-39638162D01*
X23800690Y-39634476D01*
X23669642Y-39631552D01*
X23501878Y-39628958D01*
X22967420Y-39621643D01*
X22967420Y-38842214D01*
X23554795Y-38842581D01*
G37*
X23554795Y-38842581D02*
X23661471Y-38842824D01*
X23850434Y-38844650D01*
X24005569Y-38848828D01*
X24132568Y-38856043D01*
X24237125Y-38866980D01*
X24324933Y-38882323D01*
X24401686Y-38902757D01*
X24473076Y-38928968D01*
X24544798Y-38961638D01*
X24597914Y-38989602D01*
X24757258Y-39102801D01*
X24885602Y-39244276D01*
X24982214Y-39412838D01*
X25046362Y-39607296D01*
X25077314Y-39826464D01*
X25080821Y-39928590D01*
X25069804Y-40103090D01*
X25033419Y-40262092D01*
X24969158Y-40419339D01*
X24961193Y-40435207D01*
X24849834Y-40607394D01*
X24707840Y-40754079D01*
X24540728Y-40871322D01*
X24354017Y-40955185D01*
X24153224Y-41001730D01*
X24077271Y-41009161D01*
X23865137Y-41004225D01*
X23666152Y-40962520D01*
X23483744Y-40887130D01*
X23321339Y-40781141D01*
X23182367Y-40647638D01*
X23070254Y-40489707D01*
X22988429Y-40310431D01*
X22940318Y-40112897D01*
X22929351Y-39900190D01*
X22935670Y-39741797D01*
X23345571Y-39736040D01*
X23370864Y-39735688D01*
X23505739Y-39734096D01*
X23604420Y-39733854D01*
X23672192Y-39735388D01*
X23714339Y-39739123D01*
X23736147Y-39745484D01*
X23742900Y-39754898D01*
X23739884Y-39767790D01*
X23735266Y-39781662D01*
X23723375Y-39836423D01*
X23713711Y-39904485D01*
X23711927Y-39957354D01*
X23734476Y-40056379D01*
X23790135Y-40131872D01*
X23875319Y-40179987D01*
X23986442Y-40196880D01*
X24080326Y-40182792D01*
X24168424Y-40131990D01*
X24237877Y-40043375D01*
X24252023Y-40015065D01*
X24275275Y-39915858D01*
X24259118Y-39821911D01*
X24205733Y-39739856D01*
X24117297Y-39676324D01*
X24101795Y-39669175D01*
X24070067Y-39658116D01*
X24029710Y-39649550D01*
X23975107Y-39643042D01*
X23900639Y-39638162D01*
X23800690Y-39634476D01*
X23669642Y-39631552D01*
X23501878Y-39628958D01*
X22967420Y-39621643D01*
X22967420Y-38842214D01*
X23554795Y-38842581D01*
G36*
X21329368Y-35214019D02*
G01*
X21338696Y-35296871D01*
X21329492Y-35410743D01*
X21301611Y-35527401D01*
X21258000Y-35629684D01*
X21225783Y-35678731D01*
X21138693Y-35772832D01*
X21034543Y-35849893D01*
X20927832Y-35898128D01*
X20916604Y-35900430D01*
X20861591Y-35906002D01*
X20774270Y-35910959D01*
X20661834Y-35915017D01*
X20531472Y-35917893D01*
X20390378Y-35919305D01*
X19919420Y-35921214D01*
X19919420Y-35392047D01*
X20291228Y-35392047D01*
X20378813Y-35391512D01*
X20499312Y-35388809D01*
X20598193Y-35384146D01*
X20668554Y-35377888D01*
X20703493Y-35370395D01*
X20741217Y-35342527D01*
X20773360Y-35283119D01*
X20766613Y-35213516D01*
X20745968Y-35159214D01*
X21315613Y-35159214D01*
X21329368Y-35214019D01*
G37*
X21329368Y-35214019D02*
X21338696Y-35296871D01*
X21329492Y-35410743D01*
X21301611Y-35527401D01*
X21258000Y-35629684D01*
X21225783Y-35678731D01*
X21138693Y-35772832D01*
X21034543Y-35849893D01*
X20927832Y-35898128D01*
X20916604Y-35900430D01*
X20861591Y-35906002D01*
X20774270Y-35910959D01*
X20661834Y-35915017D01*
X20531472Y-35917893D01*
X20390378Y-35919305D01*
X19919420Y-35921214D01*
X19919420Y-35392047D01*
X20291228Y-35392047D01*
X20378813Y-35391512D01*
X20499312Y-35388809D01*
X20598193Y-35384146D01*
X20668554Y-35377888D01*
X20703493Y-35370395D01*
X20741217Y-35342527D01*
X20773360Y-35283119D01*
X20766613Y-35213516D01*
X20745968Y-35159214D01*
X21315613Y-35159214D01*
X21329368Y-35214019D01*
%TO.C,FID1*%
G36*
X23702278Y-18785533D02*
G01*
X23737756Y-18793650D01*
X23771444Y-18806040D01*
X23803016Y-18822431D01*
X23832141Y-18842551D01*
X23858494Y-18866127D01*
X23881744Y-18892887D01*
X23901565Y-18922560D01*
X23917629Y-18954872D01*
X23929606Y-18989551D01*
X23937171Y-19026325D01*
X23939816Y-19059945D01*
X23938123Y-19096473D01*
X23931825Y-19132029D01*
X23921164Y-19166227D01*
X23906383Y-19198677D01*
X23887723Y-19228993D01*
X23865426Y-19256786D01*
X23839734Y-19281668D01*
X23810889Y-19303252D01*
X23779132Y-19321149D01*
X23744707Y-19334971D01*
X23738156Y-19337029D01*
X23725782Y-19340405D01*
X23712358Y-19343315D01*
X23696545Y-19346035D01*
X23677004Y-19348837D01*
X23676246Y-19348930D01*
X23667041Y-19349352D01*
X23654446Y-19349118D01*
X23639931Y-19348326D01*
X23624962Y-19347076D01*
X23611007Y-19345468D01*
X23599534Y-19343600D01*
X23590813Y-19341711D01*
X23554897Y-19330900D01*
X23521470Y-19315676D01*
X23490364Y-19295950D01*
X23461412Y-19271637D01*
X23452328Y-19262651D01*
X23427760Y-19234193D01*
X23407823Y-19203943D01*
X23392312Y-19171561D01*
X23381024Y-19136704D01*
X23378879Y-19127727D01*
X23373113Y-19090933D01*
X23372108Y-19054687D01*
X23375619Y-19019318D01*
X23383404Y-18985154D01*
X23395221Y-18952523D01*
X23410827Y-18921756D01*
X23429979Y-18893179D01*
X23452434Y-18867123D01*
X23477950Y-18843914D01*
X23506283Y-18823883D01*
X23537192Y-18807357D01*
X23570433Y-18794666D01*
X23605764Y-18786137D01*
X23642942Y-18782099D01*
X23665339Y-18781962D01*
X23702278Y-18785533D01*
G37*
X23702278Y-18785533D02*
X23737756Y-18793650D01*
X23771444Y-18806040D01*
X23803016Y-18822431D01*
X23832141Y-18842551D01*
X23858494Y-18866127D01*
X23881744Y-18892887D01*
X23901565Y-18922560D01*
X23917629Y-18954872D01*
X23929606Y-18989551D01*
X23937171Y-19026325D01*
X23939816Y-19059945D01*
X23938123Y-19096473D01*
X23931825Y-19132029D01*
X23921164Y-19166227D01*
X23906383Y-19198677D01*
X23887723Y-19228993D01*
X23865426Y-19256786D01*
X23839734Y-19281668D01*
X23810889Y-19303252D01*
X23779132Y-19321149D01*
X23744707Y-19334971D01*
X23738156Y-19337029D01*
X23725782Y-19340405D01*
X23712358Y-19343315D01*
X23696545Y-19346035D01*
X23677004Y-19348837D01*
X23676246Y-19348930D01*
X23667041Y-19349352D01*
X23654446Y-19349118D01*
X23639931Y-19348326D01*
X23624962Y-19347076D01*
X23611007Y-19345468D01*
X23599534Y-19343600D01*
X23590813Y-19341711D01*
X23554897Y-19330900D01*
X23521470Y-19315676D01*
X23490364Y-19295950D01*
X23461412Y-19271637D01*
X23452328Y-19262651D01*
X23427760Y-19234193D01*
X23407823Y-19203943D01*
X23392312Y-19171561D01*
X23381024Y-19136704D01*
X23378879Y-19127727D01*
X23373113Y-19090933D01*
X23372108Y-19054687D01*
X23375619Y-19019318D01*
X23383404Y-18985154D01*
X23395221Y-18952523D01*
X23410827Y-18921756D01*
X23429979Y-18893179D01*
X23452434Y-18867123D01*
X23477950Y-18843914D01*
X23506283Y-18823883D01*
X23537192Y-18807357D01*
X23570433Y-18794666D01*
X23605764Y-18786137D01*
X23642942Y-18782099D01*
X23665339Y-18781962D01*
X23702278Y-18785533D01*
%TD*%
%LPC*%
%TO.C,FID1*%
G36*
X25986541Y-19083164D02*
G01*
X25985629Y-19085523D01*
X25987493Y-19086081D01*
X25993840Y-19087749D01*
X26004212Y-19090394D01*
X26018114Y-19093890D01*
X26035053Y-19098116D01*
X26054536Y-19102947D01*
X26076070Y-19108260D01*
X26099162Y-19113933D01*
X26116782Y-19118246D01*
X26140192Y-19123934D01*
X26160531Y-19128785D01*
X26178607Y-19132959D01*
X26195230Y-19136614D01*
X26211211Y-19139909D01*
X26227358Y-19143003D01*
X26244481Y-19146055D01*
X26263389Y-19149225D01*
X26284893Y-19152671D01*
X26309802Y-19156552D01*
X26338924Y-19161028D01*
X26356823Y-19163784D01*
X26389098Y-19168807D01*
X26424363Y-19174352D01*
X26461368Y-19180218D01*
X26498865Y-19186207D01*
X26535604Y-19192120D01*
X26570337Y-19197758D01*
X26601814Y-19202921D01*
X26610520Y-19204354D01*
X26643549Y-19209702D01*
X26673650Y-19214431D01*
X26700480Y-19218492D01*
X26723693Y-19221834D01*
X26742945Y-19224408D01*
X26757890Y-19226163D01*
X26768184Y-19227050D01*
X26771059Y-19227218D01*
X26784035Y-19228251D01*
X26796056Y-19229823D01*
X26808566Y-19232200D01*
X26823010Y-19235647D01*
X26840830Y-19240432D01*
X26882995Y-19252122D01*
X26892752Y-19282092D01*
X26902509Y-19312061D01*
X26875874Y-19346946D01*
X26849238Y-19381831D01*
X26806171Y-19392686D01*
X26763104Y-19403542D01*
X26650739Y-19403612D01*
X26608107Y-19403488D01*
X26568354Y-19403008D01*
X26532123Y-19402113D01*
X26498625Y-19400749D01*
X26467075Y-19398859D01*
X26436685Y-19396389D01*
X26406667Y-19393282D01*
X26376236Y-19389483D01*
X26344604Y-19384936D01*
X26310984Y-19379586D01*
X26308999Y-19379257D01*
X26284473Y-19375237D01*
X26257895Y-19370934D01*
X26230677Y-19366574D01*
X26204230Y-19362382D01*
X26179968Y-19358583D01*
X26159303Y-19355403D01*
X26146981Y-19353492D01*
X26118423Y-19348815D01*
X26088688Y-19343637D01*
X26058466Y-19338098D01*
X26028445Y-19332338D01*
X25999315Y-19326498D01*
X25971764Y-19320716D01*
X25946481Y-19315133D01*
X25924154Y-19309889D01*
X25905473Y-19305122D01*
X25891127Y-19300974D01*
X25890428Y-19300806D01*
X25887901Y-19301224D01*
X25884791Y-19303632D01*
X25880583Y-19308617D01*
X25874761Y-19316766D01*
X25866811Y-19328666D01*
X25864599Y-19332009D01*
X25857677Y-19342204D01*
X25851815Y-19350443D01*
X25847575Y-19355953D01*
X25845517Y-19357962D01*
X25844781Y-19357805D01*
X25839975Y-19356383D01*
X25831396Y-19353670D01*
X25819763Y-19349899D01*
X25805796Y-19345301D01*
X25790216Y-19340110D01*
X25782183Y-19337437D01*
X25764302Y-19331574D01*
X25743212Y-19324743D01*
X25719978Y-19317284D01*
X25695662Y-19309540D01*
X25671330Y-19301850D01*
X25648044Y-19294557D01*
X25559144Y-19266855D01*
X25458013Y-19256429D01*
X25439212Y-19254533D01*
X25411589Y-19251874D01*
X25382973Y-19249245D01*
X25354573Y-19246753D01*
X25327598Y-19244501D01*
X25303255Y-19242596D01*
X25282753Y-19241143D01*
X25208624Y-19236284D01*
X25144638Y-19214816D01*
X25080651Y-19193347D01*
X25078935Y-19201359D01*
X25078583Y-19202927D01*
X25077077Y-19209408D01*
X25074591Y-19219981D01*
X25071258Y-19234084D01*
X25067210Y-19251160D01*
X25062580Y-19270648D01*
X25057501Y-19291989D01*
X25052105Y-19314624D01*
X25046646Y-19337701D01*
X25041012Y-19362071D01*
X25036436Y-19382553D01*
X25032962Y-19398940D01*
X25030632Y-19411027D01*
X25029489Y-19418607D01*
X25029578Y-19421476D01*
X25032580Y-19422483D01*
X25039763Y-19424437D01*
X25050268Y-19427111D01*
X25063264Y-19430292D01*
X25077921Y-19433769D01*
X25082122Y-19434759D01*
X25096568Y-19438336D01*
X25110098Y-19442037D01*
X25123644Y-19446171D01*
X25138138Y-19451049D01*
X25154512Y-19456981D01*
X25173699Y-19464275D01*
X25196630Y-19473244D01*
X25213766Y-19479934D01*
X25238596Y-19489445D01*
X25264858Y-19499334D01*
X25291019Y-19509028D01*
X25315543Y-19517955D01*
X25336894Y-19525543D01*
X25338895Y-19526242D01*
X25353928Y-19531512D01*
X25366933Y-19536149D01*
X25378501Y-19540426D01*
X25389228Y-19544613D01*
X25399706Y-19548982D01*
X25410530Y-19553806D01*
X25422292Y-19559355D01*
X25435587Y-19565902D01*
X25451008Y-19573718D01*
X25469149Y-19583075D01*
X25490603Y-19594245D01*
X25515964Y-19607498D01*
X25527656Y-19613618D01*
X25557972Y-19629540D01*
X25587771Y-19645265D01*
X25616721Y-19660613D01*
X25644491Y-19675406D01*
X25670747Y-19689463D01*
X25695158Y-19702605D01*
X25717392Y-19714651D01*
X25737117Y-19725423D01*
X25754000Y-19734740D01*
X25767709Y-19742423D01*
X25777913Y-19748291D01*
X25784279Y-19752166D01*
X25786474Y-19753868D01*
X25786483Y-19754065D01*
X25786979Y-19757994D01*
X25788141Y-19765869D01*
X25789835Y-19776876D01*
X25791930Y-19790199D01*
X25794295Y-19805024D01*
X25796796Y-19820535D01*
X25799303Y-19835917D01*
X25801682Y-19850356D01*
X25803802Y-19863036D01*
X25805532Y-19873143D01*
X25806738Y-19879861D01*
X25807290Y-19882375D01*
X25808142Y-19883029D01*
X25812389Y-19886271D01*
X25819553Y-19891735D01*
X25828930Y-19898885D01*
X25839814Y-19907183D01*
X25856702Y-19920784D01*
X25877487Y-19939878D01*
X25897981Y-19961590D01*
X25919240Y-19986982D01*
X25920399Y-19988987D01*
X25923361Y-19995607D01*
X25927473Y-20005820D01*
X25932446Y-20018883D01*
X25937991Y-20034049D01*
X25943822Y-20050576D01*
X25963910Y-20108532D01*
X25975545Y-20198702D01*
X25987181Y-20288872D01*
X25964860Y-20368179D01*
X25942540Y-20447486D01*
X25903627Y-20495496D01*
X25897984Y-20502454D01*
X25886918Y-20516009D01*
X25878036Y-20526601D01*
X25870636Y-20534919D01*
X25864016Y-20541655D01*
X25857472Y-20547498D01*
X25850301Y-20553139D01*
X25841803Y-20559268D01*
X25831272Y-20566575D01*
X25823569Y-20572066D01*
X25810065Y-20582195D01*
X25794427Y-20594363D01*
X25777638Y-20607793D01*
X25760677Y-20621706D01*
X25744528Y-20635325D01*
X25691224Y-20681006D01*
X25596082Y-20681154D01*
X25500939Y-20681302D01*
X25491307Y-20671896D01*
X25488173Y-20668549D01*
X25483482Y-20661962D01*
X25481674Y-20656821D01*
X25481689Y-20656321D01*
X25482220Y-20650962D01*
X25483404Y-20641933D01*
X25485085Y-20630361D01*
X25487108Y-20617377D01*
X25492542Y-20583603D01*
X25517243Y-20546727D01*
X25520333Y-20542136D01*
X25529256Y-20529260D01*
X25537459Y-20518248D01*
X25545841Y-20508045D01*
X25555297Y-20497598D01*
X25566726Y-20485850D01*
X25581024Y-20471748D01*
X25594150Y-20459003D01*
X25610211Y-20443659D01*
X25623898Y-20431024D01*
X25635898Y-20420553D01*
X25646899Y-20411701D01*
X25657586Y-20403922D01*
X25668646Y-20396671D01*
X25680767Y-20389404D01*
X25694635Y-20381575D01*
X25702667Y-20377107D01*
X25715307Y-20369884D01*
X25725002Y-20363889D01*
X25732771Y-20358368D01*
X25739633Y-20352566D01*
X25746609Y-20345730D01*
X25754716Y-20337103D01*
X25775826Y-20314215D01*
X25761052Y-20227584D01*
X25746277Y-20140954D01*
X25723831Y-20111616D01*
X25701384Y-20082278D01*
X25659474Y-20063144D01*
X25637767Y-20053348D01*
X25607680Y-20040230D01*
X25578792Y-20028271D01*
X25550330Y-20017206D01*
X25521521Y-20006766D01*
X25491593Y-19996685D01*
X25459771Y-19986696D01*
X25425283Y-19976532D01*
X25387356Y-19965925D01*
X25345217Y-19954610D01*
X25343381Y-19954124D01*
X25320532Y-19948067D01*
X25301661Y-19942980D01*
X25285893Y-19938567D01*
X25272354Y-19934532D01*
X25260171Y-19930577D01*
X25248470Y-19926409D01*
X25236377Y-19921729D01*
X25223018Y-19916242D01*
X25207519Y-19909652D01*
X25189007Y-19901663D01*
X25177449Y-19896691D01*
X25155639Y-19887441D01*
X25132579Y-19877809D01*
X25108764Y-19867989D01*
X25084688Y-19858177D01*
X25060846Y-19848568D01*
X25037733Y-19839357D01*
X25015843Y-19830741D01*
X24995671Y-19822914D01*
X24977712Y-19816072D01*
X24962460Y-19810411D01*
X24950409Y-19806125D01*
X24942056Y-19803410D01*
X24937893Y-19802462D01*
X24937692Y-19802643D01*
X24936293Y-19806217D01*
X24934009Y-19813813D01*
X24931040Y-19824699D01*
X24927588Y-19838146D01*
X24923854Y-19853423D01*
X24920346Y-19867983D01*
X24916944Y-19881585D01*
X24914286Y-19891306D01*
X24912175Y-19897737D01*
X24910412Y-19901469D01*
X24908799Y-19903091D01*
X24907137Y-19903196D01*
X24906465Y-19903013D01*
X24901506Y-19901660D01*
X24891897Y-19899034D01*
X24877808Y-19895181D01*
X24859411Y-19890149D01*
X24836875Y-19883983D01*
X24810372Y-19876732D01*
X24780072Y-19868441D01*
X24746146Y-19859158D01*
X24708765Y-19848928D01*
X24668099Y-19837799D01*
X24624319Y-19825818D01*
X24577595Y-19813031D01*
X24528099Y-19799484D01*
X24476001Y-19785225D01*
X24421472Y-19770300D01*
X24364682Y-19754757D01*
X24305802Y-19738641D01*
X24245003Y-19721999D01*
X24182456Y-19704879D01*
X24118331Y-19687326D01*
X24052798Y-19669388D01*
X23986030Y-19651111D01*
X23069471Y-19400216D01*
X23077604Y-19367964D01*
X23085738Y-19335711D01*
X23039741Y-19322338D01*
X23007652Y-19312845D01*
X22973820Y-19302382D01*
X22944700Y-19292814D01*
X22920145Y-19284089D01*
X22900009Y-19276157D01*
X22884144Y-19268968D01*
X22883928Y-19268861D01*
X22865407Y-19260677D01*
X22843380Y-19252577D01*
X22819374Y-19245123D01*
X22780384Y-19234067D01*
X22691484Y-19229654D01*
X22675720Y-19228905D01*
X22650174Y-19227854D01*
X22625008Y-19227052D01*
X22599313Y-19226485D01*
X22572178Y-19226139D01*
X22542695Y-19225999D01*
X22509954Y-19226053D01*
X22473044Y-19226284D01*
X22343504Y-19227328D01*
X22325866Y-19237259D01*
X22319355Y-19241375D01*
X22309491Y-19248242D01*
X22297119Y-19257254D01*
X22282964Y-19267875D01*
X22267752Y-19279569D01*
X22252206Y-19291799D01*
X22241693Y-19300106D01*
X22222836Y-19314763D01*
X22203068Y-19329872D01*
X22183600Y-19344517D01*
X22165644Y-19357781D01*
X22150412Y-19368750D01*
X22149382Y-19369478D01*
X22136157Y-19378866D01*
X22125317Y-19386749D01*
X22116137Y-19393786D01*
X22107891Y-19400635D01*
X22099855Y-19407954D01*
X22091303Y-19416401D01*
X22081511Y-19426634D01*
X22069753Y-19439312D01*
X22055305Y-19455092D01*
X22047666Y-19463449D01*
X22035058Y-19477157D01*
X22024486Y-19488405D01*
X22015185Y-19497882D01*
X22006394Y-19506275D01*
X21997351Y-19514274D01*
X21987292Y-19522566D01*
X21975455Y-19531839D01*
X21961077Y-19542781D01*
X21943397Y-19556082D01*
X21926347Y-19569013D01*
X21901408Y-19588530D01*
X21879307Y-19606705D01*
X21859099Y-19624322D01*
X21839840Y-19642166D01*
X21826166Y-19655109D01*
X21814413Y-19665896D01*
X21804341Y-19674587D01*
X21794972Y-19681952D01*
X21785327Y-19688755D01*
X21774429Y-19695764D01*
X21761301Y-19703746D01*
X21723744Y-19726233D01*
X21667229Y-19726247D01*
X21610714Y-19726262D01*
X21610714Y-19649002D01*
X21610715Y-19571743D01*
X21629303Y-19551847D01*
X21635596Y-19544687D01*
X21646825Y-19530376D01*
X21658789Y-19513530D01*
X21670578Y-19495396D01*
X21693264Y-19458840D01*
X21751684Y-19405104D01*
X21781793Y-19378012D01*
X21824212Y-19342035D01*
X21866493Y-19308844D01*
X21873040Y-19303893D01*
X21891481Y-19289726D01*
X21906878Y-19277457D01*
X21920099Y-19266340D01*
X21932013Y-19255629D01*
X21943488Y-19244576D01*
X21955393Y-19232436D01*
X21987904Y-19198552D01*
X22066289Y-19149930D01*
X22084773Y-19138447D01*
X22102204Y-19127535D01*
X22116450Y-19118458D01*
X22128118Y-19110778D01*
X22137816Y-19104057D01*
X22146153Y-19097858D01*
X22153737Y-19091744D01*
X22161175Y-19085278D01*
X22167029Y-19079902D01*
X23325611Y-19079902D01*
X23328840Y-19115875D01*
X23335483Y-19150385D01*
X23345492Y-19182241D01*
X23362264Y-19219139D01*
X23383409Y-19254023D01*
X23408318Y-19285630D01*
X23436803Y-19313797D01*
X23468678Y-19338362D01*
X23503757Y-19359163D01*
X23541853Y-19376037D01*
X23582781Y-19388823D01*
X23586345Y-19389645D01*
X23601219Y-19392042D01*
X23619393Y-19393818D01*
X23639519Y-19394939D01*
X23660248Y-19395369D01*
X23680231Y-19395075D01*
X23698119Y-19394021D01*
X23712564Y-19392172D01*
X23733420Y-19387654D01*
X23771997Y-19375523D01*
X23808432Y-19359083D01*
X23842406Y-19338629D01*
X23873600Y-19314454D01*
X23901698Y-19286853D01*
X23926379Y-19256120D01*
X23947328Y-19222548D01*
X23964224Y-19186432D01*
X23976750Y-19148066D01*
X23984362Y-19109508D01*
X23987309Y-19069486D01*
X23985312Y-19029602D01*
X23978429Y-18990181D01*
X23966717Y-18951545D01*
X23950233Y-18914018D01*
X23929034Y-18877922D01*
X23921809Y-18868130D01*
X23910395Y-18854625D01*
X23896852Y-18840012D01*
X23882215Y-18825325D01*
X23867521Y-18811598D01*
X23853805Y-18799864D01*
X23842104Y-18791159D01*
X23834003Y-18785963D01*
X23797526Y-18766189D01*
X23758499Y-18750522D01*
X23717644Y-18739263D01*
X23714681Y-18738664D01*
X23696622Y-18736193D01*
X23675435Y-18734838D01*
X23652652Y-18734587D01*
X23629806Y-18735426D01*
X23608428Y-18737343D01*
X23590051Y-18740325D01*
X23550284Y-18751330D01*
X23512658Y-18766728D01*
X23477601Y-18786226D01*
X23445398Y-18809563D01*
X23416328Y-18836479D01*
X23390674Y-18866712D01*
X23368717Y-18900001D01*
X23350740Y-18936084D01*
X23337025Y-18974702D01*
X23336899Y-18975140D01*
X23329592Y-19008342D01*
X23325846Y-19043660D01*
X23325611Y-19079902D01*
X22167029Y-19079902D01*
X22169077Y-19078021D01*
X22178049Y-19069537D01*
X22211424Y-19037766D01*
X22271114Y-19006301D01*
X22292606Y-18994908D01*
X22322941Y-18978536D01*
X22349672Y-18963675D01*
X22373413Y-18949947D01*
X22394781Y-18936975D01*
X22414391Y-18924381D01*
X22432859Y-18911789D01*
X22450799Y-18898821D01*
X22468829Y-18885099D01*
X22516372Y-18848101D01*
X22607738Y-18853847D01*
X22620572Y-18854648D01*
X22648054Y-18856337D01*
X22678399Y-18858173D01*
X22710157Y-18860068D01*
X22741881Y-18861938D01*
X22772123Y-18863696D01*
X22799434Y-18865255D01*
X22899764Y-18870917D01*
X22984854Y-18889492D01*
X22990740Y-18890782D01*
X23014834Y-18896162D01*
X23040103Y-18901942D01*
X23065320Y-18907831D01*
X23089254Y-18913540D01*
X23110675Y-18918780D01*
X23128356Y-18923261D01*
X23139312Y-18926095D01*
X23154661Y-18930005D01*
X23167840Y-18933289D01*
X23178164Y-18935782D01*
X23184947Y-18937314D01*
X23187504Y-18937719D01*
X23187564Y-18937596D01*
X23188586Y-18934173D01*
X23190663Y-18926542D01*
X23193641Y-18915308D01*
X23197366Y-18901076D01*
X23201682Y-18884452D01*
X23206435Y-18866042D01*
X23211470Y-18846451D01*
X23216633Y-18826286D01*
X23221767Y-18806151D01*
X23226720Y-18786652D01*
X23231335Y-18768395D01*
X23235458Y-18751986D01*
X23238934Y-18738030D01*
X23241609Y-18727132D01*
X23243327Y-18719899D01*
X23243934Y-18716936D01*
X23243647Y-18716395D01*
X23240036Y-18713610D01*
X23232935Y-18709328D01*
X23223165Y-18704027D01*
X23211549Y-18698182D01*
X23179164Y-18682448D01*
X23068674Y-18658134D01*
X23033175Y-18650280D01*
X22997260Y-18642211D01*
X22965511Y-18634908D01*
X22937492Y-18628246D01*
X22912771Y-18622105D01*
X22890913Y-18616360D01*
X22871485Y-18610890D01*
X22854054Y-18605571D01*
X22838184Y-18600282D01*
X22823443Y-18594898D01*
X22809397Y-18589299D01*
X22795612Y-18583360D01*
X22781654Y-18576960D01*
X22780416Y-18576380D01*
X22765154Y-18569480D01*
X22746757Y-18561516D01*
X22726717Y-18553115D01*
X22706526Y-18544903D01*
X22687674Y-18537506D01*
X22685400Y-18536631D01*
X22666577Y-18529227D01*
X22646825Y-18521206D01*
X22627568Y-18513162D01*
X22610230Y-18505688D01*
X22596234Y-18499379D01*
X22578875Y-18491270D01*
X22559907Y-18482364D01*
X22544771Y-18475171D01*
X22533023Y-18469456D01*
X22524222Y-18464985D01*
X22517924Y-18461523D01*
X22513687Y-18458834D01*
X22511068Y-18456684D01*
X22509623Y-18454839D01*
X22508911Y-18453062D01*
X22508900Y-18453022D01*
X22508328Y-18448667D01*
X22507667Y-18440155D01*
X22506971Y-18428388D01*
X22506292Y-18414267D01*
X22505686Y-18398696D01*
X22504004Y-18350020D01*
X22493604Y-18347259D01*
X22493501Y-18347231D01*
X22484638Y-18345039D01*
X22471682Y-18342043D01*
X22455508Y-18338429D01*
X22436993Y-18334383D01*
X22417010Y-18330093D01*
X22396436Y-18325744D01*
X22376145Y-18321522D01*
X22357012Y-18317616D01*
X22339914Y-18314210D01*
X22325724Y-18311491D01*
X22297154Y-18306128D01*
X22248826Y-18296798D01*
X22203324Y-18287678D01*
X22161017Y-18278847D01*
X22122271Y-18270385D01*
X22087455Y-18262371D01*
X22056937Y-18254884D01*
X22031084Y-18248004D01*
X21967584Y-18230225D01*
X21932807Y-18230213D01*
X21898029Y-18230202D01*
X21852797Y-18248166D01*
X21836858Y-18254460D01*
X21816754Y-18262331D01*
X21795215Y-18270711D01*
X21773960Y-18278930D01*
X21754704Y-18286320D01*
X21701844Y-18306510D01*
X21683819Y-18290581D01*
X21672164Y-18279511D01*
X21659179Y-18265569D01*
X21647148Y-18251094D01*
X21637083Y-18237311D01*
X21629998Y-18225446D01*
X21622855Y-18207402D01*
X21619115Y-18186684D01*
X21620114Y-18166417D01*
X21625881Y-18147207D01*
X21626793Y-18145238D01*
X21634451Y-18132740D01*
X21644092Y-18121935D01*
X21654280Y-18114479D01*
X21657705Y-18111907D01*
X21662659Y-18104980D01*
X21667778Y-18093740D01*
X21674540Y-18076532D01*
X21777084Y-18020854D01*
X21854554Y-18015451D01*
X21932024Y-18010049D01*
X22008053Y-18018537D01*
X22021125Y-18020016D01*
X22040954Y-18022379D01*
X22058852Y-18024717D01*
X22075803Y-18027195D01*
X22092791Y-18029979D01*
X22110799Y-18033232D01*
X22130809Y-18037120D01*
X22153806Y-18041807D01*
X22180773Y-18047457D01*
X22204964Y-18052513D01*
X22232912Y-18058155D01*
X22257824Y-18062905D01*
X22280775Y-18066949D01*
X22302837Y-18070474D01*
X22325083Y-18073668D01*
X22348584Y-18076718D01*
X22359899Y-18078131D01*
X22379248Y-18080630D01*
X22395485Y-18082918D01*
X22409753Y-18085222D01*
X22423196Y-18087765D01*
X22436957Y-18090772D01*
X22452180Y-18094468D01*
X22470010Y-18099078D01*
X22491589Y-18104827D01*
X22496794Y-18106218D01*
X22514716Y-18110915D01*
X22530868Y-18115010D01*
X22544622Y-18118355D01*
X22555354Y-18120801D01*
X22562438Y-18122197D01*
X22565249Y-18122396D01*
X22566722Y-18119859D01*
X22569787Y-18113525D01*
X22573927Y-18104436D01*
X22578676Y-18093591D01*
X22590327Y-18066499D01*
X22627319Y-18053195D01*
X22664312Y-18039890D01*
X22737082Y-18053670D01*
X22741287Y-18054460D01*
X22763785Y-18058530D01*
X22789611Y-18062989D01*
X22817353Y-18067607D01*
X22845604Y-18072153D01*
X22872952Y-18076393D01*
X22897989Y-18080098D01*
X22916846Y-18082852D01*
X22935342Y-18085675D01*
X22953351Y-18088577D01*
X22971479Y-18091673D01*
X22990331Y-18095079D01*
X23010510Y-18098908D01*
X23032622Y-18103276D01*
X23057272Y-18108297D01*
X23085064Y-18114086D01*
X23116603Y-18120759D01*
X23152494Y-18128430D01*
X23161441Y-18130352D01*
X23190627Y-18136658D01*
X23218977Y-18142838D01*
X23245973Y-18148776D01*
X23271099Y-18154356D01*
X23293838Y-18159462D01*
X23313674Y-18163979D01*
X23330090Y-18167790D01*
X23342570Y-18170781D01*
X23350597Y-18172834D01*
X23352847Y-18173452D01*
X23364397Y-18176577D01*
X23373804Y-18179055D01*
X23380151Y-18180646D01*
X23382521Y-18181113D01*
X23383325Y-18178284D01*
X23385200Y-18171158D01*
X23387990Y-18160355D01*
X23391540Y-18146488D01*
X23395695Y-18130172D01*
X23400300Y-18112021D01*
X23405200Y-18092650D01*
X23410241Y-18072673D01*
X23415267Y-18052705D01*
X23420124Y-18033359D01*
X23424658Y-18015250D01*
X23428712Y-17998992D01*
X23432133Y-17985200D01*
X23434765Y-17974488D01*
X23436454Y-17967471D01*
X23437045Y-17964762D01*
X23436510Y-17964335D01*
X23432010Y-17962965D01*
X23423527Y-17961103D01*
X23411779Y-17958887D01*
X23397483Y-17956457D01*
X23381358Y-17953953D01*
X23369807Y-17952183D01*
X23349423Y-17948757D01*
X23332164Y-17945434D01*
X23318674Y-17942344D01*
X23309597Y-17939616D01*
X23307597Y-17938880D01*
X23299806Y-17936115D01*
X23288068Y-17932026D01*
X23272987Y-17926820D01*
X23255169Y-17920704D01*
X23235216Y-17913887D01*
X23213735Y-17906577D01*
X23191330Y-17898980D01*
X23149773Y-17884706D01*
X23101179Y-17867518D01*
X23052376Y-17849759D01*
X23004215Y-17831751D01*
X22957546Y-17813818D01*
X22913220Y-17796281D01*
X22872086Y-17779464D01*
X22834994Y-17763690D01*
X22820626Y-17757408D01*
X22803456Y-17749766D01*
X22788700Y-17742942D01*
X22775402Y-17736431D01*
X22762604Y-17729725D01*
X22749349Y-17722318D01*
X22734680Y-17713704D01*
X22717639Y-17703376D01*
X22697269Y-17690828D01*
X22626854Y-17647272D01*
X22626784Y-17612438D01*
X22626549Y-17597724D01*
X22625898Y-17580801D01*
X22624937Y-17564760D01*
X22623769Y-17551699D01*
X22622897Y-17544399D01*
X22621380Y-17534380D01*
X22619662Y-17527587D01*
X22617399Y-17522831D01*
X22614244Y-17518923D01*
X22611800Y-17516856D01*
X22604723Y-17511910D01*
X22593963Y-17504993D01*
X22579985Y-17496384D01*
X22563256Y-17486360D01*
X22544239Y-17475199D01*
X22523402Y-17463178D01*
X22501208Y-17450576D01*
X22478124Y-17437671D01*
X22458622Y-17426737D01*
X22436519Y-17414020D01*
X22417204Y-17402527D01*
X22401114Y-17392523D01*
X22388687Y-17384276D01*
X22380357Y-17378050D01*
X22372673Y-17372311D01*
X22359630Y-17363928D01*
X22342843Y-17354143D01*
X22322826Y-17343254D01*
X22300094Y-17331559D01*
X22297879Y-17330427D01*
X22285500Y-17323627D01*
X22269282Y-17314111D01*
X22249487Y-17302046D01*
X22226377Y-17287595D01*
X22200212Y-17270924D01*
X22171256Y-17252198D01*
X22139770Y-17231582D01*
X22106014Y-17209240D01*
X22104096Y-17207964D01*
X22087912Y-17197258D01*
X22074850Y-17188821D01*
X22063926Y-17182130D01*
X22054156Y-17176663D01*
X22044557Y-17171896D01*
X22034146Y-17167308D01*
X22021939Y-17162375D01*
X22006954Y-17156574D01*
X21996164Y-17152499D01*
X21975676Y-17145015D01*
X21953907Y-17137318D01*
X21932854Y-17130110D01*
X21914516Y-17124093D01*
X21869068Y-17109643D01*
X21835141Y-17080399D01*
X21825732Y-17072128D01*
X21815944Y-17063133D01*
X21808178Y-17055551D01*
X21803060Y-17049998D01*
X21801214Y-17047086D01*
X21801230Y-17046492D01*
X21801536Y-17041396D01*
X21802178Y-17032577D01*
X21803075Y-17021092D01*
X21804148Y-17007999D01*
X21807082Y-16972982D01*
X21838605Y-16938652D01*
X21848347Y-16928132D01*
X21857340Y-16918599D01*
X21864632Y-16911060D01*
X21869652Y-16906104D01*
X21871830Y-16904321D01*
X21874548Y-16904942D01*
X21881528Y-16906734D01*
X21892105Y-16909524D01*
X21905620Y-16913136D01*
X21921416Y-16917397D01*
X21938837Y-16922131D01*
X21950467Y-16925356D01*
X21976453Y-16932959D01*
X22003525Y-16941445D01*
X22032575Y-16951108D01*
X22064491Y-16962240D01*
X22100163Y-16975134D01*
X22110562Y-16978953D01*
X22135656Y-16988261D01*
X22157078Y-16996387D01*
X22175651Y-17003676D01*
X22192202Y-17010472D01*
X22207555Y-17017118D01*
X22222536Y-17023959D01*
X22237968Y-17031339D01*
X22254677Y-17039603D01*
X22313169Y-17068879D01*
X22371517Y-17115547D01*
X22376815Y-17119780D01*
X22393593Y-17133087D01*
X22407662Y-17143990D01*
X22419971Y-17153134D01*
X22431467Y-17161165D01*
X22443099Y-17168729D01*
X22455814Y-17176470D01*
X22470560Y-17185035D01*
X22488284Y-17195069D01*
X22513784Y-17209329D01*
X22538967Y-17223248D01*
X22562664Y-17236183D01*
X22584457Y-17247911D01*
X22603928Y-17258213D01*
X22620662Y-17266869D01*
X22634241Y-17273657D01*
X22644248Y-17278357D01*
X22650266Y-17280749D01*
X22651164Y-17281008D01*
X22658136Y-17282218D01*
X22661949Y-17281303D01*
X22663882Y-17278871D01*
X22668425Y-17272999D01*
X22675014Y-17264414D01*
X22683124Y-17253802D01*
X22692228Y-17241848D01*
X22720456Y-17204725D01*
X22777090Y-17214392D01*
X22802574Y-17218739D01*
X22830743Y-17223550D01*
X22856153Y-17227924D01*
X22879231Y-17231959D01*
X22900401Y-17235757D01*
X22920087Y-17239417D01*
X22938717Y-17243038D01*
X22956714Y-17246720D01*
X22974503Y-17250565D01*
X22992510Y-17254670D01*
X23011161Y-17259137D01*
X23030880Y-17264064D01*
X23052092Y-17269553D01*
X23075222Y-17275702D01*
X23100696Y-17282611D01*
X23128939Y-17290381D01*
X23160377Y-17299112D01*
X23195433Y-17308902D01*
X23234533Y-17319852D01*
X23278104Y-17332063D01*
X23291241Y-17335743D01*
X23327141Y-17345791D01*
X23361545Y-17355409D01*
X23394143Y-17364511D01*
X23424627Y-17373010D01*
X23452689Y-17380822D01*
X23478020Y-17387861D01*
X23500312Y-17394041D01*
X23519255Y-17399276D01*
X23534542Y-17403480D01*
X23545863Y-17406569D01*
X23552910Y-17408456D01*
X23555376Y-17409056D01*
X23555908Y-17407760D01*
X23557617Y-17402133D01*
X23560267Y-17392656D01*
X23563698Y-17379954D01*
X23567750Y-17364653D01*
X23572263Y-17347379D01*
X23577078Y-17328758D01*
X23582035Y-17309415D01*
X23586976Y-17289978D01*
X23591740Y-17271072D01*
X23596168Y-17253322D01*
X23600100Y-17237356D01*
X23603376Y-17223798D01*
X23605838Y-17213275D01*
X23607326Y-17206412D01*
X23607680Y-17203836D01*
X23607631Y-17203807D01*
X23604507Y-17202793D01*
X23596899Y-17200565D01*
X23585189Y-17197229D01*
X23569759Y-17192892D01*
X23550991Y-17187660D01*
X23529268Y-17181638D01*
X23504971Y-17174935D01*
X23478484Y-17167655D01*
X23450187Y-17159904D01*
X23420464Y-17151790D01*
X23235044Y-17101255D01*
X23014064Y-16930079D01*
X23008755Y-16925966D01*
X22979470Y-16903278D01*
X22951354Y-16881489D01*
X22924667Y-16860802D01*
X22899666Y-16841417D01*
X22876610Y-16823535D01*
X22855760Y-16807356D01*
X22837373Y-16793083D01*
X22821708Y-16780915D01*
X22809025Y-16771053D01*
X22799581Y-16763699D01*
X22793637Y-16759054D01*
X22791450Y-16757317D01*
X22791383Y-16757151D01*
X22790773Y-16753412D01*
X22789711Y-16745089D01*
X22788238Y-16732572D01*
X22786398Y-16716248D01*
X22784231Y-16696507D01*
X22781782Y-16673738D01*
X22779092Y-16648328D01*
X22776203Y-16620669D01*
X22773157Y-16591147D01*
X22769998Y-16560152D01*
X22750180Y-16364572D01*
X22757020Y-16301072D01*
X22757636Y-16295251D01*
X22759806Y-16273215D01*
X22761910Y-16249724D01*
X22763812Y-16226403D01*
X22765378Y-16204878D01*
X22766474Y-16186772D01*
X22766533Y-16185645D01*
X22769096Y-16150310D01*
X22773245Y-16112043D01*
X22779077Y-16069932D01*
X22780559Y-16060025D01*
X22783728Y-16038160D01*
X22786880Y-16015618D01*
X22789820Y-15993824D01*
X22792355Y-15974200D01*
X22794291Y-15958172D01*
X22795093Y-15951389D01*
X22797760Y-15930873D01*
X22800929Y-15908629D01*
X22804271Y-15886918D01*
X22807454Y-15868002D01*
X22809549Y-15856425D01*
X22812252Y-15842505D01*
X22814822Y-15831370D01*
X22817664Y-15821684D01*
X22821188Y-15812116D01*
X22825800Y-15801329D01*
X22831909Y-15787992D01*
X22832578Y-15786554D01*
X22840633Y-15769976D01*
X22847565Y-15757308D01*
X22853866Y-15747715D01*
X22860028Y-15740367D01*
X22871634Y-15728302D01*
X22994430Y-15728302D01*
X22998305Y-15734214D01*
X22999483Y-15736526D01*
X23002323Y-15743506D01*
X23006083Y-15753756D01*
X23010413Y-15766311D01*
X23014963Y-15780206D01*
X23027746Y-15820284D01*
X23024100Y-15865098D01*
X23023161Y-15876184D01*
X23021728Y-15891770D01*
X23020299Y-15905937D01*
X23018999Y-15917470D01*
X23017952Y-15925152D01*
X23015868Y-15938254D01*
X23013766Y-15952639D01*
X23011798Y-15967661D01*
X23009828Y-15984428D01*
X23007721Y-16004044D01*
X23005339Y-16027618D01*
X23005177Y-16029244D01*
X23003564Y-16044574D01*
X23001884Y-16058384D01*
X22999969Y-16071595D01*
X22997651Y-16085128D01*
X22994761Y-16099903D01*
X22991130Y-16116841D01*
X22986592Y-16136862D01*
X22980977Y-16160888D01*
X22978367Y-16171850D01*
X22973576Y-16191429D01*
X22969117Y-16208958D01*
X22965148Y-16223855D01*
X22961825Y-16235539D01*
X22959305Y-16243430D01*
X22957746Y-16246946D01*
X22957726Y-16246969D01*
X22956001Y-16249402D01*
X22955105Y-16252511D01*
X22955157Y-16256988D01*
X22956275Y-16263528D01*
X22958578Y-16272826D01*
X22962183Y-16285577D01*
X22967209Y-16302474D01*
X22967741Y-16304258D01*
X22971670Y-16318248D01*
X22975095Y-16331810D01*
X22977664Y-16343474D01*
X22979024Y-16351773D01*
X22979235Y-16353451D01*
X22980640Y-16360250D01*
X22983248Y-16369131D01*
X22987245Y-16380600D01*
X22992812Y-16395164D01*
X23000134Y-16413331D01*
X23009394Y-16435606D01*
X23011152Y-16439779D01*
X23018583Y-16457159D01*
X23025524Y-16472995D01*
X23031688Y-16486654D01*
X23036784Y-16497507D01*
X23040526Y-16504923D01*
X23042625Y-16508271D01*
X23043717Y-16509275D01*
X23048491Y-16513611D01*
X23056300Y-16520671D01*
X23066656Y-16530017D01*
X23079074Y-16541212D01*
X23093067Y-16553819D01*
X23108150Y-16567400D01*
X23123835Y-16581517D01*
X23139636Y-16595734D01*
X23155069Y-16609612D01*
X23169645Y-16622714D01*
X23182879Y-16634602D01*
X23194284Y-16644840D01*
X23203375Y-16652989D01*
X23209665Y-16658611D01*
X23212668Y-16661271D01*
X23214826Y-16662953D01*
X23217315Y-16663865D01*
X23220732Y-16663492D01*
X23225979Y-16661585D01*
X23233959Y-16657893D01*
X23245575Y-16652167D01*
X23254744Y-16647642D01*
X23268966Y-16640716D01*
X23282658Y-16634141D01*
X23293817Y-16628885D01*
X23314490Y-16619305D01*
X23518204Y-16737875D01*
X23523953Y-16741220D01*
X23553234Y-16758246D01*
X23581188Y-16774475D01*
X23607510Y-16789732D01*
X23631892Y-16803840D01*
X23654029Y-16816623D01*
X23673615Y-16827905D01*
X23690344Y-16837509D01*
X23703909Y-16845258D01*
X23714004Y-16850977D01*
X23720324Y-16854489D01*
X23722562Y-16855618D01*
X23723236Y-16853382D01*
X23725003Y-16846825D01*
X23727680Y-16836605D01*
X23731099Y-16823381D01*
X23735087Y-16807809D01*
X23739475Y-16790546D01*
X23743655Y-16774186D01*
X23748013Y-16757634D01*
X23751492Y-16745199D01*
X23754238Y-16736416D01*
X23756399Y-16730823D01*
X23758122Y-16727954D01*
X23759554Y-16727344D01*
X23759654Y-16727372D01*
X23763090Y-16728310D01*
X23771227Y-16730531D01*
X23783893Y-16733988D01*
X23800914Y-16738635D01*
X23822118Y-16744422D01*
X23847331Y-16751305D01*
X23876381Y-16759234D01*
X23909095Y-16768163D01*
X23945299Y-16778045D01*
X23984821Y-16788833D01*
X24027488Y-16800479D01*
X24073126Y-16812936D01*
X24121563Y-16826157D01*
X24172626Y-16840095D01*
X24226142Y-16854702D01*
X24281938Y-16869931D01*
X24339841Y-16885736D01*
X24399677Y-16902068D01*
X24461275Y-16918881D01*
X24524461Y-16936128D01*
X24589062Y-16953760D01*
X24654904Y-16971732D01*
X24665210Y-16974545D01*
X24730856Y-16992468D01*
X24795226Y-17010049D01*
X24858146Y-17027242D01*
X24919445Y-17043999D01*
X24978949Y-17060272D01*
X25036486Y-17076015D01*
X25091884Y-17091179D01*
X25144969Y-17105718D01*
X25195570Y-17119584D01*
X25243513Y-17132730D01*
X25288626Y-17145108D01*
X25330737Y-17156671D01*
X25369673Y-17167371D01*
X25405261Y-17177162D01*
X25437328Y-17185996D01*
X25465702Y-17193825D01*
X25490211Y-17200602D01*
X25510682Y-17206280D01*
X25526942Y-17210812D01*
X25538819Y-17214149D01*
X25546139Y-17216245D01*
X25548731Y-17217053D01*
X25548975Y-17217646D01*
X25548817Y-17222338D01*
X25547529Y-17230905D01*
X25545238Y-17242587D01*
X25542074Y-17256620D01*
X25540404Y-17263675D01*
X25537570Y-17275819D01*
X25535341Y-17285607D01*
X25533912Y-17292180D01*
X25533477Y-17294674D01*
X25533863Y-17294771D01*
X25538172Y-17295588D01*
X25546939Y-17297167D01*
X25559765Y-17299438D01*
X25576253Y-17302332D01*
X25596005Y-17305781D01*
X25618623Y-17309716D01*
X25643708Y-17314067D01*
X25670863Y-17318765D01*
X25699689Y-17323742D01*
X25729790Y-17328929D01*
X25760766Y-17334256D01*
X25792220Y-17339655D01*
X25823753Y-17345057D01*
X25854968Y-17350392D01*
X25924732Y-17362302D01*
X26072224Y-17343028D01*
X26154774Y-17312152D01*
X26159780Y-17310280D01*
X26175233Y-17304479D01*
X26188989Y-17299253D01*
X26201527Y-17294380D01*
X26213326Y-17289638D01*
X26224866Y-17284808D01*
X26236625Y-17279668D01*
X26249082Y-17273998D01*
X26262716Y-17267576D01*
X26278007Y-17260181D01*
X26295433Y-17251594D01*
X26315474Y-17241592D01*
X26338609Y-17229955D01*
X26365316Y-17216463D01*
X26396074Y-17200894D01*
X26554824Y-17120511D01*
X26561902Y-17099830D01*
X26563549Y-17095141D01*
X26567457Y-17084387D01*
X26572626Y-17070447D01*
X26578699Y-17054275D01*
X26585321Y-17036821D01*
X26592134Y-17019040D01*
X26615288Y-16958932D01*
X26643476Y-16921721D01*
X26643783Y-16921316D01*
X26658199Y-16903179D01*
X26675190Y-16883199D01*
X26693504Y-16862806D01*
X26711893Y-16843431D01*
X26752122Y-16802352D01*
X26793272Y-16793258D01*
X26834423Y-16784163D01*
X26867054Y-16806777D01*
X26899686Y-16829392D01*
X26897972Y-16892892D01*
X26896259Y-16956392D01*
X26867584Y-17016082D01*
X26858976Y-17033840D01*
X26850405Y-17050968D01*
X26842698Y-17065523D01*
X26835219Y-17078615D01*
X26827328Y-17091354D01*
X26818388Y-17104853D01*
X26807761Y-17120222D01*
X26805156Y-17123929D01*
X26795594Y-17137369D01*
X26786739Y-17149567D01*
X26779135Y-17159789D01*
X26773326Y-17167301D01*
X26769859Y-17171366D01*
X26769733Y-17171488D01*
X26765736Y-17174950D01*
X26758330Y-17180985D01*
X26748112Y-17189124D01*
X26735679Y-17198894D01*
X26721626Y-17209824D01*
X26706550Y-17221442D01*
X26700864Y-17225796D01*
X26684866Y-17237923D01*
X26670926Y-17248203D01*
X26658111Y-17257246D01*
X26645488Y-17265661D01*
X26632126Y-17274056D01*
X26617092Y-17283041D01*
X26599454Y-17293224D01*
X26578280Y-17305213D01*
X26575517Y-17306767D01*
X26558203Y-17316442D01*
X26537316Y-17328025D01*
X26513616Y-17341100D01*
X26487866Y-17355249D01*
X26460824Y-17370055D01*
X26433253Y-17385101D01*
X26405913Y-17399968D01*
X26379564Y-17414240D01*
X26369435Y-17419724D01*
X26329546Y-17441516D01*
X26293522Y-17461551D01*
X26260779Y-17480166D01*
X26230729Y-17497698D01*
X26202786Y-17514481D01*
X26176364Y-17530854D01*
X26161924Y-17539851D01*
X26138685Y-17554052D01*
X26112978Y-17569502D01*
X26085965Y-17585511D01*
X26058810Y-17601393D01*
X26032675Y-17616458D01*
X26008724Y-17630020D01*
X26003581Y-17632898D01*
X25980051Y-17645998D01*
X25959939Y-17657043D01*
X25942426Y-17666438D01*
X25926696Y-17674592D01*
X25911931Y-17681911D01*
X25897312Y-17688803D01*
X25882023Y-17695674D01*
X25865247Y-17702933D01*
X25846164Y-17710986D01*
X25775044Y-17740762D01*
X25699123Y-17751958D01*
X25623201Y-17763153D01*
X25549263Y-17741527D01*
X25545302Y-17740371D01*
X25525664Y-17734684D01*
X25506734Y-17729278D01*
X25489345Y-17724386D01*
X25474329Y-17720239D01*
X25462520Y-17717070D01*
X25454748Y-17715113D01*
X25434172Y-17710325D01*
X25408852Y-17816440D01*
X25383532Y-17922556D01*
X25401488Y-17926511D01*
X25407462Y-17927742D01*
X25417925Y-17929800D01*
X25432239Y-17932562D01*
X25449826Y-17935917D01*
X25470109Y-17939756D01*
X25492512Y-17943970D01*
X25516456Y-17948448D01*
X25541364Y-17953081D01*
X25556593Y-17955906D01*
X25578992Y-17960078D01*
X25598803Y-17963829D01*
X25616556Y-17967300D01*
X25632781Y-17970634D01*
X25648008Y-17973971D01*
X25662767Y-17977453D01*
X25677589Y-17981222D01*
X25693004Y-17985419D01*
X25709541Y-17990186D01*
X25727732Y-17995664D01*
X25748107Y-18001994D01*
X25771195Y-18009319D01*
X25797527Y-18017779D01*
X25827633Y-18027517D01*
X25862043Y-18038674D01*
X25881866Y-18045025D01*
X25908826Y-18053494D01*
X25938332Y-18062613D01*
X25969111Y-18071995D01*
X25999889Y-18081252D01*
X26029394Y-18089997D01*
X26056353Y-18097842D01*
X26161124Y-18127976D01*
X26162566Y-18181942D01*
X26173275Y-18181947D01*
X26178823Y-18181707D01*
X26188609Y-18180991D01*
X26201454Y-18179887D01*
X26216339Y-18178482D01*
X26232244Y-18176864D01*
X26237269Y-18176354D01*
X26252297Y-18174965D01*
X26271206Y-18173355D01*
X26293164Y-18171590D01*
X26317335Y-18169734D01*
X26342888Y-18167851D01*
X26368989Y-18166007D01*
X26394804Y-18164265D01*
X26509104Y-18156755D01*
X26584034Y-18140396D01*
X26598913Y-18137161D01*
X26618513Y-18132990D01*
X26635065Y-18129657D01*
X26649728Y-18126988D01*
X26663656Y-18124807D01*
X26678008Y-18122937D01*
X26693938Y-18121204D01*
X26712605Y-18119432D01*
X26735164Y-18117444D01*
X26764304Y-18114942D01*
X26795787Y-18112296D01*
X26822926Y-18110097D01*
X26846114Y-18108322D01*
X26865742Y-18106947D01*
X26882204Y-18105949D01*
X26895891Y-18105305D01*
X26907196Y-18104990D01*
X26916512Y-18104983D01*
X26924231Y-18105259D01*
X26930744Y-18105795D01*
X26933203Y-18106061D01*
X26942843Y-18107075D01*
X26950340Y-18107818D01*
X26954239Y-18108145D01*
X26954837Y-18108521D01*
X26955713Y-18111074D01*
X26956378Y-18116427D01*
X26956854Y-18125036D01*
X26957161Y-18137357D01*
X26957322Y-18153845D01*
X26957358Y-18174957D01*
X26957327Y-18191286D01*
X26957218Y-18208167D01*
X26956999Y-18221062D01*
X26956631Y-18230583D01*
X26956076Y-18237346D01*
X26955296Y-18241963D01*
X26954255Y-18245050D01*
X26952913Y-18247219D01*
X26950215Y-18249499D01*
X26942646Y-18253727D01*
X26931285Y-18258824D01*
X26916774Y-18264482D01*
X26915414Y-18264980D01*
X26903350Y-18269179D01*
X26891618Y-18272763D01*
X26879145Y-18275991D01*
X26864857Y-18279119D01*
X26847680Y-18282404D01*
X26826542Y-18286104D01*
X26794477Y-18291631D01*
X26755609Y-18298496D01*
X26715161Y-18305796D01*
X26673958Y-18313376D01*
X26632823Y-18321080D01*
X26592582Y-18328751D01*
X26554058Y-18336234D01*
X26518076Y-18343373D01*
X26485460Y-18350012D01*
X26457034Y-18355995D01*
X26440393Y-18359501D01*
X26409702Y-18365670D01*
X26377186Y-18371889D01*
X26344534Y-18377844D01*
X26313436Y-18383224D01*
X26285584Y-18387715D01*
X26280200Y-18388544D01*
X26256368Y-18392281D01*
X26236298Y-18395594D01*
X26218934Y-18398702D01*
X26203220Y-18401825D01*
X26188098Y-18405181D01*
X26172513Y-18408992D01*
X26155407Y-18413476D01*
X26135724Y-18418853D01*
X26069684Y-18437114D01*
X26011264Y-18478454D01*
X25974434Y-18485179D01*
X25974362Y-18485192D01*
X25962771Y-18487056D01*
X25946650Y-18489278D01*
X25926526Y-18491800D01*
X25902929Y-18494566D01*
X25876386Y-18497521D01*
X25847427Y-18500607D01*
X25816579Y-18503769D01*
X25784372Y-18506949D01*
X25751333Y-18510093D01*
X25717991Y-18513143D01*
X25684874Y-18516044D01*
X25669321Y-18517480D01*
X25648323Y-18519634D01*
X25625751Y-18522130D01*
X25603452Y-18524762D01*
X25583274Y-18527326D01*
X25528664Y-18534591D01*
X25468974Y-18522151D01*
X25460333Y-18520327D01*
X25440132Y-18515832D01*
X25421055Y-18511183D01*
X25401926Y-18506056D01*
X25381566Y-18500128D01*
X25358799Y-18493074D01*
X25332449Y-18484571D01*
X25321874Y-18481115D01*
X25304013Y-18475302D01*
X25288116Y-18470156D01*
X25274756Y-18465862D01*
X25264503Y-18462602D01*
X25257932Y-18460561D01*
X25255614Y-18459922D01*
X25255508Y-18460413D01*
X25254471Y-18464859D01*
X25252430Y-18473502D01*
X25249508Y-18485823D01*
X25245828Y-18501301D01*
X25241516Y-18519415D01*
X25236693Y-18539646D01*
X25231484Y-18561472D01*
X25229231Y-18570914D01*
X25224170Y-18592145D01*
X25219547Y-18611571D01*
X25215488Y-18628668D01*
X25212115Y-18642915D01*
X25209553Y-18653789D01*
X25207925Y-18660767D01*
X25207354Y-18663328D01*
X25208963Y-18664386D01*
X25214423Y-18667446D01*
X25223055Y-18672103D01*
X25234135Y-18677969D01*
X25246942Y-18684653D01*
X25286529Y-18705182D01*
X25335207Y-18705147D01*
X25383884Y-18705113D01*
X25442304Y-18719344D01*
X25448670Y-18720916D01*
X25467317Y-18725734D01*
X25485680Y-18730764D01*
X25502592Y-18735671D01*
X25516886Y-18740119D01*
X25527394Y-18743773D01*
X25530555Y-18745057D01*
X25540493Y-18749533D01*
X25554012Y-18756018D01*
X25570515Y-18764210D01*
X25589403Y-18773808D01*
X25610077Y-18784507D01*
X25631941Y-18796006D01*
X25654394Y-18808002D01*
X25659757Y-18810888D01*
X25682924Y-18823324D01*
X25709477Y-18837536D01*
X25738537Y-18853055D01*
X25769222Y-18869411D01*
X25800652Y-18886137D01*
X25831948Y-18902762D01*
X25862229Y-18918818D01*
X25890614Y-18933836D01*
X25891427Y-18934266D01*
X25915658Y-18947072D01*
X25938509Y-18959153D01*
X25959592Y-18970305D01*
X25978518Y-18980321D01*
X25994897Y-18988994D01*
X26008340Y-18996119D01*
X26018459Y-19001490D01*
X26024864Y-19004900D01*
X26027166Y-19006144D01*
X26026477Y-19007878D01*
X26023702Y-19013412D01*
X26019168Y-19022041D01*
X26013256Y-19033044D01*
X26006343Y-19045700D01*
X26000326Y-19056727D01*
X25994267Y-19068039D01*
X25993512Y-19069486D01*
X25989546Y-19077093D01*
X25986541Y-19083164D01*
G37*
X25986541Y-19083164D02*
X25985629Y-19085523D01*
X25987493Y-19086081D01*
X25993840Y-19087749D01*
X26004212Y-19090394D01*
X26018114Y-19093890D01*
X26035053Y-19098116D01*
X26054536Y-19102947D01*
X26076070Y-19108260D01*
X26099162Y-19113933D01*
X26116782Y-19118246D01*
X26140192Y-19123934D01*
X26160531Y-19128785D01*
X26178607Y-19132959D01*
X26195230Y-19136614D01*
X26211211Y-19139909D01*
X26227358Y-19143003D01*
X26244481Y-19146055D01*
X26263389Y-19149225D01*
X26284893Y-19152671D01*
X26309802Y-19156552D01*
X26338924Y-19161028D01*
X26356823Y-19163784D01*
X26389098Y-19168807D01*
X26424363Y-19174352D01*
X26461368Y-19180218D01*
X26498865Y-19186207D01*
X26535604Y-19192120D01*
X26570337Y-19197758D01*
X26601814Y-19202921D01*
X26610520Y-19204354D01*
X26643549Y-19209702D01*
X26673650Y-19214431D01*
X26700480Y-19218492D01*
X26723693Y-19221834D01*
X26742945Y-19224408D01*
X26757890Y-19226163D01*
X26768184Y-19227050D01*
X26771059Y-19227218D01*
X26784035Y-19228251D01*
X26796056Y-19229823D01*
X26808566Y-19232200D01*
X26823010Y-19235647D01*
X26840830Y-19240432D01*
X26882995Y-19252122D01*
X26892752Y-19282092D01*
X26902509Y-19312061D01*
X26875874Y-19346946D01*
X26849238Y-19381831D01*
X26806171Y-19392686D01*
X26763104Y-19403542D01*
X26650739Y-19403612D01*
X26608107Y-19403488D01*
X26568354Y-19403008D01*
X26532123Y-19402113D01*
X26498625Y-19400749D01*
X26467075Y-19398859D01*
X26436685Y-19396389D01*
X26406667Y-19393282D01*
X26376236Y-19389483D01*
X26344604Y-19384936D01*
X26310984Y-19379586D01*
X26308999Y-19379257D01*
X26284473Y-19375237D01*
X26257895Y-19370934D01*
X26230677Y-19366574D01*
X26204230Y-19362382D01*
X26179968Y-19358583D01*
X26159303Y-19355403D01*
X26146981Y-19353492D01*
X26118423Y-19348815D01*
X26088688Y-19343637D01*
X26058466Y-19338098D01*
X26028445Y-19332338D01*
X25999315Y-19326498D01*
X25971764Y-19320716D01*
X25946481Y-19315133D01*
X25924154Y-19309889D01*
X25905473Y-19305122D01*
X25891127Y-19300974D01*
X25890428Y-19300806D01*
X25887901Y-19301224D01*
X25884791Y-19303632D01*
X25880583Y-19308617D01*
X25874761Y-19316766D01*
X25866811Y-19328666D01*
X25864599Y-19332009D01*
X25857677Y-19342204D01*
X25851815Y-19350443D01*
X25847575Y-19355953D01*
X25845517Y-19357962D01*
X25844781Y-19357805D01*
X25839975Y-19356383D01*
X25831396Y-19353670D01*
X25819763Y-19349899D01*
X25805796Y-19345301D01*
X25790216Y-19340110D01*
X25782183Y-19337437D01*
X25764302Y-19331574D01*
X25743212Y-19324743D01*
X25719978Y-19317284D01*
X25695662Y-19309540D01*
X25671330Y-19301850D01*
X25648044Y-19294557D01*
X25559144Y-19266855D01*
X25458013Y-19256429D01*
X25439212Y-19254533D01*
X25411589Y-19251874D01*
X25382973Y-19249245D01*
X25354573Y-19246753D01*
X25327598Y-19244501D01*
X25303255Y-19242596D01*
X25282753Y-19241143D01*
X25208624Y-19236284D01*
X25144638Y-19214816D01*
X25080651Y-19193347D01*
X25078935Y-19201359D01*
X25078583Y-19202927D01*
X25077077Y-19209408D01*
X25074591Y-19219981D01*
X25071258Y-19234084D01*
X25067210Y-19251160D01*
X25062580Y-19270648D01*
X25057501Y-19291989D01*
X25052105Y-19314624D01*
X25046646Y-19337701D01*
X25041012Y-19362071D01*
X25036436Y-19382553D01*
X25032962Y-19398940D01*
X25030632Y-19411027D01*
X25029489Y-19418607D01*
X25029578Y-19421476D01*
X25032580Y-19422483D01*
X25039763Y-19424437D01*
X25050268Y-19427111D01*
X25063264Y-19430292D01*
X25077921Y-19433769D01*
X25082122Y-19434759D01*
X25096568Y-19438336D01*
X25110098Y-19442037D01*
X25123644Y-19446171D01*
X25138138Y-19451049D01*
X25154512Y-19456981D01*
X25173699Y-19464275D01*
X25196630Y-19473244D01*
X25213766Y-19479934D01*
X25238596Y-19489445D01*
X25264858Y-19499334D01*
X25291019Y-19509028D01*
X25315543Y-19517955D01*
X25336894Y-19525543D01*
X25338895Y-19526242D01*
X25353928Y-19531512D01*
X25366933Y-19536149D01*
X25378501Y-19540426D01*
X25389228Y-19544613D01*
X25399706Y-19548982D01*
X25410530Y-19553806D01*
X25422292Y-19559355D01*
X25435587Y-19565902D01*
X25451008Y-19573718D01*
X25469149Y-19583075D01*
X25490603Y-19594245D01*
X25515964Y-19607498D01*
X25527656Y-19613618D01*
X25557972Y-19629540D01*
X25587771Y-19645265D01*
X25616721Y-19660613D01*
X25644491Y-19675406D01*
X25670747Y-19689463D01*
X25695158Y-19702605D01*
X25717392Y-19714651D01*
X25737117Y-19725423D01*
X25754000Y-19734740D01*
X25767709Y-19742423D01*
X25777913Y-19748291D01*
X25784279Y-19752166D01*
X25786474Y-19753868D01*
X25786483Y-19754065D01*
X25786979Y-19757994D01*
X25788141Y-19765869D01*
X25789835Y-19776876D01*
X25791930Y-19790199D01*
X25794295Y-19805024D01*
X25796796Y-19820535D01*
X25799303Y-19835917D01*
X25801682Y-19850356D01*
X25803802Y-19863036D01*
X25805532Y-19873143D01*
X25806738Y-19879861D01*
X25807290Y-19882375D01*
X25808142Y-19883029D01*
X25812389Y-19886271D01*
X25819553Y-19891735D01*
X25828930Y-19898885D01*
X25839814Y-19907183D01*
X25856702Y-19920784D01*
X25877487Y-19939878D01*
X25897981Y-19961590D01*
X25919240Y-19986982D01*
X25920399Y-19988987D01*
X25923361Y-19995607D01*
X25927473Y-20005820D01*
X25932446Y-20018883D01*
X25937991Y-20034049D01*
X25943822Y-20050576D01*
X25963910Y-20108532D01*
X25975545Y-20198702D01*
X25987181Y-20288872D01*
X25964860Y-20368179D01*
X25942540Y-20447486D01*
X25903627Y-20495496D01*
X25897984Y-20502454D01*
X25886918Y-20516009D01*
X25878036Y-20526601D01*
X25870636Y-20534919D01*
X25864016Y-20541655D01*
X25857472Y-20547498D01*
X25850301Y-20553139D01*
X25841803Y-20559268D01*
X25831272Y-20566575D01*
X25823569Y-20572066D01*
X25810065Y-20582195D01*
X25794427Y-20594363D01*
X25777638Y-20607793D01*
X25760677Y-20621706D01*
X25744528Y-20635325D01*
X25691224Y-20681006D01*
X25596082Y-20681154D01*
X25500939Y-20681302D01*
X25491307Y-20671896D01*
X25488173Y-20668549D01*
X25483482Y-20661962D01*
X25481674Y-20656821D01*
X25481689Y-20656321D01*
X25482220Y-20650962D01*
X25483404Y-20641933D01*
X25485085Y-20630361D01*
X25487108Y-20617377D01*
X25492542Y-20583603D01*
X25517243Y-20546727D01*
X25520333Y-20542136D01*
X25529256Y-20529260D01*
X25537459Y-20518248D01*
X25545841Y-20508045D01*
X25555297Y-20497598D01*
X25566726Y-20485850D01*
X25581024Y-20471748D01*
X25594150Y-20459003D01*
X25610211Y-20443659D01*
X25623898Y-20431024D01*
X25635898Y-20420553D01*
X25646899Y-20411701D01*
X25657586Y-20403922D01*
X25668646Y-20396671D01*
X25680767Y-20389404D01*
X25694635Y-20381575D01*
X25702667Y-20377107D01*
X25715307Y-20369884D01*
X25725002Y-20363889D01*
X25732771Y-20358368D01*
X25739633Y-20352566D01*
X25746609Y-20345730D01*
X25754716Y-20337103D01*
X25775826Y-20314215D01*
X25761052Y-20227584D01*
X25746277Y-20140954D01*
X25723831Y-20111616D01*
X25701384Y-20082278D01*
X25659474Y-20063144D01*
X25637767Y-20053348D01*
X25607680Y-20040230D01*
X25578792Y-20028271D01*
X25550330Y-20017206D01*
X25521521Y-20006766D01*
X25491593Y-19996685D01*
X25459771Y-19986696D01*
X25425283Y-19976532D01*
X25387356Y-19965925D01*
X25345217Y-19954610D01*
X25343381Y-19954124D01*
X25320532Y-19948067D01*
X25301661Y-19942980D01*
X25285893Y-19938567D01*
X25272354Y-19934532D01*
X25260171Y-19930577D01*
X25248470Y-19926409D01*
X25236377Y-19921729D01*
X25223018Y-19916242D01*
X25207519Y-19909652D01*
X25189007Y-19901663D01*
X25177449Y-19896691D01*
X25155639Y-19887441D01*
X25132579Y-19877809D01*
X25108764Y-19867989D01*
X25084688Y-19858177D01*
X25060846Y-19848568D01*
X25037733Y-19839357D01*
X25015843Y-19830741D01*
X24995671Y-19822914D01*
X24977712Y-19816072D01*
X24962460Y-19810411D01*
X24950409Y-19806125D01*
X24942056Y-19803410D01*
X24937893Y-19802462D01*
X24937692Y-19802643D01*
X24936293Y-19806217D01*
X24934009Y-19813813D01*
X24931040Y-19824699D01*
X24927588Y-19838146D01*
X24923854Y-19853423D01*
X24920346Y-19867983D01*
X24916944Y-19881585D01*
X24914286Y-19891306D01*
X24912175Y-19897737D01*
X24910412Y-19901469D01*
X24908799Y-19903091D01*
X24907137Y-19903196D01*
X24906465Y-19903013D01*
X24901506Y-19901660D01*
X24891897Y-19899034D01*
X24877808Y-19895181D01*
X24859411Y-19890149D01*
X24836875Y-19883983D01*
X24810372Y-19876732D01*
X24780072Y-19868441D01*
X24746146Y-19859158D01*
X24708765Y-19848928D01*
X24668099Y-19837799D01*
X24624319Y-19825818D01*
X24577595Y-19813031D01*
X24528099Y-19799484D01*
X24476001Y-19785225D01*
X24421472Y-19770300D01*
X24364682Y-19754757D01*
X24305802Y-19738641D01*
X24245003Y-19721999D01*
X24182456Y-19704879D01*
X24118331Y-19687326D01*
X24052798Y-19669388D01*
X23986030Y-19651111D01*
X23069471Y-19400216D01*
X23077604Y-19367964D01*
X23085738Y-19335711D01*
X23039741Y-19322338D01*
X23007652Y-19312845D01*
X22973820Y-19302382D01*
X22944700Y-19292814D01*
X22920145Y-19284089D01*
X22900009Y-19276157D01*
X22884144Y-19268968D01*
X22883928Y-19268861D01*
X22865407Y-19260677D01*
X22843380Y-19252577D01*
X22819374Y-19245123D01*
X22780384Y-19234067D01*
X22691484Y-19229654D01*
X22675720Y-19228905D01*
X22650174Y-19227854D01*
X22625008Y-19227052D01*
X22599313Y-19226485D01*
X22572178Y-19226139D01*
X22542695Y-19225999D01*
X22509954Y-19226053D01*
X22473044Y-19226284D01*
X22343504Y-19227328D01*
X22325866Y-19237259D01*
X22319355Y-19241375D01*
X22309491Y-19248242D01*
X22297119Y-19257254D01*
X22282964Y-19267875D01*
X22267752Y-19279569D01*
X22252206Y-19291799D01*
X22241693Y-19300106D01*
X22222836Y-19314763D01*
X22203068Y-19329872D01*
X22183600Y-19344517D01*
X22165644Y-19357781D01*
X22150412Y-19368750D01*
X22149382Y-19369478D01*
X22136157Y-19378866D01*
X22125317Y-19386749D01*
X22116137Y-19393786D01*
X22107891Y-19400635D01*
X22099855Y-19407954D01*
X22091303Y-19416401D01*
X22081511Y-19426634D01*
X22069753Y-19439312D01*
X22055305Y-19455092D01*
X22047666Y-19463449D01*
X22035058Y-19477157D01*
X22024486Y-19488405D01*
X22015185Y-19497882D01*
X22006394Y-19506275D01*
X21997351Y-19514274D01*
X21987292Y-19522566D01*
X21975455Y-19531839D01*
X21961077Y-19542781D01*
X21943397Y-19556082D01*
X21926347Y-19569013D01*
X21901408Y-19588530D01*
X21879307Y-19606705D01*
X21859099Y-19624322D01*
X21839840Y-19642166D01*
X21826166Y-19655109D01*
X21814413Y-19665896D01*
X21804341Y-19674587D01*
X21794972Y-19681952D01*
X21785327Y-19688755D01*
X21774429Y-19695764D01*
X21761301Y-19703746D01*
X21723744Y-19726233D01*
X21667229Y-19726247D01*
X21610714Y-19726262D01*
X21610714Y-19649002D01*
X21610715Y-19571743D01*
X21629303Y-19551847D01*
X21635596Y-19544687D01*
X21646825Y-19530376D01*
X21658789Y-19513530D01*
X21670578Y-19495396D01*
X21693264Y-19458840D01*
X21751684Y-19405104D01*
X21781793Y-19378012D01*
X21824212Y-19342035D01*
X21866493Y-19308844D01*
X21873040Y-19303893D01*
X21891481Y-19289726D01*
X21906878Y-19277457D01*
X21920099Y-19266340D01*
X21932013Y-19255629D01*
X21943488Y-19244576D01*
X21955393Y-19232436D01*
X21987904Y-19198552D01*
X22066289Y-19149930D01*
X22084773Y-19138447D01*
X22102204Y-19127535D01*
X22116450Y-19118458D01*
X22128118Y-19110778D01*
X22137816Y-19104057D01*
X22146153Y-19097858D01*
X22153737Y-19091744D01*
X22161175Y-19085278D01*
X22167029Y-19079902D01*
X23325611Y-19079902D01*
X23328840Y-19115875D01*
X23335483Y-19150385D01*
X23345492Y-19182241D01*
X23362264Y-19219139D01*
X23383409Y-19254023D01*
X23408318Y-19285630D01*
X23436803Y-19313797D01*
X23468678Y-19338362D01*
X23503757Y-19359163D01*
X23541853Y-19376037D01*
X23582781Y-19388823D01*
X23586345Y-19389645D01*
X23601219Y-19392042D01*
X23619393Y-19393818D01*
X23639519Y-19394939D01*
X23660248Y-19395369D01*
X23680231Y-19395075D01*
X23698119Y-19394021D01*
X23712564Y-19392172D01*
X23733420Y-19387654D01*
X23771997Y-19375523D01*
X23808432Y-19359083D01*
X23842406Y-19338629D01*
X23873600Y-19314454D01*
X23901698Y-19286853D01*
X23926379Y-19256120D01*
X23947328Y-19222548D01*
X23964224Y-19186432D01*
X23976750Y-19148066D01*
X23984362Y-19109508D01*
X23987309Y-19069486D01*
X23985312Y-19029602D01*
X23978429Y-18990181D01*
X23966717Y-18951545D01*
X23950233Y-18914018D01*
X23929034Y-18877922D01*
X23921809Y-18868130D01*
X23910395Y-18854625D01*
X23896852Y-18840012D01*
X23882215Y-18825325D01*
X23867521Y-18811598D01*
X23853805Y-18799864D01*
X23842104Y-18791159D01*
X23834003Y-18785963D01*
X23797526Y-18766189D01*
X23758499Y-18750522D01*
X23717644Y-18739263D01*
X23714681Y-18738664D01*
X23696622Y-18736193D01*
X23675435Y-18734838D01*
X23652652Y-18734587D01*
X23629806Y-18735426D01*
X23608428Y-18737343D01*
X23590051Y-18740325D01*
X23550284Y-18751330D01*
X23512658Y-18766728D01*
X23477601Y-18786226D01*
X23445398Y-18809563D01*
X23416328Y-18836479D01*
X23390674Y-18866712D01*
X23368717Y-18900001D01*
X23350740Y-18936084D01*
X23337025Y-18974702D01*
X23336899Y-18975140D01*
X23329592Y-19008342D01*
X23325846Y-19043660D01*
X23325611Y-19079902D01*
X22167029Y-19079902D01*
X22169077Y-19078021D01*
X22178049Y-19069537D01*
X22211424Y-19037766D01*
X22271114Y-19006301D01*
X22292606Y-18994908D01*
X22322941Y-18978536D01*
X22349672Y-18963675D01*
X22373413Y-18949947D01*
X22394781Y-18936975D01*
X22414391Y-18924381D01*
X22432859Y-18911789D01*
X22450799Y-18898821D01*
X22468829Y-18885099D01*
X22516372Y-18848101D01*
X22607738Y-18853847D01*
X22620572Y-18854648D01*
X22648054Y-18856337D01*
X22678399Y-18858173D01*
X22710157Y-18860068D01*
X22741881Y-18861938D01*
X22772123Y-18863696D01*
X22799434Y-18865255D01*
X22899764Y-18870917D01*
X22984854Y-18889492D01*
X22990740Y-18890782D01*
X23014834Y-18896162D01*
X23040103Y-18901942D01*
X23065320Y-18907831D01*
X23089254Y-18913540D01*
X23110675Y-18918780D01*
X23128356Y-18923261D01*
X23139312Y-18926095D01*
X23154661Y-18930005D01*
X23167840Y-18933289D01*
X23178164Y-18935782D01*
X23184947Y-18937314D01*
X23187504Y-18937719D01*
X23187564Y-18937596D01*
X23188586Y-18934173D01*
X23190663Y-18926542D01*
X23193641Y-18915308D01*
X23197366Y-18901076D01*
X23201682Y-18884452D01*
X23206435Y-18866042D01*
X23211470Y-18846451D01*
X23216633Y-18826286D01*
X23221767Y-18806151D01*
X23226720Y-18786652D01*
X23231335Y-18768395D01*
X23235458Y-18751986D01*
X23238934Y-18738030D01*
X23241609Y-18727132D01*
X23243327Y-18719899D01*
X23243934Y-18716936D01*
X23243647Y-18716395D01*
X23240036Y-18713610D01*
X23232935Y-18709328D01*
X23223165Y-18704027D01*
X23211549Y-18698182D01*
X23179164Y-18682448D01*
X23068674Y-18658134D01*
X23033175Y-18650280D01*
X22997260Y-18642211D01*
X22965511Y-18634908D01*
X22937492Y-18628246D01*
X22912771Y-18622105D01*
X22890913Y-18616360D01*
X22871485Y-18610890D01*
X22854054Y-18605571D01*
X22838184Y-18600282D01*
X22823443Y-18594898D01*
X22809397Y-18589299D01*
X22795612Y-18583360D01*
X22781654Y-18576960D01*
X22780416Y-18576380D01*
X22765154Y-18569480D01*
X22746757Y-18561516D01*
X22726717Y-18553115D01*
X22706526Y-18544903D01*
X22687674Y-18537506D01*
X22685400Y-18536631D01*
X22666577Y-18529227D01*
X22646825Y-18521206D01*
X22627568Y-18513162D01*
X22610230Y-18505688D01*
X22596234Y-18499379D01*
X22578875Y-18491270D01*
X22559907Y-18482364D01*
X22544771Y-18475171D01*
X22533023Y-18469456D01*
X22524222Y-18464985D01*
X22517924Y-18461523D01*
X22513687Y-18458834D01*
X22511068Y-18456684D01*
X22509623Y-18454839D01*
X22508911Y-18453062D01*
X22508900Y-18453022D01*
X22508328Y-18448667D01*
X22507667Y-18440155D01*
X22506971Y-18428388D01*
X22506292Y-18414267D01*
X22505686Y-18398696D01*
X22504004Y-18350020D01*
X22493604Y-18347259D01*
X22493501Y-18347231D01*
X22484638Y-18345039D01*
X22471682Y-18342043D01*
X22455508Y-18338429D01*
X22436993Y-18334383D01*
X22417010Y-18330093D01*
X22396436Y-18325744D01*
X22376145Y-18321522D01*
X22357012Y-18317616D01*
X22339914Y-18314210D01*
X22325724Y-18311491D01*
X22297154Y-18306128D01*
X22248826Y-18296798D01*
X22203324Y-18287678D01*
X22161017Y-18278847D01*
X22122271Y-18270385D01*
X22087455Y-18262371D01*
X22056937Y-18254884D01*
X22031084Y-18248004D01*
X21967584Y-18230225D01*
X21932807Y-18230213D01*
X21898029Y-18230202D01*
X21852797Y-18248166D01*
X21836858Y-18254460D01*
X21816754Y-18262331D01*
X21795215Y-18270711D01*
X21773960Y-18278930D01*
X21754704Y-18286320D01*
X21701844Y-18306510D01*
X21683819Y-18290581D01*
X21672164Y-18279511D01*
X21659179Y-18265569D01*
X21647148Y-18251094D01*
X21637083Y-18237311D01*
X21629998Y-18225446D01*
X21622855Y-18207402D01*
X21619115Y-18186684D01*
X21620114Y-18166417D01*
X21625881Y-18147207D01*
X21626793Y-18145238D01*
X21634451Y-18132740D01*
X21644092Y-18121935D01*
X21654280Y-18114479D01*
X21657705Y-18111907D01*
X21662659Y-18104980D01*
X21667778Y-18093740D01*
X21674540Y-18076532D01*
X21777084Y-18020854D01*
X21854554Y-18015451D01*
X21932024Y-18010049D01*
X22008053Y-18018537D01*
X22021125Y-18020016D01*
X22040954Y-18022379D01*
X22058852Y-18024717D01*
X22075803Y-18027195D01*
X22092791Y-18029979D01*
X22110799Y-18033232D01*
X22130809Y-18037120D01*
X22153806Y-18041807D01*
X22180773Y-18047457D01*
X22204964Y-18052513D01*
X22232912Y-18058155D01*
X22257824Y-18062905D01*
X22280775Y-18066949D01*
X22302837Y-18070474D01*
X22325083Y-18073668D01*
X22348584Y-18076718D01*
X22359899Y-18078131D01*
X22379248Y-18080630D01*
X22395485Y-18082918D01*
X22409753Y-18085222D01*
X22423196Y-18087765D01*
X22436957Y-18090772D01*
X22452180Y-18094468D01*
X22470010Y-18099078D01*
X22491589Y-18104827D01*
X22496794Y-18106218D01*
X22514716Y-18110915D01*
X22530868Y-18115010D01*
X22544622Y-18118355D01*
X22555354Y-18120801D01*
X22562438Y-18122197D01*
X22565249Y-18122396D01*
X22566722Y-18119859D01*
X22569787Y-18113525D01*
X22573927Y-18104436D01*
X22578676Y-18093591D01*
X22590327Y-18066499D01*
X22627319Y-18053195D01*
X22664312Y-18039890D01*
X22737082Y-18053670D01*
X22741287Y-18054460D01*
X22763785Y-18058530D01*
X22789611Y-18062989D01*
X22817353Y-18067607D01*
X22845604Y-18072153D01*
X22872952Y-18076393D01*
X22897989Y-18080098D01*
X22916846Y-18082852D01*
X22935342Y-18085675D01*
X22953351Y-18088577D01*
X22971479Y-18091673D01*
X22990331Y-18095079D01*
X23010510Y-18098908D01*
X23032622Y-18103276D01*
X23057272Y-18108297D01*
X23085064Y-18114086D01*
X23116603Y-18120759D01*
X23152494Y-18128430D01*
X23161441Y-18130352D01*
X23190627Y-18136658D01*
X23218977Y-18142838D01*
X23245973Y-18148776D01*
X23271099Y-18154356D01*
X23293838Y-18159462D01*
X23313674Y-18163979D01*
X23330090Y-18167790D01*
X23342570Y-18170781D01*
X23350597Y-18172834D01*
X23352847Y-18173452D01*
X23364397Y-18176577D01*
X23373804Y-18179055D01*
X23380151Y-18180646D01*
X23382521Y-18181113D01*
X23383325Y-18178284D01*
X23385200Y-18171158D01*
X23387990Y-18160355D01*
X23391540Y-18146488D01*
X23395695Y-18130172D01*
X23400300Y-18112021D01*
X23405200Y-18092650D01*
X23410241Y-18072673D01*
X23415267Y-18052705D01*
X23420124Y-18033359D01*
X23424658Y-18015250D01*
X23428712Y-17998992D01*
X23432133Y-17985200D01*
X23434765Y-17974488D01*
X23436454Y-17967471D01*
X23437045Y-17964762D01*
X23436510Y-17964335D01*
X23432010Y-17962965D01*
X23423527Y-17961103D01*
X23411779Y-17958887D01*
X23397483Y-17956457D01*
X23381358Y-17953953D01*
X23369807Y-17952183D01*
X23349423Y-17948757D01*
X23332164Y-17945434D01*
X23318674Y-17942344D01*
X23309597Y-17939616D01*
X23307597Y-17938880D01*
X23299806Y-17936115D01*
X23288068Y-17932026D01*
X23272987Y-17926820D01*
X23255169Y-17920704D01*
X23235216Y-17913887D01*
X23213735Y-17906577D01*
X23191330Y-17898980D01*
X23149773Y-17884706D01*
X23101179Y-17867518D01*
X23052376Y-17849759D01*
X23004215Y-17831751D01*
X22957546Y-17813818D01*
X22913220Y-17796281D01*
X22872086Y-17779464D01*
X22834994Y-17763690D01*
X22820626Y-17757408D01*
X22803456Y-17749766D01*
X22788700Y-17742942D01*
X22775402Y-17736431D01*
X22762604Y-17729725D01*
X22749349Y-17722318D01*
X22734680Y-17713704D01*
X22717639Y-17703376D01*
X22697269Y-17690828D01*
X22626854Y-17647272D01*
X22626784Y-17612438D01*
X22626549Y-17597724D01*
X22625898Y-17580801D01*
X22624937Y-17564760D01*
X22623769Y-17551699D01*
X22622897Y-17544399D01*
X22621380Y-17534380D01*
X22619662Y-17527587D01*
X22617399Y-17522831D01*
X22614244Y-17518923D01*
X22611800Y-17516856D01*
X22604723Y-17511910D01*
X22593963Y-17504993D01*
X22579985Y-17496384D01*
X22563256Y-17486360D01*
X22544239Y-17475199D01*
X22523402Y-17463178D01*
X22501208Y-17450576D01*
X22478124Y-17437671D01*
X22458622Y-17426737D01*
X22436519Y-17414020D01*
X22417204Y-17402527D01*
X22401114Y-17392523D01*
X22388687Y-17384276D01*
X22380357Y-17378050D01*
X22372673Y-17372311D01*
X22359630Y-17363928D01*
X22342843Y-17354143D01*
X22322826Y-17343254D01*
X22300094Y-17331559D01*
X22297879Y-17330427D01*
X22285500Y-17323627D01*
X22269282Y-17314111D01*
X22249487Y-17302046D01*
X22226377Y-17287595D01*
X22200212Y-17270924D01*
X22171256Y-17252198D01*
X22139770Y-17231582D01*
X22106014Y-17209240D01*
X22104096Y-17207964D01*
X22087912Y-17197258D01*
X22074850Y-17188821D01*
X22063926Y-17182130D01*
X22054156Y-17176663D01*
X22044557Y-17171896D01*
X22034146Y-17167308D01*
X22021939Y-17162375D01*
X22006954Y-17156574D01*
X21996164Y-17152499D01*
X21975676Y-17145015D01*
X21953907Y-17137318D01*
X21932854Y-17130110D01*
X21914516Y-17124093D01*
X21869068Y-17109643D01*
X21835141Y-17080399D01*
X21825732Y-17072128D01*
X21815944Y-17063133D01*
X21808178Y-17055551D01*
X21803060Y-17049998D01*
X21801214Y-17047086D01*
X21801230Y-17046492D01*
X21801536Y-17041396D01*
X21802178Y-17032577D01*
X21803075Y-17021092D01*
X21804148Y-17007999D01*
X21807082Y-16972982D01*
X21838605Y-16938652D01*
X21848347Y-16928132D01*
X21857340Y-16918599D01*
X21864632Y-16911060D01*
X21869652Y-16906104D01*
X21871830Y-16904321D01*
X21874548Y-16904942D01*
X21881528Y-16906734D01*
X21892105Y-16909524D01*
X21905620Y-16913136D01*
X21921416Y-16917397D01*
X21938837Y-16922131D01*
X21950467Y-16925356D01*
X21976453Y-16932959D01*
X22003525Y-16941445D01*
X22032575Y-16951108D01*
X22064491Y-16962240D01*
X22100163Y-16975134D01*
X22110562Y-16978953D01*
X22135656Y-16988261D01*
X22157078Y-16996387D01*
X22175651Y-17003676D01*
X22192202Y-17010472D01*
X22207555Y-17017118D01*
X22222536Y-17023959D01*
X22237968Y-17031339D01*
X22254677Y-17039603D01*
X22313169Y-17068879D01*
X22371517Y-17115547D01*
X22376815Y-17119780D01*
X22393593Y-17133087D01*
X22407662Y-17143990D01*
X22419971Y-17153134D01*
X22431467Y-17161165D01*
X22443099Y-17168729D01*
X22455814Y-17176470D01*
X22470560Y-17185035D01*
X22488284Y-17195069D01*
X22513784Y-17209329D01*
X22538967Y-17223248D01*
X22562664Y-17236183D01*
X22584457Y-17247911D01*
X22603928Y-17258213D01*
X22620662Y-17266869D01*
X22634241Y-17273657D01*
X22644248Y-17278357D01*
X22650266Y-17280749D01*
X22651164Y-17281008D01*
X22658136Y-17282218D01*
X22661949Y-17281303D01*
X22663882Y-17278871D01*
X22668425Y-17272999D01*
X22675014Y-17264414D01*
X22683124Y-17253802D01*
X22692228Y-17241848D01*
X22720456Y-17204725D01*
X22777090Y-17214392D01*
X22802574Y-17218739D01*
X22830743Y-17223550D01*
X22856153Y-17227924D01*
X22879231Y-17231959D01*
X22900401Y-17235757D01*
X22920087Y-17239417D01*
X22938717Y-17243038D01*
X22956714Y-17246720D01*
X22974503Y-17250565D01*
X22992510Y-17254670D01*
X23011161Y-17259137D01*
X23030880Y-17264064D01*
X23052092Y-17269553D01*
X23075222Y-17275702D01*
X23100696Y-17282611D01*
X23128939Y-17290381D01*
X23160377Y-17299112D01*
X23195433Y-17308902D01*
X23234533Y-17319852D01*
X23278104Y-17332063D01*
X23291241Y-17335743D01*
X23327141Y-17345791D01*
X23361545Y-17355409D01*
X23394143Y-17364511D01*
X23424627Y-17373010D01*
X23452689Y-17380822D01*
X23478020Y-17387861D01*
X23500312Y-17394041D01*
X23519255Y-17399276D01*
X23534542Y-17403480D01*
X23545863Y-17406569D01*
X23552910Y-17408456D01*
X23555376Y-17409056D01*
X23555908Y-17407760D01*
X23557617Y-17402133D01*
X23560267Y-17392656D01*
X23563698Y-17379954D01*
X23567750Y-17364653D01*
X23572263Y-17347379D01*
X23577078Y-17328758D01*
X23582035Y-17309415D01*
X23586976Y-17289978D01*
X23591740Y-17271072D01*
X23596168Y-17253322D01*
X23600100Y-17237356D01*
X23603376Y-17223798D01*
X23605838Y-17213275D01*
X23607326Y-17206412D01*
X23607680Y-17203836D01*
X23607631Y-17203807D01*
X23604507Y-17202793D01*
X23596899Y-17200565D01*
X23585189Y-17197229D01*
X23569759Y-17192892D01*
X23550991Y-17187660D01*
X23529268Y-17181638D01*
X23504971Y-17174935D01*
X23478484Y-17167655D01*
X23450187Y-17159904D01*
X23420464Y-17151790D01*
X23235044Y-17101255D01*
X23014064Y-16930079D01*
X23008755Y-16925966D01*
X22979470Y-16903278D01*
X22951354Y-16881489D01*
X22924667Y-16860802D01*
X22899666Y-16841417D01*
X22876610Y-16823535D01*
X22855760Y-16807356D01*
X22837373Y-16793083D01*
X22821708Y-16780915D01*
X22809025Y-16771053D01*
X22799581Y-16763699D01*
X22793637Y-16759054D01*
X22791450Y-16757317D01*
X22791383Y-16757151D01*
X22790773Y-16753412D01*
X22789711Y-16745089D01*
X22788238Y-16732572D01*
X22786398Y-16716248D01*
X22784231Y-16696507D01*
X22781782Y-16673738D01*
X22779092Y-16648328D01*
X22776203Y-16620669D01*
X22773157Y-16591147D01*
X22769998Y-16560152D01*
X22750180Y-16364572D01*
X22757020Y-16301072D01*
X22757636Y-16295251D01*
X22759806Y-16273215D01*
X22761910Y-16249724D01*
X22763812Y-16226403D01*
X22765378Y-16204878D01*
X22766474Y-16186772D01*
X22766533Y-16185645D01*
X22769096Y-16150310D01*
X22773245Y-16112043D01*
X22779077Y-16069932D01*
X22780559Y-16060025D01*
X22783728Y-16038160D01*
X22786880Y-16015618D01*
X22789820Y-15993824D01*
X22792355Y-15974200D01*
X22794291Y-15958172D01*
X22795093Y-15951389D01*
X22797760Y-15930873D01*
X22800929Y-15908629D01*
X22804271Y-15886918D01*
X22807454Y-15868002D01*
X22809549Y-15856425D01*
X22812252Y-15842505D01*
X22814822Y-15831370D01*
X22817664Y-15821684D01*
X22821188Y-15812116D01*
X22825800Y-15801329D01*
X22831909Y-15787992D01*
X22832578Y-15786554D01*
X22840633Y-15769976D01*
X22847565Y-15757308D01*
X22853866Y-15747715D01*
X22860028Y-15740367D01*
X22871634Y-15728302D01*
X22994430Y-15728302D01*
X22998305Y-15734214D01*
X22999483Y-15736526D01*
X23002323Y-15743506D01*
X23006083Y-15753756D01*
X23010413Y-15766311D01*
X23014963Y-15780206D01*
X23027746Y-15820284D01*
X23024100Y-15865098D01*
X23023161Y-15876184D01*
X23021728Y-15891770D01*
X23020299Y-15905937D01*
X23018999Y-15917470D01*
X23017952Y-15925152D01*
X23015868Y-15938254D01*
X23013766Y-15952639D01*
X23011798Y-15967661D01*
X23009828Y-15984428D01*
X23007721Y-16004044D01*
X23005339Y-16027618D01*
X23005177Y-16029244D01*
X23003564Y-16044574D01*
X23001884Y-16058384D01*
X22999969Y-16071595D01*
X22997651Y-16085128D01*
X22994761Y-16099903D01*
X22991130Y-16116841D01*
X22986592Y-16136862D01*
X22980977Y-16160888D01*
X22978367Y-16171850D01*
X22973576Y-16191429D01*
X22969117Y-16208958D01*
X22965148Y-16223855D01*
X22961825Y-16235539D01*
X22959305Y-16243430D01*
X22957746Y-16246946D01*
X22957726Y-16246969D01*
X22956001Y-16249402D01*
X22955105Y-16252511D01*
X22955157Y-16256988D01*
X22956275Y-16263528D01*
X22958578Y-16272826D01*
X22962183Y-16285577D01*
X22967209Y-16302474D01*
X22967741Y-16304258D01*
X22971670Y-16318248D01*
X22975095Y-16331810D01*
X22977664Y-16343474D01*
X22979024Y-16351773D01*
X22979235Y-16353451D01*
X22980640Y-16360250D01*
X22983248Y-16369131D01*
X22987245Y-16380600D01*
X22992812Y-16395164D01*
X23000134Y-16413331D01*
X23009394Y-16435606D01*
X23011152Y-16439779D01*
X23018583Y-16457159D01*
X23025524Y-16472995D01*
X23031688Y-16486654D01*
X23036784Y-16497507D01*
X23040526Y-16504923D01*
X23042625Y-16508271D01*
X23043717Y-16509275D01*
X23048491Y-16513611D01*
X23056300Y-16520671D01*
X23066656Y-16530017D01*
X23079074Y-16541212D01*
X23093067Y-16553819D01*
X23108150Y-16567400D01*
X23123835Y-16581517D01*
X23139636Y-16595734D01*
X23155069Y-16609612D01*
X23169645Y-16622714D01*
X23182879Y-16634602D01*
X23194284Y-16644840D01*
X23203375Y-16652989D01*
X23209665Y-16658611D01*
X23212668Y-16661271D01*
X23214826Y-16662953D01*
X23217315Y-16663865D01*
X23220732Y-16663492D01*
X23225979Y-16661585D01*
X23233959Y-16657893D01*
X23245575Y-16652167D01*
X23254744Y-16647642D01*
X23268966Y-16640716D01*
X23282658Y-16634141D01*
X23293817Y-16628885D01*
X23314490Y-16619305D01*
X23518204Y-16737875D01*
X23523953Y-16741220D01*
X23553234Y-16758246D01*
X23581188Y-16774475D01*
X23607510Y-16789732D01*
X23631892Y-16803840D01*
X23654029Y-16816623D01*
X23673615Y-16827905D01*
X23690344Y-16837509D01*
X23703909Y-16845258D01*
X23714004Y-16850977D01*
X23720324Y-16854489D01*
X23722562Y-16855618D01*
X23723236Y-16853382D01*
X23725003Y-16846825D01*
X23727680Y-16836605D01*
X23731099Y-16823381D01*
X23735087Y-16807809D01*
X23739475Y-16790546D01*
X23743655Y-16774186D01*
X23748013Y-16757634D01*
X23751492Y-16745199D01*
X23754238Y-16736416D01*
X23756399Y-16730823D01*
X23758122Y-16727954D01*
X23759554Y-16727344D01*
X23759654Y-16727372D01*
X23763090Y-16728310D01*
X23771227Y-16730531D01*
X23783893Y-16733988D01*
X23800914Y-16738635D01*
X23822118Y-16744422D01*
X23847331Y-16751305D01*
X23876381Y-16759234D01*
X23909095Y-16768163D01*
X23945299Y-16778045D01*
X23984821Y-16788833D01*
X24027488Y-16800479D01*
X24073126Y-16812936D01*
X24121563Y-16826157D01*
X24172626Y-16840095D01*
X24226142Y-16854702D01*
X24281938Y-16869931D01*
X24339841Y-16885736D01*
X24399677Y-16902068D01*
X24461275Y-16918881D01*
X24524461Y-16936128D01*
X24589062Y-16953760D01*
X24654904Y-16971732D01*
X24665210Y-16974545D01*
X24730856Y-16992468D01*
X24795226Y-17010049D01*
X24858146Y-17027242D01*
X24919445Y-17043999D01*
X24978949Y-17060272D01*
X25036486Y-17076015D01*
X25091884Y-17091179D01*
X25144969Y-17105718D01*
X25195570Y-17119584D01*
X25243513Y-17132730D01*
X25288626Y-17145108D01*
X25330737Y-17156671D01*
X25369673Y-17167371D01*
X25405261Y-17177162D01*
X25437328Y-17185996D01*
X25465702Y-17193825D01*
X25490211Y-17200602D01*
X25510682Y-17206280D01*
X25526942Y-17210812D01*
X25538819Y-17214149D01*
X25546139Y-17216245D01*
X25548731Y-17217053D01*
X25548975Y-17217646D01*
X25548817Y-17222338D01*
X25547529Y-17230905D01*
X25545238Y-17242587D01*
X25542074Y-17256620D01*
X25540404Y-17263675D01*
X25537570Y-17275819D01*
X25535341Y-17285607D01*
X25533912Y-17292180D01*
X25533477Y-17294674D01*
X25533863Y-17294771D01*
X25538172Y-17295588D01*
X25546939Y-17297167D01*
X25559765Y-17299438D01*
X25576253Y-17302332D01*
X25596005Y-17305781D01*
X25618623Y-17309716D01*
X25643708Y-17314067D01*
X25670863Y-17318765D01*
X25699689Y-17323742D01*
X25729790Y-17328929D01*
X25760766Y-17334256D01*
X25792220Y-17339655D01*
X25823753Y-17345057D01*
X25854968Y-17350392D01*
X25924732Y-17362302D01*
X26072224Y-17343028D01*
X26154774Y-17312152D01*
X26159780Y-17310280D01*
X26175233Y-17304479D01*
X26188989Y-17299253D01*
X26201527Y-17294380D01*
X26213326Y-17289638D01*
X26224866Y-17284808D01*
X26236625Y-17279668D01*
X26249082Y-17273998D01*
X26262716Y-17267576D01*
X26278007Y-17260181D01*
X26295433Y-17251594D01*
X26315474Y-17241592D01*
X26338609Y-17229955D01*
X26365316Y-17216463D01*
X26396074Y-17200894D01*
X26554824Y-17120511D01*
X26561902Y-17099830D01*
X26563549Y-17095141D01*
X26567457Y-17084387D01*
X26572626Y-17070447D01*
X26578699Y-17054275D01*
X26585321Y-17036821D01*
X26592134Y-17019040D01*
X26615288Y-16958932D01*
X26643476Y-16921721D01*
X26643783Y-16921316D01*
X26658199Y-16903179D01*
X26675190Y-16883199D01*
X26693504Y-16862806D01*
X26711893Y-16843431D01*
X26752122Y-16802352D01*
X26793272Y-16793258D01*
X26834423Y-16784163D01*
X26867054Y-16806777D01*
X26899686Y-16829392D01*
X26897972Y-16892892D01*
X26896259Y-16956392D01*
X26867584Y-17016082D01*
X26858976Y-17033840D01*
X26850405Y-17050968D01*
X26842698Y-17065523D01*
X26835219Y-17078615D01*
X26827328Y-17091354D01*
X26818388Y-17104853D01*
X26807761Y-17120222D01*
X26805156Y-17123929D01*
X26795594Y-17137369D01*
X26786739Y-17149567D01*
X26779135Y-17159789D01*
X26773326Y-17167301D01*
X26769859Y-17171366D01*
X26769733Y-17171488D01*
X26765736Y-17174950D01*
X26758330Y-17180985D01*
X26748112Y-17189124D01*
X26735679Y-17198894D01*
X26721626Y-17209824D01*
X26706550Y-17221442D01*
X26700864Y-17225796D01*
X26684866Y-17237923D01*
X26670926Y-17248203D01*
X26658111Y-17257246D01*
X26645488Y-17265661D01*
X26632126Y-17274056D01*
X26617092Y-17283041D01*
X26599454Y-17293224D01*
X26578280Y-17305213D01*
X26575517Y-17306767D01*
X26558203Y-17316442D01*
X26537316Y-17328025D01*
X26513616Y-17341100D01*
X26487866Y-17355249D01*
X26460824Y-17370055D01*
X26433253Y-17385101D01*
X26405913Y-17399968D01*
X26379564Y-17414240D01*
X26369435Y-17419724D01*
X26329546Y-17441516D01*
X26293522Y-17461551D01*
X26260779Y-17480166D01*
X26230729Y-17497698D01*
X26202786Y-17514481D01*
X26176364Y-17530854D01*
X26161924Y-17539851D01*
X26138685Y-17554052D01*
X26112978Y-17569502D01*
X26085965Y-17585511D01*
X26058810Y-17601393D01*
X26032675Y-17616458D01*
X26008724Y-17630020D01*
X26003581Y-17632898D01*
X25980051Y-17645998D01*
X25959939Y-17657043D01*
X25942426Y-17666438D01*
X25926696Y-17674592D01*
X25911931Y-17681911D01*
X25897312Y-17688803D01*
X25882023Y-17695674D01*
X25865247Y-17702933D01*
X25846164Y-17710986D01*
X25775044Y-17740762D01*
X25699123Y-17751958D01*
X25623201Y-17763153D01*
X25549263Y-17741527D01*
X25545302Y-17740371D01*
X25525664Y-17734684D01*
X25506734Y-17729278D01*
X25489345Y-17724386D01*
X25474329Y-17720239D01*
X25462520Y-17717070D01*
X25454748Y-17715113D01*
X25434172Y-17710325D01*
X25408852Y-17816440D01*
X25383532Y-17922556D01*
X25401488Y-17926511D01*
X25407462Y-17927742D01*
X25417925Y-17929800D01*
X25432239Y-17932562D01*
X25449826Y-17935917D01*
X25470109Y-17939756D01*
X25492512Y-17943970D01*
X25516456Y-17948448D01*
X25541364Y-17953081D01*
X25556593Y-17955906D01*
X25578992Y-17960078D01*
X25598803Y-17963829D01*
X25616556Y-17967300D01*
X25632781Y-17970634D01*
X25648008Y-17973971D01*
X25662767Y-17977453D01*
X25677589Y-17981222D01*
X25693004Y-17985419D01*
X25709541Y-17990186D01*
X25727732Y-17995664D01*
X25748107Y-18001994D01*
X25771195Y-18009319D01*
X25797527Y-18017779D01*
X25827633Y-18027517D01*
X25862043Y-18038674D01*
X25881866Y-18045025D01*
X25908826Y-18053494D01*
X25938332Y-18062613D01*
X25969111Y-18071995D01*
X25999889Y-18081252D01*
X26029394Y-18089997D01*
X26056353Y-18097842D01*
X26161124Y-18127976D01*
X26162566Y-18181942D01*
X26173275Y-18181947D01*
X26178823Y-18181707D01*
X26188609Y-18180991D01*
X26201454Y-18179887D01*
X26216339Y-18178482D01*
X26232244Y-18176864D01*
X26237269Y-18176354D01*
X26252297Y-18174965D01*
X26271206Y-18173355D01*
X26293164Y-18171590D01*
X26317335Y-18169734D01*
X26342888Y-18167851D01*
X26368989Y-18166007D01*
X26394804Y-18164265D01*
X26509104Y-18156755D01*
X26584034Y-18140396D01*
X26598913Y-18137161D01*
X26618513Y-18132990D01*
X26635065Y-18129657D01*
X26649728Y-18126988D01*
X26663656Y-18124807D01*
X26678008Y-18122937D01*
X26693938Y-18121204D01*
X26712605Y-18119432D01*
X26735164Y-18117444D01*
X26764304Y-18114942D01*
X26795787Y-18112296D01*
X26822926Y-18110097D01*
X26846114Y-18108322D01*
X26865742Y-18106947D01*
X26882204Y-18105949D01*
X26895891Y-18105305D01*
X26907196Y-18104990D01*
X26916512Y-18104983D01*
X26924231Y-18105259D01*
X26930744Y-18105795D01*
X26933203Y-18106061D01*
X26942843Y-18107075D01*
X26950340Y-18107818D01*
X26954239Y-18108145D01*
X26954837Y-18108521D01*
X26955713Y-18111074D01*
X26956378Y-18116427D01*
X26956854Y-18125036D01*
X26957161Y-18137357D01*
X26957322Y-18153845D01*
X26957358Y-18174957D01*
X26957327Y-18191286D01*
X26957218Y-18208167D01*
X26956999Y-18221062D01*
X26956631Y-18230583D01*
X26956076Y-18237346D01*
X26955296Y-18241963D01*
X26954255Y-18245050D01*
X26952913Y-18247219D01*
X26950215Y-18249499D01*
X26942646Y-18253727D01*
X26931285Y-18258824D01*
X26916774Y-18264482D01*
X26915414Y-18264980D01*
X26903350Y-18269179D01*
X26891618Y-18272763D01*
X26879145Y-18275991D01*
X26864857Y-18279119D01*
X26847680Y-18282404D01*
X26826542Y-18286104D01*
X26794477Y-18291631D01*
X26755609Y-18298496D01*
X26715161Y-18305796D01*
X26673958Y-18313376D01*
X26632823Y-18321080D01*
X26592582Y-18328751D01*
X26554058Y-18336234D01*
X26518076Y-18343373D01*
X26485460Y-18350012D01*
X26457034Y-18355995D01*
X26440393Y-18359501D01*
X26409702Y-18365670D01*
X26377186Y-18371889D01*
X26344534Y-18377844D01*
X26313436Y-18383224D01*
X26285584Y-18387715D01*
X26280200Y-18388544D01*
X26256368Y-18392281D01*
X26236298Y-18395594D01*
X26218934Y-18398702D01*
X26203220Y-18401825D01*
X26188098Y-18405181D01*
X26172513Y-18408992D01*
X26155407Y-18413476D01*
X26135724Y-18418853D01*
X26069684Y-18437114D01*
X26011264Y-18478454D01*
X25974434Y-18485179D01*
X25974362Y-18485192D01*
X25962771Y-18487056D01*
X25946650Y-18489278D01*
X25926526Y-18491800D01*
X25902929Y-18494566D01*
X25876386Y-18497521D01*
X25847427Y-18500607D01*
X25816579Y-18503769D01*
X25784372Y-18506949D01*
X25751333Y-18510093D01*
X25717991Y-18513143D01*
X25684874Y-18516044D01*
X25669321Y-18517480D01*
X25648323Y-18519634D01*
X25625751Y-18522130D01*
X25603452Y-18524762D01*
X25583274Y-18527326D01*
X25528664Y-18534591D01*
X25468974Y-18522151D01*
X25460333Y-18520327D01*
X25440132Y-18515832D01*
X25421055Y-18511183D01*
X25401926Y-18506056D01*
X25381566Y-18500128D01*
X25358799Y-18493074D01*
X25332449Y-18484571D01*
X25321874Y-18481115D01*
X25304013Y-18475302D01*
X25288116Y-18470156D01*
X25274756Y-18465862D01*
X25264503Y-18462602D01*
X25257932Y-18460561D01*
X25255614Y-18459922D01*
X25255508Y-18460413D01*
X25254471Y-18464859D01*
X25252430Y-18473502D01*
X25249508Y-18485823D01*
X25245828Y-18501301D01*
X25241516Y-18519415D01*
X25236693Y-18539646D01*
X25231484Y-18561472D01*
X25229231Y-18570914D01*
X25224170Y-18592145D01*
X25219547Y-18611571D01*
X25215488Y-18628668D01*
X25212115Y-18642915D01*
X25209553Y-18653789D01*
X25207925Y-18660767D01*
X25207354Y-18663328D01*
X25208963Y-18664386D01*
X25214423Y-18667446D01*
X25223055Y-18672103D01*
X25234135Y-18677969D01*
X25246942Y-18684653D01*
X25286529Y-18705182D01*
X25335207Y-18705147D01*
X25383884Y-18705113D01*
X25442304Y-18719344D01*
X25448670Y-18720916D01*
X25467317Y-18725734D01*
X25485680Y-18730764D01*
X25502592Y-18735671D01*
X25516886Y-18740119D01*
X25527394Y-18743773D01*
X25530555Y-18745057D01*
X25540493Y-18749533D01*
X25554012Y-18756018D01*
X25570515Y-18764210D01*
X25589403Y-18773808D01*
X25610077Y-18784507D01*
X25631941Y-18796006D01*
X25654394Y-18808002D01*
X25659757Y-18810888D01*
X25682924Y-18823324D01*
X25709477Y-18837536D01*
X25738537Y-18853055D01*
X25769222Y-18869411D01*
X25800652Y-18886137D01*
X25831948Y-18902762D01*
X25862229Y-18918818D01*
X25890614Y-18933836D01*
X25891427Y-18934266D01*
X25915658Y-18947072D01*
X25938509Y-18959153D01*
X25959592Y-18970305D01*
X25978518Y-18980321D01*
X25994897Y-18988994D01*
X26008340Y-18996119D01*
X26018459Y-19001490D01*
X26024864Y-19004900D01*
X26027166Y-19006144D01*
X26026477Y-19007878D01*
X26023702Y-19013412D01*
X26019168Y-19022041D01*
X26013256Y-19033044D01*
X26006343Y-19045700D01*
X26000326Y-19056727D01*
X25994267Y-19068039D01*
X25993512Y-19069486D01*
X25989546Y-19077093D01*
X25986541Y-19083164D01*
%TD*%
D13*
%TO.C,JP1*%
X26775000Y-45578400D03*
D14*
X24235000Y-45578400D03*
X21695000Y-45578400D03*
%TD*%
D15*
%TO.C,J2*%
X31870000Y-52030000D03*
X31870000Y-49490000D03*
X31870000Y-46950000D03*
X31870000Y-44410000D03*
X31870000Y-41870000D03*
X31870000Y-39330000D03*
X31870000Y-36790000D03*
X31870000Y-34250000D03*
X31870000Y-31710000D03*
X31870000Y-29170000D03*
X31870000Y-26630000D03*
X31870000Y-24090000D03*
X31870000Y-21550000D03*
X31870000Y-19010000D03*
X31870000Y-16470000D03*
X16630000Y-16470000D03*
X16630000Y-19010000D03*
X16630000Y-21550000D03*
X16630000Y-24090000D03*
X16630000Y-26630000D03*
X16630000Y-29170000D03*
X16630000Y-31710000D03*
X16630000Y-34250000D03*
X16630000Y-36790000D03*
X16630000Y-39330000D03*
X16630000Y-41870000D03*
X16630000Y-44410000D03*
X16630000Y-46950000D03*
X16630000Y-49490000D03*
X16630000Y-52030000D03*
%TD*%
D16*
%TO.C,FID2*%
X19500000Y-50775000D03*
%TD*%
%TO.C,FID3*%
X29000000Y-17725000D03*
%TD*%
M02*
